<?xml version="1.0" encoding="UTF-8"?>
<svg version="1.1" xmlns="http://www.w3.org/2000/svg" width="500" height="500">
<path d="M0 0 C2.75404571 -0.19498611 5.46276269 -0.21100142 8.22357178 -0.17381287 C9.24679031 -0.17622482 10.27000885 -0.17863678 11.32423401 -0.18112183 C13.4989711 -0.18014091 15.67373241 -0.16668938 17.84832764 -0.14183044 C21.12340046 -0.10799754 24.39570062 -0.12103968 27.6708374 -0.14060974 C51.28621697 -0.12371966 75.47453955 5.33467907 92.99310303 22.45509338 C110.75102437 42.35174248 117.3550418 63.98913901 115.99310303 90.45509338 C114.65903389 108.07983777 108.38503251 126.41095709 95.99310303 139.45509338 C95.33310303 139.45509338 94.67310303 139.45509338 93.99310303 139.45509338 C93.59671631 140.35228088 93.59671631 140.35228088 93.19232178 141.26759338 C91.94388017 143.544881 90.78018206 144.79228999 88.80560303 146.45509338 C87.9799585 147.16665588 87.9799585 147.16665588 87.13763428 147.89259338 C67.74628023 162.0210845 46.45356525 166.8140527 22.85247803 166.65040588 C21.41514237 166.64745677 19.97780455 166.6454217 18.54046631 166.64430237 C13.2746453 166.63391558 8.00887059 166.60599361 2.74310303 166.58009338 C-9.05439697 166.53884338 -20.85189697 166.49759338 -33.00689697 166.45509338 C-33.00689697 195.82509338 -33.00689697 225.19509338 -33.00689697 255.45509338 C-36.38207366 257.14268173 -40.20545296 256.59662696 -43.91705322 256.58790588 C-44.79969345 256.58886261 -45.68233368 256.58981934 -46.59172058 256.59080505 C-48.45871044 256.59148607 -50.32570267 256.58963723 -52.19268799 256.58546448 C-55.06114985 256.58010878 -57.92945558 256.58541537 -60.7979126 256.59181213 C-62.60845982 256.59115146 -64.41900695 256.58987053 -66.22955322 256.58790588 C-67.52482689 256.59094223 -67.52482689 256.59094223 -68.8462677 256.59403992 C-74.89194258 256.57004777 -74.89194258 256.57004777 -76.00689697 255.45509338 C-76.17487251 253.37960658 -76.27227322 251.29838589 -76.34259033 249.21730042 C-76.36522446 248.56492401 -76.38785858 247.91254761 -76.41117859 247.24040222 C-76.61012219 241.15408298 -76.72434812 235.06560193 -76.81439877 228.97679329 C-76.87573141 224.89576244 -76.96314413 220.81938173 -77.11798096 216.74073792 C-78.31203105 184.49313982 -78.31203105 184.49313982 -67.35697937 171.92570496 C-66.15505662 170.65176305 -64.93302175 169.39638028 -63.68812561 168.16439819 C-61.24545483 165.68093532 -59.29084847 162.96757977 -57.25689697 160.14259338 C-56.56982666 159.23380432 -55.88275635 158.32501526 -55.17486572 157.38868713 C-53.51975553 155.14906956 -51.90315396 152.89683055 -50.30767822 150.61524963 C-49.85167236 149.96532043 -49.3956665 149.31539124 -48.92584229 148.64576721 C-48.0376657 147.37504805 -47.1552612 146.10027019 -46.27935791 144.82106018 C-45.23735025 143.33039862 -44.12775054 141.88741288 -43.00689697 140.45509338 C-42.34689697 140.45509338 -41.68689697 140.45509338 -41.00689697 140.45509338 C-40.75037354 139.72806213 -40.4938501 139.00103088 -40.22955322 138.25196838 C-38.94886872 135.32235143 -37.44261469 133.1913935 -35.44439697 130.70509338 C-34.82435791 129.92649963 -34.20431885 129.14790588 -33.56549072 128.34571838 C-32.00689697 126.45509338 -32.00689697 126.45509338 -31.00689697 125.45509338 C-28.92850138 125.35220192 -26.84661793 125.3193612 -24.76568604 125.31324768 C-23.78729515 125.30803604 -23.78729515 125.30803604 -22.78913879 125.30271912 C-21.36610015 125.2953464 -19.94304988 125.29000913 -18.51999664 125.28642845 C-16.25631967 125.27926083 -13.99285923 125.26358553 -11.72924805 125.24508667 C-5.29041798 125.19267943 1.14830332 125.14479241 7.58734131 125.12916565 C11.52450131 125.11898418 15.46113035 125.08939168 19.39807892 125.04784584 C20.88889769 125.03565721 22.37979198 125.03039201 23.87065887 125.03264427 C36.05788336 125.04650452 47.33827898 123.63582483 57.50482178 116.40821838 C58.99310303 115.45509338 58.99310303 115.45509338 60.99310303 115.45509338 C61.33341553 114.68165588 61.33341553 114.68165588 61.68060303 113.89259338 C62.99310303 111.45509338 62.99310303 111.45509338 65.36810303 108.45509338 C73.09647485 97.49318914 73.24171504 84.3699215 71.99310303 71.45509338 C69.99301291 61.34227817 64.37221806 53.57868944 56.00872803 47.70509338 C47.61951229 42.50247897 38.81426623 42.04851758 29.18890381 41.6030426 C26.90607638 41.44922968 24.66356621 41.16362359 22.39544678 40.86524963 C14.32555963 39.84837012 14.32555963 39.84837012 7.15911865 42.93165588 C4.31330679 46.09146557 2.10449952 49.51167586 -0.03814697 53.17384338 C-0.68783447 54.25665588 -1.33752197 55.33946838 -2.00689697 56.45509338 C-2.66689697 56.45509338 -3.32689697 56.45509338 -4.00689697 56.45509338 C-4.24795166 57.1627887 -4.48900635 57.87048401 -4.73736572 58.59962463 C-6.20617193 61.90330875 -8.06237735 64.31670139 -10.31939697 67.14259338 C-14.70756186 72.71228261 -18.92138755 78.39190479 -23.06939697 84.14259338 C-23.64149902 84.9330304 -24.21360107 85.72346741 -24.80303955 86.53785706 C-27.62298722 90.36230591 -27.62298722 90.36230591 -30.00689697 94.45509338 C-30.66689697 94.45509338 -31.32689697 94.45509338 -32.00689697 94.45509338 C-32.18998413 95.34889709 -32.18998413 95.34889709 -32.37677002 96.26075745 C-33.37522758 99.73775727 -35.6631929 102.35949577 -37.81939697 105.20509338 C-38.307146 105.859776 -38.79489502 106.51445862 -39.29742432 107.1889801 C-40.86017624 109.28309753 -42.43218191 111.3699601 -44.00689697 113.45509338 C-46.04951803 116.16270895 -48.09153168 118.87077741 -50.13189697 121.58009338 C-50.62963623 122.24057678 -51.12737549 122.90106018 -51.64019775 123.58155823 C-59.45548439 133.62284436 -59.45548439 133.62284436 -66.00689697 144.45509338 C-66.66689697 144.45509338 -67.32689697 144.45509338 -68.00689697 144.45509338 C-68.25439697 145.15634338 -68.50189697 145.85759338 -68.75689697 146.58009338 C-70.17869935 149.85023886 -71.87935985 152.59621538 -74.00689697 155.45509338 C-74.66689697 155.45509338 -75.32689697 155.45509338 -76.00689697 155.45509338 C-76.24279541 156.1524762 -76.47869385 156.84985901 -76.72174072 157.56837463 C-78.25492753 161.01221978 -80.26377813 163.66342297 -82.56939697 166.64259338 C-85.55118371 170.38280582 -85.55118371 170.38280582 -88.00689697 174.45509338 C-88.66689697 174.45509338 -89.32689697 174.45509338 -90.00689697 174.45509338 C-90.25439697 175.15634338 -90.50189697 175.85759338 -90.75689697 176.58009338 C-92.17869935 179.85023886 -93.87935985 182.59621538 -96.00689697 185.45509338 C-96.66689697 185.45509338 -97.32689697 185.45509338 -98.00689697 185.45509338 C-98.29564697 186.19759338 -98.58439697 186.94009338 -98.88189697 187.70509338 C-100.00689697 190.45509338 -100.00689697 190.45509338 -101.05827332 192.24960327 C-102.28360083 195.09841237 -102.28006779 197.39356096 -102.30987549 200.49293518 C-102.32651749 201.71067123 -102.34315948 202.92840729 -102.36030579 204.18304443 C-102.36871994 205.49356277 -102.37713409 206.80408112 -102.38580322 208.15431213 C-102.40198217 209.51384674 -102.41916258 210.87336977 -102.43730164 212.23287964 C-102.48291857 215.80478071 -102.5177666 219.37669724 -102.54949951 222.94874573 C-102.60145207 228.67691347 -102.66637966 234.40491193 -102.73771477 240.13286781 C-102.76060006 242.13652485 -102.77654848 244.14025718 -102.79243469 246.14398193 C-102.80592453 247.35226151 -102.81941437 248.56054108 -102.83331299 249.80543518 C-102.8475808 251.40949471 -102.8475808 251.40949471 -102.86213684 253.04595947 C-103.00689697 255.45509338 -103.00689697 255.45509338 -104.00689697 256.45509338 C-106.94056665 256.55622151 -109.8501987 256.59478379 -112.78424072 256.58790588 C-113.66592422 256.58886261 -114.54760773 256.58981934 -115.45600891 256.59080505 C-117.32477896 256.59148697 -119.19355137 256.58963189 -121.06231689 256.58546448 C-123.92866325 256.58012271 -126.79485244 256.5854058 -129.66119385 256.59181213 C-131.47304315 256.59115123 -133.28489236 256.58986981 -135.09674072 256.58790588 C-135.95823227 256.58993011 -136.81972382 256.59195435 -137.70732117 256.59403992 C-143.77698819 256.57004777 -143.77698819 256.57004777 -146.00689697 255.45509338 C-146.33541996 248.22242616 -146.5820321 240.99143409 -146.73226738 233.75274181 C-146.80451225 230.38765376 -146.90974766 227.03164237 -147.06304932 223.66871643 C-147.81475957 206.73628508 -147.16742739 195.11763981 -135.51470947 182.18482971 C-134.91564789 181.55470978 -134.3165863 180.92458984 -133.69937134 180.27537537 C-131.26734693 177.65969604 -129.22492062 174.84731103 -127.13189697 171.95509338 C-126.09162354 170.57064026 -126.09162354 170.57064026 -125.03033447 169.15821838 C-118.26715634 160.17768603 -118.26715634 160.17768603 -112.13189697 150.76759338 C-111.43064697 149.67446838 -110.72939697 148.58134338 -110.00689697 147.45509338 C-109.34689697 147.45509338 -108.68689697 147.45509338 -108.00689697 147.45509338 C-107.73748291 146.88274963 -107.46806885 146.31040588 -107.19049072 145.72071838 C-105.97229955 143.38886729 -104.59938833 141.3448368 -103.06939697 139.20509338 C-99.26467631 133.83843477 -95.54015329 128.41977009 -91.82745361 122.98927307 C-90.56010876 121.14018503 -89.28497287 119.29677273 -88.00689697 117.45509338 C-87.44486572 116.63782776 -86.88283447 115.82056213 -86.30377197 114.97853088 C-85.87580322 114.47579651 -85.44783447 113.97306213 -85.00689697 113.45509338 C-84.34689697 113.45509338 -83.68689697 113.45509338 -83.00689697 113.45509338 C-82.88862549 112.86228577 -82.770354 112.26947815 -82.64849854 111.65870667 C-81.58829857 108.01739583 -79.05576091 105.28371305 -76.75689697 102.33009338 C-75.66556767 100.90284265 -74.57578193 99.47441062 -73.48736572 98.04493713 C-72.9180835 97.29840881 -72.34880127 96.55188049 -71.76226807 95.7827301 C-68.80554641 91.86209251 -65.93671788 87.87884859 -63.06939697 83.89259338 C-62.53862549 83.15573303 -62.007854 82.41887268 -61.46099854 81.65968323 C-60.95149658 80.95150452 -60.44199463 80.24332581 -59.91705322 79.51368713 C-59.42865967 78.83676819 -58.94026611 78.15984924 -58.43707275 77.4624176 C-57.47319226 76.10956246 -56.523854 74.74624236 -55.58843994 73.37355042 C-54.44079941 71.7013941 -53.22953223 70.07322457 -52.00689697 68.45509338 C-51.34689697 68.45509338 -50.68689697 68.45509338 -50.00689697 68.45509338 C-49.78002197 67.7809137 -49.55314697 67.10673401 -49.31939697 66.41212463 C-47.64320767 62.63571004 -45.41585156 59.48415753 -43.00689697 56.14259338 C-42.5557251 55.4974176 -42.10455322 54.85224182 -41.63970947 54.18751526 C-40.4826876 52.57008084 -39.2502312 51.00716094 -38.00689697 49.45509338 C-37.34689697 49.45509338 -36.68689697 49.45509338 -36.00689697 49.45509338 C-35.78002197 48.7809137 -35.55314697 48.10673401 -35.31939697 47.41212463 C-33.64320767 43.63571004 -31.41585156 40.48415753 -29.00689697 37.14259338 C-28.5557251 36.4974176 -28.10455322 35.85224182 -27.63970947 35.18751526 C-26.4826876 33.57008084 -25.2502312 32.00716094 -24.00689697 30.45509338 C-23.34689697 30.45509338 -22.68689697 30.45509338 -22.00689697 30.45509338 C-21.86743652 29.61385925 -21.86743652 29.61385925 -21.72515869 28.75563049 C-20.82117958 25.86025485 -19.38123413 24.03610746 -17.51470947 21.64649963 C-16.80959229 20.73448792 -16.1044751 19.8224762 -15.37799072 18.88282776 C-14.63677979 17.93730042 -13.89556885 16.99177307 -13.13189697 16.01759338 C-11.67384586 14.14570176 -10.21803756 12.27206056 -8.76470947 10.39649963 C-8.11647217 9.56835754 -7.46823486 8.74021545 -6.800354 7.88697815 C-4.89751282 5.52390679 -4.89751282 5.52390679 -3.91143799 2.68556213 C-2.00689697 0.45509338 -2.00689697 0.45509338 0 0 Z " fill="#010100" transform="translate(312.00689697265625,121.54490661621094)"/>
<path d="M0 0 C6.90491147 -0.12672146 13.80952344 -0.21431806 20.71533203 -0.2746582 C23.06472988 -0.29981062 25.41404941 -0.33393663 27.76318359 -0.37719727 C31.13919383 -0.43781426 34.51417011 -0.46620295 37.890625 -0.48828125 C38.94179504 -0.51408768 39.99296509 -0.5398941 41.07598877 -0.56648254 C48.36757617 -0.5692904 48.36757617 -0.5692904 51.55078125 2.29614258 C52.02902344 3.18841553 52.50726563 4.08068848 53 5 C53.61633301 5.95132813 53.61633301 5.95132813 54.24511719 6.921875 C54.59219727 7.52515625 54.93927734 8.1284375 55.296875 8.75 C55.89290527 9.77649658 55.89290527 9.77649658 56.50097656 10.82373047 C56.9131543 11.54189941 57.32533203 12.26006836 57.75 13 C60.847364 18.33842493 63.98446984 23.63759201 67.25 28.875 C70.18377154 33.60195856 72.87683879 38.40832905 75.5 43.3125 C77.56777033 47.01725518 79.86062704 50.5578838 82.19140625 54.1015625 C83.65054285 56.43996284 85.00441827 58.78243703 86.33203125 61.1953125 C89.13653592 66.29123158 92.11834748 71.2714033 95.125 76.25 C95.64964844 77.12140625 96.17429687 77.9928125 96.71484375 78.890625 C97.22402344 79.73625 97.73320312 80.581875 98.2578125 81.453125 C98.73637695 82.25041016 99.21494141 83.04769531 99.70800781 83.86914062 C100.73786802 85.56767046 101.79757743 87.24809187 102.8671875 88.921875 C104 91 104 91 104 94 C104.66 94 105.32 94 106 94 C106.25885986 93.28537598 106.51771973 92.57075195 106.78442383 91.83447266 C108.07155643 88.83314518 109.61986432 86.35186739 111.44921875 83.6484375 C112.13306641 82.63136719 112.81691406 81.61429687 113.52148438 80.56640625 C114.59366211 78.98666016 114.59366211 78.98666016 115.6875 77.375 C120.90355783 69.65001352 126.03160302 61.88679856 131 54 C132.12434009 52.2287476 133.24926428 50.45786572 134.375 48.6875 C134.94863281 47.78515625 135.52226562 46.8828125 136.11328125 45.953125 C137.48004123 43.8138485 138.85195068 41.67854326 140.23046875 39.546875 C140.61404541 38.95318115 140.99762207 38.3594873 141.39282227 37.74780273 C142.16740741 36.54898227 142.94262682 35.35057135 143.71850586 34.15258789 C146.55816969 29.74655057 149.23202327 25.26120092 151.80859375 20.6953125 C152.39833984 19.85613281 152.39833984 19.85613281 153 19 C153.66 19 154.32 19 155 19 C155.09539062 18.44183594 155.19078125 17.88367188 155.2890625 17.30859375 C156.17439268 14.43370288 157.60284184 12.48893596 159.375 10.0625 C162.05675718 6.43682772 162.05675718 6.43682772 163.92358398 2.37207031 C166 0 166 0 168.16326904 -0.43702698 C171.12479227 -0.58159658 174.04746278 -0.56069873 177.01171875 -0.48828125 C178.09508011 -0.48120651 179.17844147 -0.47413177 180.29463196 -0.46684265 C183.75961962 -0.43882254 187.22299963 -0.37606661 190.6875 -0.3125 C193.0344819 -0.28742714 195.38148908 -0.26461221 197.72851562 -0.24414062 C203.4862269 -0.18897099 209.24299862 -0.10526821 215 0 C214.67 1.98 214.34 3.96 214 6 C213.34 6 212.68 6 212 6 C211.71125 6.5775 211.4225 7.155 211.125 7.75 C209.5625 10.875 209.5625 10.875 208 14 C207.34 14 206.68 14 206 14 C205.67708984 14.99966797 205.67708984 14.99966797 205.34765625 16.01953125 C203.55153877 19.99181426 201.06106096 23.22413079 198.4375 26.6875 C197.43495214 28.02380586 196.43359272 29.36100441 195.43359375 30.69921875 C194.76928345 31.57839966 194.76928345 31.57839966 194.09155273 32.4753418 C192.92281806 34.02349814 192.92281806 34.02349814 192 36 C191.34 36 190.68 36 190 36 C189.8875293 36.58555664 189.77505859 37.17111328 189.65917969 37.77441406 C188.9388607 40.20642439 188.00471852 41.61538942 186.453125 43.609375 C185.9375 44.28226563 185.421875 44.95515625 184.890625 45.6484375 C184.34921875 46.34195313 183.8078125 47.03546875 183.25 47.75 C179.53910006 52.53415041 176.09302733 57.2859634 173.06933594 62.54003906 C172.54001465 63.26271973 172.54001465 63.26271973 172 64 C171.34 64 170.68 64 170 64 C169.62875 65.051875 169.62875 65.051875 169.25 66.125 C167.82819762 69.39514548 166.12753712 72.141122 164 75 C163.34 75 162.68 75 162 75 C161.88527344 75.58265625 161.77054688 76.1653125 161.65234375 76.765625 C160.95175938 79.16523135 160.01807405 80.72860933 158.5625 82.75 C158.13066406 83.36359375 157.69882813 83.9771875 157.25390625 84.609375 C156.63322266 85.29773438 156.63322266 85.29773438 156 86 C155.34 86 154.68 86 154 86 C153.74347656 86.721875 153.48695313 87.44375 153.22265625 88.1875 C151.92917939 91.16291003 150.38965565 93.41290079 148.4375 96 C145.40966551 100.069846 142.48199883 104.18338182 139.625 108.375 C136.07332103 113.54275436 132.33699967 118.51498634 128.46728516 123.44750977 C126.11321042 126.47144696 123.96791326 129.52492727 122 132.8125 C121.34 133.864375 120.68 134.91625 120 136 C119.34 136 118.68 136 118 136 C117.72929687 136.56976563 117.45859375 137.13953125 117.1796875 137.7265625 C115.53308015 140.89982566 113.5269923 143.78181624 111.5234375 146.73828125 C110.59333137 148.11913113 109.67788394 149.51019027 108.7890625 150.91796875 C107.90881623 152.31114048 106.96109947 153.66132574 106 155 C105.34 155 104.68 155 104 155 C103.87625 155.61875 103.7525 156.2375 103.625 156.875 C103 159 103 159 101 161 C99.68 161 98.36 161 97 161 C95.16040039 158.65283203 95.16040039 158.65283203 93.28515625 155.3828125 C92.58230881 154.18124794 91.87934258 152.97975287 91.17626953 151.77832031 C90.81752747 151.15316528 90.4587854 150.52801025 90.08917236 149.88391113 C88.35803504 146.88961108 86.54836367 143.94400249 84.74609375 140.9921875 C84.02874318 139.80892925 83.31194891 138.62533357 82.59570312 137.44140625 C82.24000244 136.85375488 81.88430176 136.26610352 81.51782227 135.66064453 C80.79554179 134.46680061 80.07353812 133.27278918 79.35180664 132.07861328 C75.18688342 125.1892807 70.96534213 118.34454668 66.6237793 111.56445312 C64.06711183 107.52667909 61.62763188 103.42136723 59.1875 99.3125 C54.99506034 92.28629394 50.73118777 85.3126378 46.37451172 78.38720703 C43.66667265 74.08003328 41.03109821 69.73570886 38.4296875 65.36328125 C36.8036094 62.67536526 35.12619515 60.02400462 33.4375 57.375 C32.85742188 56.46492188 32.27734375 55.55484375 31.6796875 54.6171875 C30.60991785 52.95033712 29.53258099 51.28830171 28.4453125 49.6328125 C27.98898438 48.92898437 27.53265625 48.22515625 27.0625 47.5 C26.66160156 46.8915625 26.26070312 46.283125 25.84765625 45.65625 C25 44 25 44 25 41 C24.34 41 23.68 41 23 41 C22.731875 40.50113281 22.46375 40.00226563 22.1875 39.48828125 C17.56454943 31.0179409 12.46246103 22.83975643 7.26171875 14.71484375 C6.8030542 13.99369385 6.34438965 13.27254395 5.87182617 12.52954102 C4.97024682 11.1135528 4.06301102 9.70114735 3.1496582 8.29272461 C0 3.33601727 0 3.33601727 0 0 Z " fill="#010101" transform="translate(71,122)"/>
<path d="M0 0 C0.68847015 0.02123932 1.37694031 0.04247864 2.08627319 0.06436157 C3.5473447 0.11066713 5.00833496 0.15959893 6.46923828 0.2109375 C8.68115428 0.28802453 10.89320452 0.35563066 13.10546875 0.421875 C31.75792646 1.02872181 31.75792646 1.02872181 36.0859375 3.9140625 C36.0859375 4.5740625 36.0859375 5.2340625 36.0859375 5.9140625 C37.7359375 5.9140625 39.3859375 5.9140625 41.0859375 5.9140625 C41.4159375 6.9040625 41.7459375 7.8940625 42.0859375 8.9140625 C43.7359375 9.2440625 45.3859375 9.5740625 47.0859375 9.9140625 C47.0859375 10.5740625 47.0859375 11.2340625 47.0859375 11.9140625 C47.7253125 12.1821875 48.3646875 12.4503125 49.0234375 12.7265625 C51.0859375 13.9140625 51.0859375 13.9140625 52.0859375 16.9140625 C53.0759375 17.2440625 54.0659375 17.5740625 55.0859375 17.9140625 C57.11125867 21.88969294 58.0859375 24.4191327 58.0859375 28.9140625 C58.7459375 28.9140625 59.4059375 28.9140625 60.0859375 28.9140625 C61.38241503 33.86331402 61.23311984 38.77550257 61.2109375 43.8515625 C61.21480469 44.73263672 61.21867188 45.61371094 61.22265625 46.52148438 C61.21579782 51.09948321 61.02084551 55.41018025 60.0859375 59.9140625 C59.4259375 59.9140625 58.7659375 59.9140625 58.0859375 59.9140625 C57.9621875 60.9865625 57.8384375 62.0590625 57.7109375 63.1640625 C57.18949814 66.29269865 56.68505496 68.24886674 55.0859375 70.9140625 C54.4259375 70.9140625 53.7659375 70.9140625 53.0859375 70.9140625 C52.68375 72.120625 52.68375 72.120625 52.2734375 73.3515625 C51.8815625 74.1971875 51.4896875 75.0428125 51.0859375 75.9140625 C50.0959375 76.2440625 49.1059375 76.5740625 48.0859375 76.9140625 C47.745625 78.0278125 47.745625 78.0278125 47.3984375 79.1640625 C45.39925956 83.35281628 42.299649 85.13293774 38.0859375 86.9140625 C34.74788 87.56365608 31.48290182 87.83749158 28.0859375 87.9140625 C28.0859375 88.5740625 28.0859375 89.2340625 28.0859375 89.9140625 C23.44110714 90.65601364 18.98214315 91.04165599 14.28027344 91.0559082 C12.9691156 91.06294266 11.65795776 91.06997711 10.30706787 91.07722473 C9.61655083 91.07904062 8.92603378 91.08085651 8.21459198 91.08272743 C6.03719247 91.08995367 3.86001047 91.10566011 1.68267822 91.12406921 C-4.50286099 91.17628742 -10.68826788 91.22458682 -16.87402344 91.23999023 C-20.66894263 91.25005581 -24.46329324 91.27932473 -28.25798798 91.32131004 C-29.70124774 91.3336271 -31.14458765 91.33873999 -32.58789825 91.33651161 C-34.60065199 91.33416594 -36.61338375 91.35847426 -38.62597656 91.3840332 C-40.34303802 91.39283257 -40.34303802 91.39283257 -42.0947876 91.40180969 C-45.04250487 91.6339674 -45.04250487 91.6339674 -46.68206787 93.94718933 C-47.29190521 94.92079155 -47.29190521 94.92079155 -47.9140625 95.9140625 C-48.5740625 95.9140625 -49.2340625 95.9140625 -49.9140625 95.9140625 C-49.9140625 96.9040625 -49.9140625 97.8940625 -49.9140625 98.9140625 C-50.5740625 98.9140625 -51.2340625 98.9140625 -51.9140625 98.9140625 C-52.17445313 99.64625 -52.43484375 100.3784375 -52.703125 101.1328125 C-53.9404857 103.97475062 -55.34917638 106.00826486 -57.2890625 108.4140625 C-57.9078125 109.19007813 -58.5265625 109.96609375 -59.1640625 110.765625 C-60.53242416 112.44553329 -61.90914373 114.11863451 -63.2890625 115.7890625 C-65.09322578 117.90975273 -65.09322578 117.90975273 -65.9140625 120.9140625 C-66.5740625 120.9140625 -67.2340625 120.9140625 -67.9140625 120.9140625 C-68.4090625 122.3990625 -68.4090625 122.3990625 -68.9140625 123.9140625 C-69.5740625 123.9140625 -70.2340625 123.9140625 -70.9140625 123.9140625 C-71.006875 124.9659375 -71.006875 124.9659375 -71.1015625 126.0390625 C-72.36514341 130.51019497 -75.36830363 133.4235093 -78.6640625 136.6015625 C-80.18201555 138.00913529 -80.18201555 138.00913529 -80.9140625 140.9140625 C-81.5740625 140.9140625 -82.2340625 140.9140625 -82.9140625 140.9140625 C-82.9965625 141.4709375 -83.0790625 142.0278125 -83.1640625 142.6015625 C-83.9140625 144.9140625 -83.9140625 144.9140625 -85.93255615 147.14445496 C-88.37625345 150.56007988 -88.40001391 152.37591601 -88.36816406 156.5402832 C-88.36874817 157.18474899 -88.36933228 157.82921478 -88.36993408 158.49320984 C-88.36716204 160.60931522 -88.33611611 162.72398655 -88.3046875 164.83984375 C-88.29722187 166.31242605 -88.29153046 167.78501833 -88.28753662 169.25761414 C-88.27230532 173.12285056 -88.23304613 176.98748035 -88.1887207 180.85247803 C-88.14049639 185.49550084 -88.12222195 190.13872714 -88.09890747 194.78192902 C-88.06019245 201.82639469 -87.98352378 208.86953081 -87.9140625 215.9140625 C-75.7040625 215.9140625 -63.4940625 215.9140625 -50.9140625 215.9140625 C-50.91929932 213.2232251 -50.92453613 210.5323877 -50.92993164 207.76000977 C-50.9464666 198.89114302 -50.95753334 190.02227561 -50.96587467 181.15339756 C-50.97110375 175.77372488 -50.97820185 170.39406792 -50.98950195 165.0144043 C-51.00032995 159.82731407 -51.00633915 154.64023901 -51.00893974 149.45313835 C-51.01079415 147.4694997 -51.01441506 145.48586192 -51.01979256 143.50222969 C-51.02700182 140.73397114 -51.02805349 137.96577612 -51.02758789 135.19750977 C-51.03118317 134.36888931 -51.03477844 133.54026886 -51.03848267 132.6865387 C-51.02811466 127.02811466 -51.02811466 127.02811466 -49.9140625 125.9140625 C-47.20652524 125.78891839 -44.52324146 125.72799122 -41.81420898 125.70874023 C-40.96550232 125.69884064 -40.11679565 125.68894104 -39.24237061 125.67874146 C-36.42332801 125.64703003 -33.60426852 125.62233111 -30.78515625 125.59765625 C-28.83601939 125.57709504 -26.88688706 125.5560988 -24.9377594 125.53468323 C-19.79704457 125.47937652 -14.65628893 125.4300053 -9.51550293 125.38183594 C-4.27397003 125.33168353 0.9675033 125.27596487 6.20898438 125.22070312 C16.50125125 125.11301644 26.79356975 125.01159497 37.0859375 124.9140625 C37.0859375 124.2540625 37.0859375 123.5940625 37.0859375 122.9140625 C38.31957031 122.56794922 38.31957031 122.56794922 39.578125 122.21484375 C46.14163855 120.29732767 52.1469004 118.13461948 58.16015625 114.8671875 C60.0859375 113.9140625 60.0859375 113.9140625 62.0859375 113.9140625 C62.0859375 113.2540625 62.0859375 112.5940625 62.0859375 111.9140625 C63.0759375 111.9140625 64.0659375 111.9140625 65.0859375 111.9140625 C65.0859375 111.2540625 65.0859375 110.5940625 65.0859375 109.9140625 C66.4059375 109.5840625 67.7259375 109.2540625 69.0859375 108.9140625 C69.0859375 108.2540625 69.0859375 107.5940625 69.0859375 106.9140625 C69.7046875 106.8315625 70.3234375 106.7490625 70.9609375 106.6640625 C73.76099169 105.67580808 73.82707682 104.51046265 75.0859375 101.9140625 C77.2109375 100.6640625 77.2109375 100.6640625 79.0859375 99.9140625 C79.0859375 99.2540625 79.0859375 98.5940625 79.0859375 97.9140625 C79.7459375 97.5840625 80.4059375 97.2540625 81.0859375 96.9140625 C82.21944284 94.89736423 82.21944284 94.89736423 83.0859375 92.9140625 C84.0759375 92.9140625 85.0659375 92.9140625 86.0859375 92.9140625 C84.8439768 96.35333829 83.52853466 99.16614069 81.0859375 101.9140625 C80.4259375 101.9140625 79.7659375 101.9140625 79.0859375 101.9140625 C78.82167969 102.5121875 78.55742187 103.1103125 78.28515625 103.7265625 C77.03671465 106.00385012 75.87301653 107.2512591 73.8984375 108.9140625 C73.34800781 109.3884375 72.79757812 109.8628125 72.23046875 110.3515625 C52.8391147 124.48005361 31.54639972 129.27302182 7.9453125 129.109375 C6.50797685 129.10642589 5.07063902 129.10439081 3.63330078 129.10327148 C-1.63252023 129.0928847 -6.89829494 129.06496272 -12.1640625 129.0390625 C-23.9615625 128.9978125 -35.7590625 128.9565625 -47.9140625 128.9140625 C-47.9140625 158.2840625 -47.9140625 187.6540625 -47.9140625 217.9140625 C-51.28923919 219.60165085 -55.11261849 219.05559608 -58.82421875 219.046875 C-59.70685898 219.04783173 -60.58949921 219.04878845 -61.49888611 219.04977417 C-63.36587597 219.05045519 -65.23286819 219.04860635 -67.09985352 219.04443359 C-69.96831538 219.0390779 -72.83662111 219.04438449 -75.70507812 219.05078125 C-77.51562535 219.05012058 -79.32617247 219.04883965 -81.13671875 219.046875 C-82.43199242 219.04991135 -82.43199242 219.04991135 -83.75343323 219.05300903 C-89.79910811 219.02901689 -89.79910811 219.02901689 -90.9140625 217.9140625 C-91.08203803 215.8385757 -91.17943875 213.757355 -91.24975586 211.67626953 C-91.27238998 211.02389313 -91.29502411 210.37151672 -91.31834412 209.69937134 C-91.51728771 203.6130521 -91.63151364 197.52457105 -91.72156429 191.43576241 C-91.78289694 187.35473155 -91.87030965 183.27835084 -92.02514648 179.19970703 C-93.21919658 146.95210893 -93.21919658 146.95210893 -82.2641449 134.38467407 C-81.06222215 133.11073217 -79.84018728 131.8553494 -78.59529114 130.62336731 C-76.15262036 128.13990443 -74.198014 125.42654889 -72.1640625 122.6015625 C-71.47699219 121.69277344 -70.78992188 120.78398437 -70.08203125 119.84765625 C-68.42692106 117.60803868 -66.81031948 115.35579966 -65.21484375 113.07421875 C-64.75883789 112.42428955 -64.30283203 111.77436035 -63.83300781 111.10473633 C-62.94483123 109.83401717 -62.06242673 108.55923931 -61.18652344 107.2800293 C-60.14451578 105.78936773 -59.03491607 104.34638199 -57.9140625 102.9140625 C-57.2540625 102.9140625 -56.5940625 102.9140625 -55.9140625 102.9140625 C-55.65753906 102.18703125 -55.40101563 101.46 -55.13671875 100.7109375 C-53.85603425 97.78132055 -52.34978021 95.65036262 -50.3515625 93.1640625 C-49.73152344 92.38546875 -49.11148438 91.606875 -48.47265625 90.8046875 C-46.9140625 88.9140625 -46.9140625 88.9140625 -45.9140625 87.9140625 C-43.8356669 87.81117104 -41.75378345 87.77833032 -39.67285156 87.7722168 C-38.69446068 87.76700516 -38.69446068 87.76700516 -37.69630432 87.76168823 C-36.27326568 87.75431552 -34.85021541 87.74897825 -33.42716217 87.74539757 C-31.1634852 87.73822995 -28.90002476 87.72255464 -26.63641357 87.70405579 C-20.19758351 87.65164854 -13.75886221 87.60376152 -7.31982422 87.58813477 C-3.38266422 87.57795329 0.55396482 87.5483608 4.49091339 87.50681496 C5.98173216 87.49462633 7.47262645 87.48936112 8.96349335 87.49161339 C21.15071784 87.50547364 32.43111345 86.09479394 42.59765625 78.8671875 C44.0859375 77.9140625 44.0859375 77.9140625 46.0859375 77.9140625 C46.42625 77.140625 46.42625 77.140625 46.7734375 76.3515625 C48.0859375 73.9140625 48.0859375 73.9140625 50.4609375 70.9140625 C58.18930932 59.95215825 58.33454951 46.82889062 57.0859375 33.9140625 C55.08584738 23.80124728 49.46505254 16.03765856 41.1015625 10.1640625 C32.71234676 4.96144809 23.9071007 4.5074867 14.28173828 4.06201172 C11.99891085 3.9081988 9.75640068 3.6225927 7.48828125 3.32421875 C-0.5816059 2.30733924 -0.5816059 2.30733924 -7.74804688 5.390625 C-10.59385874 8.55043469 -12.80266601 11.97064498 -14.9453125 15.6328125 C-15.595 16.715625 -16.2446875 17.7984375 -16.9140625 18.9140625 C-17.5740625 18.9140625 -18.2340625 18.9140625 -18.9140625 18.9140625 C-19.15511719 19.62175781 -19.39617187 20.32945312 -19.64453125 21.05859375 C-21.11333746 24.36227786 -22.96954288 26.7756705 -25.2265625 29.6015625 C-29.61472739 35.17125173 -33.82855308 40.85087391 -37.9765625 46.6015625 C-38.54866455 47.39199951 -39.1207666 48.18243652 -39.71020508 48.99682617 C-42.53015275 52.82127503 -42.53015275 52.82127503 -44.9140625 56.9140625 C-45.5740625 56.9140625 -46.2340625 56.9140625 -46.9140625 56.9140625 C-47.09714966 57.80786621 -47.09714966 57.80786621 -47.28393555 58.71972656 C-48.28239311 62.19672639 -50.57035843 64.81846488 -52.7265625 67.6640625 C-53.21431152 68.31874512 -53.70206055 68.97342773 -54.20458984 69.64794922 C-55.76734177 71.74206665 -57.33934744 73.82892922 -58.9140625 75.9140625 C-60.95668356 78.62167806 -62.99869721 81.32974653 -65.0390625 84.0390625 C-65.53680176 84.6995459 -66.03454102 85.3600293 -66.54736328 86.04052734 C-74.36264991 96.08181348 -74.36264991 96.08181348 -80.9140625 106.9140625 C-81.5740625 106.9140625 -82.2340625 106.9140625 -82.9140625 106.9140625 C-83.2853125 107.9659375 -83.2853125 107.9659375 -83.6640625 109.0390625 C-85.08586488 112.30920798 -86.78652538 115.0551845 -88.9140625 117.9140625 C-89.5740625 117.9140625 -90.2340625 117.9140625 -90.9140625 117.9140625 C-91.26791016 118.96013672 -91.26791016 118.96013672 -91.62890625 120.02734375 C-93.16209306 123.4711889 -95.17094366 126.12239209 -97.4765625 129.1015625 C-100.45834924 132.84177494 -100.45834924 132.84177494 -102.9140625 136.9140625 C-103.5740625 136.9140625 -104.2340625 136.9140625 -104.9140625 136.9140625 C-105.1615625 137.6153125 -105.4090625 138.3165625 -105.6640625 139.0390625 C-107.08586488 142.30920798 -108.78652538 145.0551845 -110.9140625 147.9140625 C-111.5740625 147.9140625 -112.2340625 147.9140625 -112.9140625 147.9140625 C-113.2028125 148.6565625 -113.4915625 149.3990625 -113.7890625 150.1640625 C-114.9140625 152.9140625 -114.9140625 152.9140625 -115.96543884 154.70857239 C-117.19076635 157.55738149 -117.18723332 159.85253007 -117.21704102 162.9519043 C-117.23368301 164.16964035 -117.25032501 165.3873764 -117.26747131 166.64201355 C-117.27588547 167.95253189 -117.28429962 169.26305023 -117.29296875 170.61328125 C-117.30914769 171.97281586 -117.32632811 173.33233889 -117.34446716 174.69184875 C-117.39008409 178.26374982 -117.42493212 181.83566636 -117.45666504 185.40771484 C-117.5086176 191.13588258 -117.57354519 196.86388105 -117.64488029 202.59183693 C-117.66776559 204.59549396 -117.683714 206.5992263 -117.69960022 208.60295105 C-117.71309006 209.81123062 -117.7265799 211.01951019 -117.74047852 212.2644043 C-117.75474632 213.86846382 -117.75474632 213.86846382 -117.76930237 215.50492859 C-117.9140625 217.9140625 -117.9140625 217.9140625 -118.9140625 218.9140625 C-121.7256963 219.00268242 -124.51264505 219.02928605 -127.32421875 219.01171875 C-128.16625351 219.0103038 -129.00828827 219.00888885 -129.87583923 219.00743103 C-132.57611585 219.00181513 -135.27631078 218.98925998 -137.9765625 218.9765625 C-139.80273318 218.97154955 -141.62890516 218.96698629 -143.45507812 218.96289062 C-147.94143792 218.95184054 -152.42773634 218.93456529 -156.9140625 218.9140625 C-156.9140625 217.9240625 -156.9140625 216.9340625 -156.9140625 215.9140625 C-144.7040625 215.9140625 -132.4940625 215.9140625 -119.9140625 215.9140625 C-119.94886719 211.41265625 -119.98367187 206.91125 -120.01953125 202.2734375 C-120.03882615 198.68266551 -120.05509382 195.09190818 -120.06931305 191.50111389 C-120.08515063 187.7114114 -120.10631234 183.9219104 -120.14038086 180.13232422 C-120.17299291 176.48187515 -120.19091932 172.83162141 -120.19869423 169.1810379 C-120.20423448 167.78876928 -120.21505334 166.39651127 -120.23125267 165.00432587 C-120.25304873 163.05344582 -120.25428809 161.10236896 -120.25463867 159.15136719 C-120.26130051 158.0410614 -120.26796234 156.93075562 -120.27482605 155.7868042 C-119.87273141 152.58494514 -119.17600711 151.18511076 -116.9140625 148.9140625 C-116.2540625 148.9140625 -115.5940625 148.9140625 -114.9140625 148.9140625 C-114.8109375 148.1509375 -114.7078125 147.3878125 -114.6015625 146.6015625 C-113.86695056 143.72989766 -113.242456 142.68364156 -110.9140625 140.9140625 C-110.2540625 140.9140625 -109.5940625 140.9140625 -108.9140625 140.9140625 C-108.6459375 139.9446875 -108.3778125 138.9753125 -108.1015625 137.9765625 C-107.7096875 136.9659375 -107.3178125 135.9553125 -106.9140625 134.9140625 C-105.9240625 134.5840625 -104.9340625 134.2540625 -103.9140625 133.9140625 C-103.9140625 132.9240625 -103.9140625 131.9340625 -103.9140625 130.9140625 C-102.9240625 130.9140625 -101.9340625 130.9140625 -100.9140625 130.9140625 C-100.4190625 127.9440625 -100.4190625 127.9440625 -99.9140625 124.9140625 C-99.2540625 124.9140625 -98.5940625 124.9140625 -97.9140625 124.9140625 C-97.8521875 124.3778125 -97.7903125 123.8415625 -97.7265625 123.2890625 C-96.51370986 119.74380093 -94.46795324 117.6548233 -91.9140625 114.9140625 C-91.2540625 114.9140625 -90.5940625 114.9140625 -89.9140625 114.9140625 C-89.5840625 113.2640625 -89.2540625 111.6140625 -88.9140625 109.9140625 C-88.2540625 109.9140625 -87.5940625 109.9140625 -86.9140625 109.9140625 C-86.8315625 109.3571875 -86.7490625 108.8003125 -86.6640625 108.2265625 C-85.6824963 105.20006671 -83.92106017 103.37980249 -81.9140625 100.9140625 C-81.1857188 99.67561526 -80.47759286 98.42507878 -79.7890625 97.1640625 C-77.9140625 93.9140625 -77.9140625 93.9140625 -75.9140625 92.9140625 C-75.4190625 91.4290625 -75.4190625 91.4290625 -74.9140625 89.9140625 C-72.8515625 89.2265625 -72.8515625 89.2265625 -70.9140625 88.9140625 C-70.8109375 88.1921875 -70.7078125 87.4703125 -70.6015625 86.7265625 C-69.84612303 83.63612829 -68.75874935 81.49662409 -66.9140625 78.9140625 C-66.2540625 78.9140625 -65.5940625 78.9140625 -64.9140625 78.9140625 C-64.4190625 77.4290625 -64.4190625 77.4290625 -63.9140625 75.9140625 C-63.2540625 75.9140625 -62.5940625 75.9140625 -61.9140625 75.9140625 C-60.39106727 72.97685742 -59.11305948 69.9971976 -57.9140625 66.9140625 C-56.5940625 66.9140625 -55.2740625 66.9140625 -53.9140625 66.9140625 C-53.8109375 66.0065625 -53.7078125 65.0990625 -53.6015625 64.1640625 C-52.88625185 60.78259396 -52.08729613 59.50522568 -49.9140625 56.9140625 C-49.140625 55.5528125 -49.140625 55.5528125 -48.3515625 54.1640625 C-47.8771875 53.4215625 -47.4028125 52.6790625 -46.9140625 51.9140625 C-46.2540625 51.9140625 -45.5940625 51.9140625 -44.9140625 51.9140625 C-43.9240625 48.9440625 -43.9240625 48.9440625 -42.9140625 45.9140625 C-41.9240625 45.9140625 -40.9340625 45.9140625 -39.9140625 45.9140625 C-39.5840625 44.5940625 -39.2540625 43.2740625 -38.9140625 41.9140625 C-38.2540625 41.9140625 -37.5940625 41.9140625 -36.9140625 41.9140625 C-36.5840625 40.2640625 -36.2540625 38.6140625 -35.9140625 36.9140625 C-35.2540625 36.9140625 -34.5940625 36.9140625 -33.9140625 36.9140625 C-33.9140625 35.9240625 -33.9140625 34.9340625 -33.9140625 33.9140625 C-33.2540625 33.9140625 -32.5940625 33.9140625 -31.9140625 33.9140625 C-31.6871875 33.3984375 -31.4603125 32.8828125 -31.2265625 32.3515625 C-29.43188632 29.01859245 -27.41441235 25.76702579 -24.9140625 22.9140625 C-24.2540625 22.9140625 -23.5940625 22.9140625 -22.9140625 22.9140625 C-21.50028909 20.27501879 -20.54166115 17.84285621 -19.9140625 14.9140625 C-19.2540625 14.9140625 -18.5940625 14.9140625 -17.9140625 14.9140625 C-17.5840625 13.9240625 -17.2540625 12.9340625 -16.9140625 11.9140625 C-16.2540625 11.9140625 -15.5940625 11.9140625 -14.9140625 11.9140625 C-14.5428125 10.8621875 -14.5428125 10.8621875 -14.1640625 9.7890625 C-10.69467697 1.80947579 -8.53279974 -0.27192321 0 0 Z " fill="#242324" transform="translate(326.9140625,159.0859375)"/>
<path d="M0 0 C6.90491147 -0.12672146 13.80952344 -0.21431806 20.71533203 -0.2746582 C23.06472988 -0.29981062 25.41404941 -0.33393663 27.76318359 -0.37719727 C31.13919383 -0.43781426 34.51417011 -0.46620295 37.890625 -0.48828125 C38.94179504 -0.51408768 39.99296509 -0.5398941 41.07598877 -0.56648254 C48.36757617 -0.5692904 48.36757617 -0.5692904 51.55078125 2.29614258 C52.02902344 3.18841553 52.50726563 4.08068848 53 5 C53.61633301 5.95132813 53.61633301 5.95132813 54.24511719 6.921875 C54.59219727 7.52515625 54.93927734 8.1284375 55.296875 8.75 C55.89290527 9.77649658 55.89290527 9.77649658 56.50097656 10.82373047 C56.9131543 11.54189941 57.32533203 12.26006836 57.75 13 C60.847364 18.33842493 63.98446984 23.63759201 67.25 28.875 C70.21823524 33.65881575 72.96331981 38.51841987 75.61328125 43.484375 C77.31111765 46.56439371 79.17822634 49.50857506 81.1171875 52.44140625 C82 54 82 54 82 56 C81.34 56 80.68 56 80 56 C80 55.34 80 54.68 80 54 C79.34 54 78.68 54 78 54 C77.505 52.02 77.505 52.02 77 50 C76.34 50 75.68 50 75 50 C75 49.01 75 48.02 75 47 C74.34 47 73.68 47 73 47 C72.505 44.03 72.505 44.03 72 41 C71.34 41 70.68 41 70 41 C69.68546875 40.41992188 69.3709375 39.83984375 69.046875 39.2421875 C67.08307223 35.65765594 65.12765624 32.18601337 62.8125 28.8125 C61 26 61 26 59.9375 22.6875 C59.628125 21.800625 59.31875 20.91375 59 20 C58.01 19.67 57.02 19.34 56 19 C53.78248601 15.30414334 53 13.36991627 53 9 C52.01 8.67 51.02 8.34 50 8 C50 7.01 50 6.02 50 5 C49.34 5 48.68 5 48 5 C48 4.34 48 3.68 48 3 C33.48 3 18.96 3 4 3 C4 3.66 4 4.32 4 5 C4.66 5 5.32 5 6 5 C6.33 6.65 6.66 8.3 7 10 C7.99 10.33 8.98 10.66 10 11 C11.30658358 13.15202002 12.12161173 15.32683151 13 17.6875 C13.77234179 20.15427599 13.77234179 20.15427599 16 21 C16 21.99 16 22.98 16 24 C16.66 24 17.32 24 18 24 C18 24.99 18 25.98 18 27 C18.66 27 19.32 27 20 27 C20.33773437 27.68707031 20.67546875 28.37414062 21.0234375 29.08203125 C21.46945313 29.98308594 21.91546875 30.88414062 22.375 31.8125 C22.81585938 32.70582031 23.25671875 33.59914062 23.7109375 34.51953125 C25.01866905 37.14556381 25.01866905 37.14556381 27 40 C27 40.99 27 41.98 27 43 C28.485 43.495 28.485 43.495 30 44 C29.67 44.66 29.34 45.32 29 46 C30.485 46.495 30.485 46.495 32 47 C34.7667759 49.97172226 35 50.74190625 35 55 C35.66 55 36.32 55 37 55 C37.67408308 56.26691507 38.33900497 57.53870749 39 58.8125 C39.37125 59.52019531 39.7425 60.22789062 40.125 60.95703125 C41 63 41 63 41 66 C41.66 66 42.32 66 43 66 C43.29132813 66.56847656 43.58265625 67.13695312 43.8828125 67.72265625 C46.39470734 72.45418143 49.0627625 76.39671556 52.640625 80.37109375 C55.39020147 83.66584487 57 86.71393972 57 91 C57.99 91.33 58.98 91.66 60 92 C60 93.65 60 95.3 60 97 C60.66 97 61.32 97 62 97 C62.33 98.32 62.66 99.64 63 101 C63.66 101 64.32 101 65 101 C68 106.625 68 106.625 68 110 C69.485 110.495 69.485 110.495 71 111 C73.46552067 114.37867647 74 115.70558202 74 120 C74.59296875 120.2165625 75.1859375 120.433125 75.796875 120.65625 C78.74475281 122.45424639 79.66450708 124.4571348 81.25 127.5 C81.77078125 128.4796875 82.2915625 129.459375 82.828125 130.46875 C84 133 84 133 84 135 C84.66 135 85.32 135 86 135 C86.495 137.475 86.495 137.475 87 140 C87.66 140 88.32 140 89 140 C89.67408308 141.26691507 90.33900497 142.53870749 91 143.8125 C91.37125 144.52019531 91.7425 145.22789062 92.125 145.95703125 C93 148 93 148 93 151 C93.99 151.33 94.98 151.66 96 152 C98 155 98 155 98 159 C98.66 159 99.32 159 100 159 C100.12375 158.401875 100.2475 157.80375 100.375 157.1875 C101 155 101 155 103 152 C103.66 152 104.32 152 105 152 C105.33 150.68 105.66 149.36 106 148 C106.66 148 107.32 148 108 148 C108.33 146.35 108.66 144.7 109 143 C109.66 143 110.32 143 111 143 C111.0825 142.4225 111.165 141.845 111.25 141.25 C112.20578526 138.38264421 113.85084743 137.08199155 116 135 C116.33 134.01 116.66 133.02 117 132 C117.66 132 118.32 132 119 132 C119.28875 131.4225 119.5775 130.845 119.875 130.25 C120.24625 129.5075 120.6175 128.765 121 128 C121.33 127.278125 121.66 126.55625 122 125.8125 C123 124 123 124 125 123 C125.495 122.154375 125.99 121.30875 126.5 120.4375 C126.995 119.633125 127.49 118.82875 128 118 C128.66 118 129.32 118 130 118 C130.33 116.35 130.66 114.7 131 113 C131.66 113 132.32 113 133 113 C133.33 112.01 133.66 111.02 134 110 C134.66 110 135.32 110 136 110 C136.0825 109.2575 136.165 108.515 136.25 107.75 C137.16817341 104.38336418 138.54215049 103.45784951 141 101 C142.33692685 98.77864462 143.55383077 96.51659945 144.75390625 94.21875 C146.02836532 91.94949373 147.26416374 89.94342991 149 88 C149.99 88 150.98 88 152 88 C152.33 86.68 152.66 85.36 153 84 C153.66 84 154.32 84 155 84 C155 82.68 155 81.36 155 80 C155.66 79.67 156.32 79.34 157 79 C158.12224855 77.11986894 158.12224855 77.11986894 159.125 74.9375 C159.47820312 74.20402344 159.83140625 73.47054687 160.1953125 72.71484375 C160.46085938 72.14894531 160.72640625 71.58304687 161 71 C161.99 71 162.98 71 164 71 C164 70.01 164 69.02 164 68 C164.66 68 165.32 68 166 68 C166.33 66.68 166.66 65.36 167 64 C167.66 64 168.32 64 169 64 C169 62.68 169 61.36 169 60 C169.66 59.67 170.32 59.34 171 59 C171.72159424 57.35636866 172.39351421 55.68949614 173 54 C173.66 54 174.32 54 175 54 C175.268125 53.360625 175.53625 52.72125 175.8125 52.0625 C177 50 177 50 180 49 C180 47.35 180 45.7 180 44 C180.99 43.67 181.98 43.34 183 43 C183 41.68 183 40.36 183 39 C184.875 36.75 184.875 36.75 187 35 C187.66 35 188.32 35 189 35 C189 34.34 189 33.68 189 33 C189.66 33 190.32 33 191 33 C191.1546875 31.88625 191.1546875 31.88625 191.3125 30.75 C192.04933797 27.8026481 192.94799142 26.21616926 195 24 C195.66 24 196.32 24 197 24 C197.66 22.02 198.32 20.04 199 18 C199.99 18 200.98 18 202 18 C202.33 16.35 202.66 14.7 203 13 C203.66 13 204.32 13 205 13 C205.0825 12.443125 205.165 11.88625 205.25 11.3125 C206.22379269 8.30997254 207.99977512 6.41227121 210 4 C203.91276345 3.97532919 197.82555583 3.95715396 191.73828125 3.94506836 C189.66633599 3.94003148 187.5943943 3.93320175 185.52246094 3.92456055 C182.54881918 3.91246679 179.57522431 3.90676533 176.6015625 3.90234375 C175.67131256 3.89718246 174.74106262 3.89202118 173.78262329 3.88670349 C172.49151138 3.88659019 172.49151138 3.88659019 171.17431641 3.88647461 C170.03514267 3.88314369 170.03514267 3.88314369 168.87295532 3.87974548 C166.90786639 3.88398961 166.90786639 3.88398961 165 5 C164.34227572 8.02934491 164.34227572 8.02934491 164 11 C163.34 11 162.68 11 162 11 C161.67 11.99 161.34 12.98 161 14 C160.34 14 159.68 14 159 14 C159 14.99 159 15.98 159 17 C158.34 17 157.68 17 157 17 C156.67 18.65 156.34 20.3 156 22 C155.34 22 154.68 22 154 22 C153.67 23.32 153.34 24.64 153 26 C152.34 26 151.68 26 151 26 C150.9175 26.70125 150.835 27.4025 150.75 28.125 C149.82141516 31.6845752 148.11950249 34.00776119 146 37 C144.54399236 39.30534543 143.19485737 41.57115073 142.06640625 44.0546875 C141.73511719 44.77914062 141.40382812 45.50359375 141.0625 46.25 C140.76472656 46.93578125 140.46695313 47.6215625 140.16015625 48.328125 C139 50 139 50 136.87109375 50.734375 C136.25363281 50.82203125 135.63617188 50.9096875 135 51 C134.67 52.65 134.34 54.3 134 56 C133.34 56 132.68 56 132 56 C131.896875 56.721875 131.79375 57.44375 131.6875 58.1875 C130.93206053 61.27793421 129.84468685 63.41743841 128 66 C127.34 66 126.68 66 126 66 C125.9175 66.7425 125.835 67.485 125.75 68.25 C124.85280293 71.5397226 123.45029221 72.70285105 121 75 C120.505 76.485 120.505 76.485 120 78 C119.34 78 118.68 78 118 78 C117.9175 78.556875 117.835 79.11375 117.75 79.6875 C116.77505561 82.69357854 114.97378773 84.54771828 113 87 C111.9504114 89.39072959 111.07517748 91.77446757 110.25 94.25 C109 96 109 96 105.875 96.75 C104.92625 96.8325 103.9775 96.915 103 97 C100 92.25 100 92.25 100 90 C99.34 90 98.68 90 98 90 C97.67 88.35 97.34 86.7 97 85 C96.34 85 95.68 85 95 85 C92.08259587 78.53097345 92.08259587 78.53097345 91.5625 75.1875 C91.376875 74.465625 91.19125 73.74375 91 73 C90.01 72.5359375 90.01 72.5359375 89 72.0625 C88.34 71.711875 87.68 71.36125 87 71 C86.25 67.875 86.25 67.875 86 65 C85.34 65 84.68 65 84 65 C81.95830515 62.09451118 81 60.59857954 81 57 C81.99 57 82.98 57 84 57 C84.28987793 57.53077148 84.57975586 58.06154297 84.87841797 58.60839844 C88.16052018 64.57232875 91.60612354 70.42323199 95.125 76.25 C95.64964844 77.12140625 96.17429687 77.9928125 96.71484375 78.890625 C97.22402344 79.73625 97.73320312 80.581875 98.2578125 81.453125 C98.73637695 82.25041016 99.21494141 83.04769531 99.70800781 83.86914062 C100.73786802 85.56767046 101.79757743 87.24809187 102.8671875 88.921875 C104 91 104 91 104 94 C104.66 94 105.32 94 106 94 C106.25885986 93.28537598 106.51771973 92.57075195 106.78442383 91.83447266 C108.07155643 88.83314518 109.61986432 86.35186739 111.44921875 83.6484375 C112.13306641 82.63136719 112.81691406 81.61429687 113.52148438 80.56640625 C114.59366211 78.98666016 114.59366211 78.98666016 115.6875 77.375 C120.90355783 69.65001352 126.03160302 61.88679856 131 54 C132.12434009 52.2287476 133.24926428 50.45786572 134.375 48.6875 C134.94863281 47.78515625 135.52226562 46.8828125 136.11328125 45.953125 C137.48004123 43.8138485 138.85195068 41.67854326 140.23046875 39.546875 C140.61404541 38.95318115 140.99762207 38.3594873 141.39282227 37.74780273 C142.16740741 36.54898227 142.94262682 35.35057135 143.71850586 34.15258789 C146.55816969 29.74655057 149.23202327 25.26120092 151.80859375 20.6953125 C152.39833984 19.85613281 152.39833984 19.85613281 153 19 C153.66 19 154.32 19 155 19 C155.09539062 18.44183594 155.19078125 17.88367188 155.2890625 17.30859375 C156.17439268 14.43370288 157.60284184 12.48893596 159.375 10.0625 C162.05675718 6.43682772 162.05675718 6.43682772 163.92358398 2.37207031 C166 0 166 0 168.16326904 -0.43702698 C171.12479227 -0.58159658 174.04746278 -0.56069873 177.01171875 -0.48828125 C178.09508011 -0.48120651 179.17844147 -0.47413177 180.29463196 -0.46684265 C183.75961962 -0.43882254 187.22299963 -0.37606661 190.6875 -0.3125 C193.0344819 -0.28742714 195.38148908 -0.26461221 197.72851562 -0.24414062 C203.4862269 -0.18897099 209.24299862 -0.10526821 215 0 C214.67 1.98 214.34 3.96 214 6 C213.34 6 212.68 6 212 6 C211.71125 6.5775 211.4225 7.155 211.125 7.75 C209.5625 10.875 209.5625 10.875 208 14 C207.34 14 206.68 14 206 14 C205.67708984 14.99966797 205.67708984 14.99966797 205.34765625 16.01953125 C203.55153877 19.99181426 201.06106096 23.22413079 198.4375 26.6875 C197.43495214 28.02380586 196.43359272 29.36100441 195.43359375 30.69921875 C194.76928345 31.57839966 194.76928345 31.57839966 194.09155273 32.4753418 C192.92281806 34.02349814 192.92281806 34.02349814 192 36 C191.34 36 190.68 36 190 36 C189.8875293 36.58555664 189.77505859 37.17111328 189.65917969 37.77441406 C188.9388607 40.20642439 188.00471852 41.61538942 186.453125 43.609375 C185.9375 44.28226563 185.421875 44.95515625 184.890625 45.6484375 C184.34921875 46.34195313 183.8078125 47.03546875 183.25 47.75 C179.53910006 52.53415041 176.09302733 57.2859634 173.06933594 62.54003906 C172.54001465 63.26271973 172.54001465 63.26271973 172 64 C171.34 64 170.68 64 170 64 C169.62875 65.051875 169.62875 65.051875 169.25 66.125 C167.82819762 69.39514548 166.12753712 72.141122 164 75 C163.34 75 162.68 75 162 75 C161.88527344 75.58265625 161.77054688 76.1653125 161.65234375 76.765625 C160.95175938 79.16523135 160.01807405 80.72860933 158.5625 82.75 C158.13066406 83.36359375 157.69882813 83.9771875 157.25390625 84.609375 C156.63322266 85.29773438 156.63322266 85.29773438 156 86 C155.34 86 154.68 86 154 86 C153.74347656 86.721875 153.48695313 87.44375 153.22265625 88.1875 C151.92917939 91.16291003 150.38965565 93.41290079 148.4375 96 C145.40966551 100.069846 142.48199883 104.18338182 139.625 108.375 C136.07332103 113.54275436 132.33699967 118.51498634 128.46728516 123.44750977 C126.11321042 126.47144696 123.96791326 129.52492727 122 132.8125 C121.34 133.864375 120.68 134.91625 120 136 C119.34 136 118.68 136 118 136 C117.72929687 136.56976563 117.45859375 137.13953125 117.1796875 137.7265625 C115.53308015 140.89982566 113.5269923 143.78181624 111.5234375 146.73828125 C110.59333137 148.11913113 109.67788394 149.51019027 108.7890625 150.91796875 C107.90881623 152.31114048 106.96109947 153.66132574 106 155 C105.34 155 104.68 155 104 155 C103.87625 155.61875 103.7525 156.2375 103.625 156.875 C103 159 103 159 101 161 C99.68 161 98.36 161 97 161 C95.16040039 158.65283203 95.16040039 158.65283203 93.28515625 155.3828125 C92.58230881 154.18124794 91.87934258 152.97975287 91.17626953 151.77832031 C90.81752747 151.15316528 90.4587854 150.52801025 90.08917236 149.88391113 C88.35803504 146.88961108 86.54836367 143.94400249 84.74609375 140.9921875 C84.02874318 139.80892925 83.31194891 138.62533357 82.59570312 137.44140625 C82.24000244 136.85375488 81.88430176 136.26610352 81.51782227 135.66064453 C80.79554179 134.46680061 80.07353812 133.27278918 79.35180664 132.07861328 C75.18688342 125.1892807 70.96534213 118.34454668 66.6237793 111.56445312 C64.06711183 107.52667909 61.62763188 103.42136723 59.1875 99.3125 C54.99506034 92.28629394 50.73118777 85.3126378 46.37451172 78.38720703 C43.66667265 74.08003328 41.03109821 69.73570886 38.4296875 65.36328125 C36.8036094 62.67536526 35.12619515 60.02400462 33.4375 57.375 C32.85742188 56.46492188 32.27734375 55.55484375 31.6796875 54.6171875 C30.60991785 52.95033712 29.53258099 51.28830171 28.4453125 49.6328125 C27.98898438 48.92898437 27.53265625 48.22515625 27.0625 47.5 C26.66160156 46.8915625 26.26070312 46.283125 25.84765625 45.65625 C25 44 25 44 25 41 C24.34 41 23.68 41 23 41 C22.731875 40.50113281 22.46375 40.00226563 22.1875 39.48828125 C17.56454943 31.0179409 12.46246103 22.83975643 7.26171875 14.71484375 C6.8030542 13.99369385 6.34438965 13.27254395 5.87182617 12.52954102 C4.97024682 11.1135528 4.06301102 9.70114735 3.1496582 8.29272461 C0 3.33601727 0 3.33601727 0 0 Z " fill="#1F1E1F" transform="translate(71,122)"/>
<path d="M0 0 C2.75404571 -0.19498611 5.46276269 -0.21100142 8.22357178 -0.17381287 C9.24679031 -0.17622482 10.27000885 -0.17863678 11.32423401 -0.18112183 C13.4989711 -0.18014091 15.67373241 -0.16668938 17.84832764 -0.14183044 C21.12340046 -0.10799754 24.39570062 -0.12103968 27.6708374 -0.14060974 C51.28621697 -0.12371966 75.47453955 5.33467907 92.99310303 22.45509338 C110.75102437 42.35174248 117.3550418 63.98913901 115.99310303 90.45509338 C115.00573805 103.49943627 111.78689177 119.24372668 102.99310303 129.45509338 C102.00310303 129.45509338 101.01310303 129.45509338 99.99310303 129.45509338 C100.30247803 128.69196838 100.61185303 127.92884338 100.93060303 127.14259338 C101.67203896 125.26719662 102.3553852 123.36824687 102.99310303 121.45509338 C103.65310303 121.45509338 104.31310303 121.45509338 104.99310303 121.45509338 C105.32310303 119.47509338 105.65310303 117.49509338 105.99310303 115.45509338 C106.65310303 115.45509338 107.31310303 115.45509338 107.99310303 115.45509338 C108.06657959 114.56757385 108.06657959 114.56757385 108.14154053 113.66212463 C108.5576717 109.26404867 109.04275898 105.48580441 110.99310303 101.45509338 C111.65310303 101.45509338 112.31310303 101.45509338 112.99310303 101.45509338 C112.99310303 88.25509338 112.99310303 75.05509338 112.99310303 61.45509338 C112.00310303 61.12509338 111.01310303 60.79509338 109.99310303 60.45509338 C109.91060303 59.25884338 109.82810303 58.06259338 109.74310303 56.83009338 C109.10305223 51.59837381 106.69018548 48.15217583 102.99310303 44.45509338 C102.86810303 41.83009338 102.86810303 41.83009338 102.99310303 39.45509338 C102.00310303 39.12509338 101.01310303 38.79509338 99.99310303 38.45509338 C99.99310303 37.13509338 99.99310303 35.81509338 99.99310303 34.45509338 C99.00310303 34.12509338 98.01310303 33.79509338 96.99310303 33.45509338 C96.99310303 32.46509338 96.99310303 31.47509338 96.99310303 30.45509338 C96.00310303 30.45509338 95.01310303 30.45509338 93.99310303 30.45509338 C93.99310303 29.46509338 93.99310303 28.47509338 93.99310303 27.45509338 C93.00310303 27.12509338 92.01310303 26.79509338 90.99310303 26.45509338 C90.99310303 25.46509338 90.99310303 24.47509338 90.99310303 23.45509338 C90.22997803 23.16634338 89.46685303 22.87759338 88.68060303 22.58009338 C85.99310303 21.45509338 85.99310303 21.45509338 82.99310303 19.45509338 C82.99310303 18.79509338 82.99310303 18.13509338 82.99310303 17.45509338 C82.00310303 17.45509338 81.01310303 17.45509338 79.99310303 17.45509338 C79.99310303 16.79509338 79.99310303 16.13509338 79.99310303 15.45509338 C78.34310303 15.12509338 76.69310303 14.79509338 74.99310303 14.45509338 C74.99310303 13.79509338 74.99310303 13.13509338 74.99310303 12.45509338 C73.01310303 12.12509338 71.03310303 11.79509338 68.99310303 11.45509338 C68.99310303 10.79509338 68.99310303 10.13509338 68.99310303 9.45509338 C67.81747803 9.23853088 67.81747803 9.23853088 66.61810303 9.01759338 C63.99310303 8.45509338 63.99310303 8.45509338 61.99310303 7.45509338 C59.79043986 7.06722082 57.58085735 6.71799843 55.36810303 6.39259338 C54.1795874 6.21599182 52.99107178 6.03939026 51.76654053 5.85743713 C50.85130615 5.7246637 49.93607178 5.59189026 48.99310303 5.45509338 C48.99310303 4.79509338 48.99310303 4.13509338 48.99310303 3.45509338 C32.49310303 3.45509338 15.99310303 3.45509338 -1.00689697 3.45509338 C-1.33689697 4.77509338 -1.66689697 6.09509338 -2.00689697 7.45509338 C-3.67356364 9.12176005 -5.34023031 10.78842672 -7.00689697 12.45509338 C-8.49391493 14.72475237 -9.7220712 17.05675194 -11.00689697 19.45509338 C-13.00617465 23.03713256 -15.11752597 25.56572239 -18.00689697 28.45509338 C-18.47095947 29.41415588 -18.47095947 29.41415588 -18.94439697 30.39259338 C-20.43687433 33.28975532 -22.70364226 35.15183867 -25.00689697 37.45509338 C-29.18490286 42.44936778 -32.26822282 47.55641059 -35.00689697 53.45509338 C-35.99689697 53.45509338 -36.98689697 53.45509338 -38.00689697 53.45509338 C-38.00689697 54.44509338 -38.00689697 55.43509338 -38.00689697 56.45509338 C-38.66689697 56.45509338 -39.32689697 56.45509338 -40.00689697 56.45509338 C-40.23377197 57.17696838 -40.46064697 57.89884338 -40.69439697 58.64259338 C-42.2589944 61.99530216 -44.3722587 63.88632107 -47.00689697 66.45509338 C-48.30209693 68.62129883 -48.30209693 68.62129883 -49.00689697 70.45509338 C-49.66689697 70.45509338 -50.32689697 70.45509338 -51.00689697 70.45509338 C-51.33689697 72.10509338 -51.66689697 73.75509338 -52.00689697 75.45509338 C-52.66689697 75.45509338 -53.32689697 75.45509338 -54.00689697 75.45509338 C-54.50189697 76.94009338 -54.50189697 76.94009338 -55.00689697 78.45509338 C-55.66689697 78.45509338 -56.32689697 78.45509338 -57.00689697 78.45509338 C-57.00689697 79.44509338 -57.00689697 80.43509338 -57.00689697 81.45509338 C-57.66689697 81.45509338 -58.32689697 81.45509338 -59.00689697 81.45509338 C-59.50189697 83.43509338 -59.50189697 83.43509338 -60.00689697 85.45509338 C-60.66689697 85.45509338 -61.32689697 85.45509338 -62.00689697 85.45509338 C-62.11002197 86.38321838 -62.21314697 87.31134338 -62.31939697 88.26759338 C-63.01221192 91.47973543 -63.39481388 92.57439355 -66.00689697 94.45509338 C-66.66689697 94.45509338 -67.32689697 94.45509338 -68.00689697 94.45509338 C-68.37814697 95.50696838 -68.37814697 95.50696838 -68.75689697 96.58009338 C-70.17869935 99.85023886 -71.87935985 102.59621538 -74.00689697 105.45509338 C-74.66689697 105.45509338 -75.32689697 105.45509338 -76.00689697 105.45509338 C-76.10357666 106.03646057 -76.20025635 106.61782776 -76.29986572 107.21681213 C-77.15333881 109.91869102 -78.37377028 111.22197731 -80.31939697 113.26759338 C-83.54547747 116.81034435 -85.74106488 120.24711949 -88.00689697 124.45509338 C-89.63189697 126.89259338 -89.63189697 126.89259338 -91.00689697 128.45509338 C-91.66689697 128.45509338 -92.32689697 128.45509338 -93.00689697 128.45509338 C-93.13064697 129.03259338 -93.25439697 129.61009338 -93.38189697 130.20509338 C-94.01338521 132.47845105 -94.89547888 134.38044628 -96.00689697 136.45509338 C-96.66689697 136.45509338 -97.32689697 136.45509338 -98.00689697 136.45509338 C-98.08939697 136.99134338 -98.17189697 137.52759338 -98.25689697 138.08009338 C-99.28270968 141.3285003 -100.97253591 143.74261197 -103.00689697 146.45509338 C-103.66689697 146.45509338 -104.32689697 146.45509338 -105.00689697 146.45509338 C-105.00689697 147.44509338 -105.00689697 148.43509338 -105.00689697 149.45509338 C-106.32476982 150.47538204 -107.6590035 151.47480722 -109.00689697 152.45509338 C-109.33689697 153.44509338 -109.66689697 154.43509338 -110.00689697 155.45509338 C-110.66689697 155.45509338 -111.32689697 155.45509338 -112.00689697 155.45509338 C-112.33689697 156.44509338 -112.66689697 157.43509338 -113.00689697 158.45509338 C-113.66689697 158.45509338 -114.32689697 158.45509338 -115.00689697 158.45509338 C-115.00689697 159.44509338 -115.00689697 160.43509338 -115.00689697 161.45509338 C-115.66689697 161.45509338 -116.32689697 161.45509338 -117.00689697 161.45509338 C-117.29564697 162.03259338 -117.58439697 162.61009338 -117.88189697 163.20509338 C-119.44439697 166.33009338 -119.44439697 166.33009338 -121.00689697 169.45509338 C-121.66689697 169.45509338 -122.32689697 169.45509338 -123.00689697 169.45509338 C-123.06877197 170.15634338 -123.13064697 170.85759338 -123.19439697 171.58009338 C-124.31470268 175.54425205 -126.16756223 177.47725451 -129.00689697 180.45509338 C-129.66689697 180.45509338 -130.32689697 180.45509338 -131.00689697 180.45509338 C-131.29564697 181.03259338 -131.58439697 181.61009338 -131.88189697 182.20509338 C-132.92356364 184.28842672 -133.96523031 186.37176005 -135.00689697 188.45509338 C-135.66689697 188.45509338 -136.32689697 188.45509338 -137.00689697 188.45509338 C-137.08939697 189.23884338 -137.17189697 190.02259338 -137.25689697 190.83009338 C-137.50439697 191.69634338 -137.75189697 192.56259338 -138.00689697 193.45509338 C-139.98689697 194.44509338 -139.98689697 194.44509338 -142.00689697 195.45509338 C-142.33689697 214.59509338 -142.66689697 233.73509338 -143.00689697 253.45509338 C-143.99689697 253.78509338 -144.98689697 254.11509338 -146.00689697 254.45509338 C-146.36633056 246.68675197 -146.6088214 238.9205992 -146.77593994 231.14576721 C-146.83775594 228.5069464 -146.94056214 225.87923672 -147.06304932 223.24147034 C-147.82331793 206.42931179 -147.04406886 195.04758609 -135.51470947 182.20240784 C-134.91564789 181.56914581 -134.3165863 180.93588379 -133.69937134 180.28343201 C-131.27259668 177.66184675 -129.22632067 174.84731221 -127.13189697 171.95509338 C-126.09162354 170.57064026 -126.09162354 170.57064026 -125.03033447 169.15821838 C-118.26715634 160.17768603 -118.26715634 160.17768603 -112.13189697 150.76759338 C-111.43064697 149.67446838 -110.72939697 148.58134338 -110.00689697 147.45509338 C-109.34689697 147.45509338 -108.68689697 147.45509338 -108.00689697 147.45509338 C-107.73748291 146.88274963 -107.46806885 146.31040588 -107.19049072 145.72071838 C-105.97229955 143.38886729 -104.59938833 141.3448368 -103.06939697 139.20509338 C-99.26467631 133.83843477 -95.54015329 128.41977009 -91.82745361 122.98927307 C-90.56010876 121.14018503 -89.28497287 119.29677273 -88.00689697 117.45509338 C-87.44486572 116.63782776 -86.88283447 115.82056213 -86.30377197 114.97853088 C-85.87580322 114.47579651 -85.44783447 113.97306213 -85.00689697 113.45509338 C-84.34689697 113.45509338 -83.68689697 113.45509338 -83.00689697 113.45509338 C-82.88862549 112.86228577 -82.770354 112.26947815 -82.64849854 111.65870667 C-81.58829857 108.01739583 -79.05576091 105.28371305 -76.75689697 102.33009338 C-75.66556767 100.90284265 -74.57578193 99.47441062 -73.48736572 98.04493713 C-72.9180835 97.29840881 -72.34880127 96.55188049 -71.76226807 95.7827301 C-68.80554641 91.86209251 -65.93671788 87.87884859 -63.06939697 83.89259338 C-62.53862549 83.15573303 -62.007854 82.41887268 -61.46099854 81.65968323 C-60.95149658 80.95150452 -60.44199463 80.24332581 -59.91705322 79.51368713 C-59.42865967 78.83676819 -58.94026611 78.15984924 -58.43707275 77.4624176 C-57.47319226 76.10956246 -56.523854 74.74624236 -55.58843994 73.37355042 C-54.44079941 71.7013941 -53.22953223 70.07322457 -52.00689697 68.45509338 C-51.34689697 68.45509338 -50.68689697 68.45509338 -50.00689697 68.45509338 C-49.78002197 67.7809137 -49.55314697 67.10673401 -49.31939697 66.41212463 C-47.64320767 62.63571004 -45.41585156 59.48415753 -43.00689697 56.14259338 C-42.5557251 55.4974176 -42.10455322 54.85224182 -41.63970947 54.18751526 C-40.4826876 52.57008084 -39.2502312 51.00716094 -38.00689697 49.45509338 C-37.34689697 49.45509338 -36.68689697 49.45509338 -36.00689697 49.45509338 C-35.78002197 48.7809137 -35.55314697 48.10673401 -35.31939697 47.41212463 C-33.64320767 43.63571004 -31.41585156 40.48415753 -29.00689697 37.14259338 C-28.5557251 36.4974176 -28.10455322 35.85224182 -27.63970947 35.18751526 C-26.4826876 33.57008084 -25.2502312 32.00716094 -24.00689697 30.45509338 C-23.34689697 30.45509338 -22.68689697 30.45509338 -22.00689697 30.45509338 C-21.86743652 29.61385925 -21.86743652 29.61385925 -21.72515869 28.75563049 C-20.82117958 25.86025485 -19.38123413 24.03610746 -17.51470947 21.64649963 C-16.80959229 20.73448792 -16.1044751 19.8224762 -15.37799072 18.88282776 C-14.63677979 17.93730042 -13.89556885 16.99177307 -13.13189697 16.01759338 C-11.67384586 14.14570176 -10.21803756 12.27206056 -8.76470947 10.39649963 C-8.11647217 9.56835754 -7.46823486 8.74021545 -6.800354 7.88697815 C-4.89751282 5.52390679 -4.89751282 5.52390679 -3.91143799 2.68556213 C-2.00689697 0.45509338 -2.00689697 0.45509338 0 0 Z " fill="#222122" transform="translate(312.00689697265625,121.54490661621094)"/>
<path d="M0 0 C0.68847015 0.02123932 1.37694031 0.04247864 2.08627319 0.06436157 C3.5473447 0.11066713 5.00833496 0.15959893 6.46923828 0.2109375 C8.68115428 0.28802453 10.89320452 0.35563066 13.10546875 0.421875 C33.09428303 1.07219939 33.09428303 1.07219939 39.0859375 6.9140625 C36.0859375 7.9140625 36.0859375 7.9140625 32.3359375 6.5390625 C26.37062995 4.43535501 20.49970693 4.21434161 14.21728516 4.02978516 C11.95672541 3.90704686 9.74798328 3.62793794 7.50390625 3.33203125 C-0.57351032 2.30565417 -0.57351032 2.30565417 -7.74804688 5.390625 C-10.59385874 8.55043469 -12.80266601 11.97064498 -14.9453125 15.6328125 C-15.595 16.715625 -16.2446875 17.7984375 -16.9140625 18.9140625 C-17.5740625 18.9140625 -18.2340625 18.9140625 -18.9140625 18.9140625 C-19.15511719 19.62175781 -19.39617187 20.32945312 -19.64453125 21.05859375 C-21.11333746 24.36227786 -22.96954288 26.7756705 -25.2265625 29.6015625 C-29.61472739 35.17125173 -33.82855308 40.85087391 -37.9765625 46.6015625 C-38.54866455 47.39199951 -39.1207666 48.18243652 -39.71020508 48.99682617 C-42.53015275 52.82127503 -42.53015275 52.82127503 -44.9140625 56.9140625 C-45.5740625 56.9140625 -46.2340625 56.9140625 -46.9140625 56.9140625 C-47.09714966 57.80786621 -47.09714966 57.80786621 -47.28393555 58.71972656 C-48.28239311 62.19672639 -50.57035843 64.81846488 -52.7265625 67.6640625 C-53.21431152 68.31874512 -53.70206055 68.97342773 -54.20458984 69.64794922 C-55.76734177 71.74206665 -57.33934744 73.82892922 -58.9140625 75.9140625 C-60.95668356 78.62167806 -62.99869721 81.32974653 -65.0390625 84.0390625 C-65.53680176 84.6995459 -66.03454102 85.3600293 -66.54736328 86.04052734 C-74.36264991 96.08181348 -74.36264991 96.08181348 -80.9140625 106.9140625 C-81.5740625 106.9140625 -82.2340625 106.9140625 -82.9140625 106.9140625 C-83.2853125 107.9659375 -83.2853125 107.9659375 -83.6640625 109.0390625 C-85.08586488 112.30920798 -86.78652538 115.0551845 -88.9140625 117.9140625 C-89.5740625 117.9140625 -90.2340625 117.9140625 -90.9140625 117.9140625 C-91.26791016 118.96013672 -91.26791016 118.96013672 -91.62890625 120.02734375 C-93.16209306 123.4711889 -95.17094366 126.12239209 -97.4765625 129.1015625 C-100.45834924 132.84177494 -100.45834924 132.84177494 -102.9140625 136.9140625 C-103.5740625 136.9140625 -104.2340625 136.9140625 -104.9140625 136.9140625 C-105.1615625 137.6153125 -105.4090625 138.3165625 -105.6640625 139.0390625 C-107.08586488 142.30920798 -108.78652538 145.0551845 -110.9140625 147.9140625 C-111.5740625 147.9140625 -112.2340625 147.9140625 -112.9140625 147.9140625 C-113.2028125 148.6565625 -113.4915625 149.3990625 -113.7890625 150.1640625 C-114.9140625 152.9140625 -114.9140625 152.9140625 -115.96543884 154.70857239 C-117.19076635 157.55738149 -117.18723332 159.85253007 -117.21704102 162.9519043 C-117.23368301 164.16964035 -117.25032501 165.3873764 -117.26747131 166.64201355 C-117.27588547 167.95253189 -117.28429962 169.26305023 -117.29296875 170.61328125 C-117.30914769 171.97281586 -117.32632811 173.33233889 -117.34446716 174.69184875 C-117.39008409 178.26374982 -117.42493212 181.83566636 -117.45666504 185.40771484 C-117.5086176 191.13588258 -117.57354519 196.86388105 -117.64488029 202.59183693 C-117.66776559 204.59549396 -117.683714 206.5992263 -117.69960022 208.60295105 C-117.71309006 209.81123062 -117.7265799 211.01951019 -117.74047852 212.2644043 C-117.75474632 213.86846382 -117.75474632 213.86846382 -117.76930237 215.50492859 C-117.9140625 217.9140625 -117.9140625 217.9140625 -118.9140625 218.9140625 C-121.7256963 219.00268242 -124.51264505 219.02928605 -127.32421875 219.01171875 C-128.16625351 219.0103038 -129.00828827 219.00888885 -129.87583923 219.00743103 C-132.57611585 219.00181513 -135.27631078 218.98925998 -137.9765625 218.9765625 C-139.80273318 218.97154955 -141.62890516 218.96698629 -143.45507812 218.96289062 C-147.94143792 218.95184054 -152.42773634 218.93456529 -156.9140625 218.9140625 C-156.9140625 217.9240625 -156.9140625 216.9340625 -156.9140625 215.9140625 C-144.7040625 215.9140625 -132.4940625 215.9140625 -119.9140625 215.9140625 C-119.94886719 211.41265625 -119.98367187 206.91125 -120.01953125 202.2734375 C-120.03882615 198.68266551 -120.05509382 195.09190818 -120.06931305 191.50111389 C-120.08515063 187.7114114 -120.10631234 183.9219104 -120.14038086 180.13232422 C-120.17299291 176.48187515 -120.19091932 172.83162141 -120.19869423 169.1810379 C-120.20423448 167.78876928 -120.21505334 166.39651127 -120.23125267 165.00432587 C-120.25304873 163.05344582 -120.25428809 161.10236896 -120.25463867 159.15136719 C-120.26130051 158.0410614 -120.26796234 156.93075562 -120.27482605 155.7868042 C-119.87273141 152.58494514 -119.17600711 151.18511076 -116.9140625 148.9140625 C-116.2540625 148.9140625 -115.5940625 148.9140625 -114.9140625 148.9140625 C-114.8109375 148.1509375 -114.7078125 147.3878125 -114.6015625 146.6015625 C-113.86695056 143.72989766 -113.242456 142.68364156 -110.9140625 140.9140625 C-110.2540625 140.9140625 -109.5940625 140.9140625 -108.9140625 140.9140625 C-108.6459375 139.9446875 -108.3778125 138.9753125 -108.1015625 137.9765625 C-107.7096875 136.9659375 -107.3178125 135.9553125 -106.9140625 134.9140625 C-105.9240625 134.5840625 -104.9340625 134.2540625 -103.9140625 133.9140625 C-103.9140625 132.9240625 -103.9140625 131.9340625 -103.9140625 130.9140625 C-102.9240625 130.9140625 -101.9340625 130.9140625 -100.9140625 130.9140625 C-100.4190625 127.9440625 -100.4190625 127.9440625 -99.9140625 124.9140625 C-99.2540625 124.9140625 -98.5940625 124.9140625 -97.9140625 124.9140625 C-97.8521875 124.3778125 -97.7903125 123.8415625 -97.7265625 123.2890625 C-96.51370986 119.74380093 -94.46795324 117.6548233 -91.9140625 114.9140625 C-91.2540625 114.9140625 -90.5940625 114.9140625 -89.9140625 114.9140625 C-89.5840625 113.2640625 -89.2540625 111.6140625 -88.9140625 109.9140625 C-88.2540625 109.9140625 -87.5940625 109.9140625 -86.9140625 109.9140625 C-86.8315625 109.3571875 -86.7490625 108.8003125 -86.6640625 108.2265625 C-85.6824963 105.20006671 -83.92106017 103.37980249 -81.9140625 100.9140625 C-81.1857188 99.67561526 -80.47759286 98.42507878 -79.7890625 97.1640625 C-77.9140625 93.9140625 -77.9140625 93.9140625 -75.9140625 92.9140625 C-75.4190625 91.4290625 -75.4190625 91.4290625 -74.9140625 89.9140625 C-72.8515625 89.2265625 -72.8515625 89.2265625 -70.9140625 88.9140625 C-70.8109375 88.1921875 -70.7078125 87.4703125 -70.6015625 86.7265625 C-69.84612303 83.63612829 -68.75874935 81.49662409 -66.9140625 78.9140625 C-66.2540625 78.9140625 -65.5940625 78.9140625 -64.9140625 78.9140625 C-64.4190625 77.4290625 -64.4190625 77.4290625 -63.9140625 75.9140625 C-63.2540625 75.9140625 -62.5940625 75.9140625 -61.9140625 75.9140625 C-60.39106727 72.97685742 -59.11305948 69.9971976 -57.9140625 66.9140625 C-56.5940625 66.9140625 -55.2740625 66.9140625 -53.9140625 66.9140625 C-53.8109375 66.0065625 -53.7078125 65.0990625 -53.6015625 64.1640625 C-52.88625185 60.78259396 -52.08729613 59.50522568 -49.9140625 56.9140625 C-49.140625 55.5528125 -49.140625 55.5528125 -48.3515625 54.1640625 C-47.8771875 53.4215625 -47.4028125 52.6790625 -46.9140625 51.9140625 C-46.2540625 51.9140625 -45.5940625 51.9140625 -44.9140625 51.9140625 C-43.9240625 48.9440625 -43.9240625 48.9440625 -42.9140625 45.9140625 C-41.9240625 45.9140625 -40.9340625 45.9140625 -39.9140625 45.9140625 C-39.5840625 44.5940625 -39.2540625 43.2740625 -38.9140625 41.9140625 C-38.2540625 41.9140625 -37.5940625 41.9140625 -36.9140625 41.9140625 C-36.5840625 40.2640625 -36.2540625 38.6140625 -35.9140625 36.9140625 C-35.2540625 36.9140625 -34.5940625 36.9140625 -33.9140625 36.9140625 C-33.9140625 35.9240625 -33.9140625 34.9340625 -33.9140625 33.9140625 C-33.2540625 33.9140625 -32.5940625 33.9140625 -31.9140625 33.9140625 C-31.6871875 33.3984375 -31.4603125 32.8828125 -31.2265625 32.3515625 C-29.43188632 29.01859245 -27.41441235 25.76702579 -24.9140625 22.9140625 C-24.2540625 22.9140625 -23.5940625 22.9140625 -22.9140625 22.9140625 C-21.50028909 20.27501879 -20.54166115 17.84285621 -19.9140625 14.9140625 C-19.2540625 14.9140625 -18.5940625 14.9140625 -17.9140625 14.9140625 C-17.5840625 13.9240625 -17.2540625 12.9340625 -16.9140625 11.9140625 C-16.2540625 11.9140625 -15.5940625 11.9140625 -14.9140625 11.9140625 C-14.5428125 10.8621875 -14.5428125 10.8621875 -14.1640625 9.7890625 C-10.69467697 1.80947579 -8.53279974 -0.27192321 0 0 Z " fill="#1C1C1C" transform="translate(326.9140625,159.0859375)"/>
<path d="M0 0 C0.99 0 1.98 0 3 0 C1.7580393 3.43927579 0.44259716 6.25207819 -2 9 C-2.66 9 -3.32 9 -4 9 C-4.39638672 9.8971875 -4.39638672 9.8971875 -4.80078125 10.8125 C-6.04922285 13.08978762 -7.21292097 14.3371966 -9.1875 16 C-9.73792969 16.474375 -10.28835938 16.94875 -10.85546875 17.4375 C-27.35236142 29.45709393 -47.54537888 36.81456456 -68 36 C-68 35.67 -68 35.34 -68 35 C-76.31001875 34.97685685 -84.62002408 34.95907482 -92.93006706 34.94818783 C-96.7885133 34.94296333 -100.64693753 34.93587351 -104.50537109 34.92456055 C-108.2271153 34.91371632 -111.9488383 34.90771989 -115.67059708 34.90512276 C-117.09240172 34.90327129 -118.51420517 34.89965597 -119.93600082 34.89426994 C-121.9233055 34.88703928 -123.91063139 34.88659177 -125.89794922 34.88647461 C-127.03046112 34.884254 -128.16297302 34.88203339 -129.32980347 34.87974548 C-131.97384777 34.81754044 -131.97384777 34.81754044 -134 36 C-133.67 35.01 -133.34 34.02 -133 33 C-89.935 32.505 -89.935 32.505 -46 32 C-46 31.34 -46 30.68 -46 30 C-45.17757812 29.76925781 -44.35515625 29.53851563 -43.5078125 29.30078125 C-36.94429895 27.38326517 -30.9390371 25.22055698 -24.92578125 21.953125 C-23 21 -23 21 -21 21 C-21 20.34 -21 19.68 -21 19 C-20.01 19 -19.02 19 -18 19 C-18 18.34 -18 17.68 -18 17 C-16.68 16.67 -15.36 16.34 -14 16 C-14 15.34 -14 14.68 -14 14 C-13.38125 13.9175 -12.7625 13.835 -12.125 13.75 C-9.32494581 12.76174558 -9.25886068 11.59640015 -8 9 C-5.875 7.75 -5.875 7.75 -4 7 C-4 6.34 -4 5.68 -4 5 C-3.34 4.67 -2.68 4.34 -2 4 C-0.86649466 1.98330173 -0.86649466 1.98330173 0 0 Z " fill="#1D1D1E" transform="translate(410,252)"/>
<path d="M0 0 C1.9375 0.6875 1.9375 0.6875 4 2 C4.75 4.625 4.75 4.625 5 7 C5.66 7 6.32 7 7 7 C7.43699219 7.85271484 7.43699219 7.85271484 7.8828125 8.72265625 C10.39470734 13.45418143 13.0627625 17.39671556 16.640625 21.37109375 C19.39020147 24.66584487 21 27.71393972 21 32 C22.485 32.495 22.485 32.495 24 33 C24 34.65 24 36.3 24 38 C24.66 38 25.32 38 26 38 C26.33 39.32 26.66 40.64 27 42 C27.66 42 28.32 42 29 42 C32 47.625 32 47.625 32 51 C32.99 51.33 33.98 51.66 35 52 C37.46552067 55.37867647 38 56.70558202 38 61 C38.59296875 61.2165625 39.1859375 61.433125 39.796875 61.65625 C42.74475281 63.45424639 43.66450708 65.4571348 45.25 68.5 C45.77078125 69.4796875 46.2915625 70.459375 46.828125 71.46875 C48 74 48 74 48 76 C48.66 76 49.32 76 50 76 C50.33 77.65 50.66 79.3 51 81 C50.01 81 49.02 81 48 81 C46.36181641 78.81616211 46.36181641 78.81616211 44.6015625 75.77734375 C43.63476562 74.13282227 43.63476562 74.13282227 42.6484375 72.45507812 C41.9733837 71.28288282 41.29890866 70.11035403 40.625 68.9375 C36.63833219 62.08930793 32.67324929 55.39977833 28 49 C27.02591756 47.31225819 26.08490123 45.6047341 25.1875 43.875 C20.67558467 35.42962003 15.52790432 27.37742089 10.375 19.3125 C8.10036462 15.74403532 5.83936113 12.16874526 3.625 8.5625 C3.14289063 7.78003906 2.66078125 6.99757812 2.1640625 6.19140625 C1.05722413 4.10772731 0.45160091 2.30526513 0 0 Z " fill="#222222" transform="translate(107,181)"/>
<path d="M0 0 C1.1875 1.6875 1.1875 1.6875 2 4 C0.75 6.75 0.75 6.75 -1 9 C-1.66 9 -2.32 9 -3 9 C-3.21527344 9.66644531 -3.43054688 10.33289063 -3.65234375 11.01953125 C-5.44846123 14.99181426 -7.93893904 18.22413079 -10.5625 21.6875 C-11.56504786 23.02380586 -12.56640728 24.36100441 -13.56640625 25.69921875 C-14.00927979 26.28533936 -14.45215332 26.87145996 -14.90844727 27.4753418 C-16.07718194 29.02349814 -16.07718194 29.02349814 -17 31 C-17.66 31 -18.32 31 -19 31 C-19.11174561 31.58410645 -19.22349121 32.16821289 -19.33862305 32.77001953 C-20.06582935 35.22195841 -21.02414516 36.66259859 -22.58203125 38.6796875 C-23.10216797 39.36160156 -23.62230469 40.04351562 -24.15820312 40.74609375 C-24.70412109 41.44863281 -25.25003906 42.15117187 -25.8125 42.875 C-26.88302298 44.26706728 -27.95206007 45.66027865 -29.01953125 47.0546875 C-29.53338379 47.71952148 -30.04723633 48.38435547 -30.57666016 49.06933594 C-31.87797283 50.83447841 -33.00898917 52.62954993 -34.13671875 54.5078125 C-34.75160156 55.33023438 -35.36648437 56.15265625 -36 57 C-37.32 57 -38.64 57 -40 57 C-40 56.34 -40 55.68 -40 55 C-39.01 54.505 -39.01 54.505 -38 54 C-37.27840576 52.35636866 -36.60648579 50.68949614 -36 49 C-35.34 49 -34.68 49 -34 49 C-33.5978125 48.0409375 -33.5978125 48.0409375 -33.1875 47.0625 C-32 45 -32 45 -29 44 C-29 42.35 -29 40.7 -29 39 C-27.515 38.505 -27.515 38.505 -26 38 C-26 36.68 -26 35.36 -26 34 C-24.125 31.75 -24.125 31.75 -22 30 C-21.34 30 -20.68 30 -20 30 C-20 29.34 -20 28.68 -20 28 C-19.34 28 -18.68 28 -18 28 C-17.896875 27.2575 -17.79375 26.515 -17.6875 25.75 C-16.95066203 22.8026481 -16.05200858 21.21616926 -14 19 C-13.34 19 -12.68 19 -12 19 C-11.34 17.02 -10.68 15.04 -10 13 C-9.01 13 -8.02 13 -7 13 C-6.67 11.35 -6.34 9.7 -6 8 C-5.34 8 -4.68 8 -4 8 C-3.896875 7.4225 -3.79375 6.845 -3.6875 6.25 C-2.90207202 3.67950842 -1.69495803 2.06342716 0 0 Z " fill="#161616" transform="translate(280,127)"/>
<path d="M0 0 C0.495 0.99 0.495 0.99 1 2 C3.475 1.505 3.475 1.505 6 1 C5.67 1.66 5.34 2.32 5 3 C2.71484375 3.4140625 2.71484375 3.4140625 -0.0625 3.625 C-1.44115234 3.73714844 -1.44115234 3.73714844 -2.84765625 3.8515625 C-3.55792969 3.90054688 -4.26820313 3.94953125 -5 4 C-5 4.66 -5 5.32 -5 6 C-9.66550208 6.74866354 -14.1300094 7.12259115 -18.85327148 7.11352539 C-19.82040825 7.11374443 -19.82040825 7.11374443 -20.80708313 7.1139679 C-22.91178907 7.11327817 -25.01640351 7.10553042 -27.12109375 7.09765625 C-28.59082491 7.09578872 -30.06055669 7.0943664 -31.5302887 7.09336853 C-35.37879181 7.0895697 -39.22725656 7.07976221 -43.07574463 7.06866455 C-47.0107776 7.0583935 -50.94581683 7.05385876 -54.88085938 7.04882812 C-62.58725698 7.03813732 -70.29362309 7.02109292 -78 7 C-78 6.67 -78 6.34 -78 6 C-76.64455078 5.90912109 -76.64455078 5.90912109 -75.26171875 5.81640625 C-74.08222656 5.73261719 -72.90273438 5.64882812 -71.6875 5.5625 C-69.92986328 5.44068359 -69.92986328 5.44068359 -68.13671875 5.31640625 C-64.97409042 5.1132629 -64.97409042 5.1132629 -62 4 C-60.35044274 3.89958956 -58.6972439 3.85438788 -57.04467773 3.84228516 C-55.53181435 3.82689194 -55.53181435 3.82689194 -53.98838806 3.81118774 C-52.35251488 3.80023575 -52.35251488 3.80023575 -50.68359375 3.7890625 C-48.36913374 3.76097809 -46.05468072 3.73231353 -43.74023438 3.703125 C-40.09562493 3.66199001 -36.45114357 3.62509907 -32.80639648 3.59863281 C-29.28602169 3.57085865 -25.76623752 3.52496989 -22.24609375 3.4765625 C-21.16968124 3.47330963 -20.09326874 3.47005676 -18.98423767 3.46670532 C-12.19288256 3.35754142 -6.38715929 2.32477177 0 0 Z " fill="#1C1C1D" transform="translate(360,243)"/>
<path d="M0 0 C1.58206057 0.00667536 3.16410534 0.0186375 4.74609375 0.03515625 C5.55240234 0.03966797 6.35871094 0.04417969 7.18945312 0.04882812 C9.18753131 0.06065107 11.18557158 0.07858711 13.18359375 0.09765625 C9.55163879 2.51895956 7.80010027 2.3078841 3.49609375 2.22265625 C2.31660156 2.20460937 1.13710938 2.1865625 -0.078125 2.16796875 C-0.98175781 2.14476562 -1.88539063 2.1215625 -2.81640625 2.09765625 C-3.12578125 2.71640625 -3.43515625 3.33515625 -3.75390625 3.97265625 C-4.44140625 5.34765625 -5.12890625 6.72265625 -5.81640625 8.09765625 C-6.47640625 8.09765625 -7.13640625 8.09765625 -7.81640625 8.09765625 C-7.81640625 9.08765625 -7.81640625 10.07765625 -7.81640625 11.09765625 C-8.47640625 11.09765625 -9.13640625 11.09765625 -9.81640625 11.09765625 C-10.07679688 11.82984375 -10.3371875 12.56203125 -10.60546875 13.31640625 C-11.84282945 16.15834437 -13.25152013 18.19185861 -15.19140625 20.59765625 C-16.11953125 21.76167969 -16.11953125 21.76167969 -17.06640625 22.94921875 C-18.43476791 24.62912704 -19.81148748 26.30222826 -21.19140625 27.97265625 C-22.99556953 30.09334648 -22.99556953 30.09334648 -23.81640625 33.09765625 C-24.80640625 32.76765625 -25.79640625 32.43765625 -26.81640625 32.09765625 C-25.06220278 28.24603559 -22.7070425 24.82286231 -20.31640625 21.34765625 C-19.91292969 20.74566406 -19.50945312 20.14367187 -19.09375 19.5234375 C-18.05420354 18.01043423 -16.94051782 16.54893462 -15.81640625 15.09765625 C-15.15640625 15.09765625 -14.49640625 15.09765625 -13.81640625 15.09765625 C-13.55988281 14.370625 -13.30335938 13.64359375 -13.0390625 12.89453125 C-11.758378 9.9649143 -10.25212396 7.83395637 -8.25390625 5.34765625 C-7.63386719 4.5690625 -7.01382812 3.79046875 -6.375 2.98828125 C-3.99581056 0.10224694 -3.99581056 0.10224694 0 0 Z " fill="#282828" transform="translate(284.81640625,246.90234375)"/>
<path d="M0 0 C0.66 0.33 1.32 0.66 2 1 C1.67 2.65 1.34 4.3 1 6 C-11.54 6 -24.08 6 -37 6 C-37 5.01 -37 4.02 -37 3 C-24.79 3 -12.58 3 0 3 C0 2.01 0 1.02 0 0 Z " fill="#1E1D1E" transform="translate(207,372)"/>
<path d="M0 0 C2.475 0.495 2.475 0.495 5 1 C5 1.66 5 2.32 5 3 C6.65 3.33 8.3 3.66 10 4 C10 4.66 10 5.32 10 6 C10.639375 6.268125 11.27875 6.53625 11.9375 6.8125 C14 8 14 8 15 11 C15.99 11.33 16.98 11.66 18 12 C20.02532117 15.97563044 21 18.5050702 21 23 C21.66 23 22.32 23 23 23 C23.98248524 27.0527516 24.08159574 30.83861737 24 35 C20.79542644 32.41828722 20.19972654 29.78524499 19.1875 25.875 C16.29641812 16.09314401 12.11797143 10.24571273 3.7578125 4.41015625 C3.17773438 3.94480469 2.59765625 3.47945312 2 3 C2 2.34 2 1.68 2 1 C1.34 0.67 0.68 0.34 0 0 Z " fill="#202020" transform="translate(364,165)"/>
<path d="M0 0 C0.66 0 1.32 0 2 0 C2.39832031 0.83015625 2.79664063 1.6603125 3.20703125 2.515625 C5.55868611 7.08572551 8.24348846 11.41719376 10.94726562 15.78515625 C14 20.78783097 14 20.78783097 14 23 C13.34 23 12.68 23 12 23 C12 22.34 12 21.68 12 21 C11.34 21 10.68 21 10 21 C9.67 19.68 9.34 18.36 9 17 C8.34 17 7.68 17 7 17 C7 16.01 7 15.02 7 14 C6.34 14 5.68 14 5 14 C4.67 12.02 4.34 10.04 4 8 C3.34 8 2.68 8 2 8 C0.3125 5.6875 0.3125 5.6875 -1 3 C-0.67 2.01 -0.34 1.02 0 0 Z " fill="#1E1E1E" transform="translate(139,155)"/>
<path d="M0 0 C0.78826172 0.02707031 1.57652344 0.05414063 2.38867188 0.08203125 C4.32280157 0.15236324 6.25551304 0.25997542 8.1875 0.375 C4.55554504 2.79630331 2.80400652 2.58522785 -1.5 2.5 C-2.67949219 2.48195312 -3.85898437 2.46390625 -5.07421875 2.4453125 C-5.97785156 2.42210937 -6.88148438 2.39890625 -7.8125 2.375 C-8.2765625 3.303125 -8.2765625 3.303125 -8.75 4.25 C-9.4375 5.625 -10.125 7 -10.8125 8.375 C-11.4725 8.375 -12.1325 8.375 -12.8125 8.375 C-12.8125 9.365 -12.8125 10.355 -12.8125 11.375 C-13.8025 11.375 -14.7925 11.375 -15.8125 11.375 C-12.88045688 2.31232125 -9.14439407 -0.59787321 0 0 Z " fill="#2E2E2E" transform="translate(289.8125,246.625)"/>
<path d="M0 0 C8.01210312 0.15710006 14.35468011 3.68901344 21 8 C21.99 9.485 21.99 9.485 23 11 C22.01 11.33 21.02 11.66 20 12 C20 11.34 20 10.68 20 10 C17.525 9.505 17.525 9.505 15 9 C15 8.34 15 7.68 15 7 C12.03 6.505 12.03 6.505 9 6 C9 5.34 9 4.68 9 4 C7.88625 3.8453125 7.88625 3.8453125 6.75 3.6875 C3.82985982 2.95746496 2.26812446 1.93210602 0 0 Z " fill="#2B2B2B" transform="translate(372,127)"/>
<path d="M0 0 C0.66 0.33 1.32 0.66 2 1 C1.67 2.65 1.34 4.3 1 6 C-2.93743833 6.05797565 -6.87476719 6.09358789 -10.8125 6.125 C-11.93205078 6.14175781 -13.05160156 6.15851563 -14.20507812 6.17578125 C-15.27822266 6.18222656 -16.35136719 6.18867188 -17.45703125 6.1953125 C-18.9416687 6.21102295 -18.9416687 6.21102295 -20.45629883 6.22705078 C-23 6 -23 6 -26 4 C-17.42 4 -8.84 4 0 4 C0 2.68 0 1.36 0 0 Z " fill="#2B282A" transform="translate(207,372)"/>
<path d="M0 0 C10.75797202 0.21056529 10.75797202 0.21056529 14.6875 3.5625 C15.450625 4.366875 16.21375 5.17125 17 6 C14 7 14 7 10.25 5.625 C3.71753953 3.25251436 -3.12170275 3.26280714 -10 3 C-10 2.67 -10 2.34 -10 2 C-6.7 2 -3.4 2 0 2 C0 1.34 0 0.68 0 0 Z " fill="#191919" transform="translate(349,160)"/>
<path d="M0 0 C2 1 2 1 3 3 C3.12327929 5.10148182 3.17558006 7.20743907 3.1875 9.3125 C3.20167969 10.44300781 3.21585937 11.57351562 3.23046875 12.73828125 C3.00480137 15.93204843 2.36342654 18.1276429 1 21 C0.34 21 -0.32 21 -1 21 C-0.67 14.07 -0.34 7.14 0 0 Z " fill="#2B2B2E" transform="translate(385,197)"/>
<path d="M0 0 C0.99 0 1.98 0 3 0 C3.67408308 1.26691507 4.33900497 2.53870749 5 3.8125 C5.556875 4.87404297 5.556875 4.87404297 6.125 5.95703125 C7 8 7 8 7 11 C7.99 11.33 8.98 11.66 10 12 C11.1875 14.0625 11.1875 14.0625 12 16 C10.68 16.33 9.36 16.66 8 17 C6.65869239 14.73354942 5.32683766 12.46239903 4 10.1875 C3.42765625 9.22360352 3.42765625 9.22360352 2.84375 8.24023438 C0 3.33984375 0 3.33984375 0 0 Z " fill="#1C1C1C" transform="translate(157,262)"/>
<path d="M0 0 C2.375 0.25 2.375 0.25 5 1 C6.1875 2.75 6.1875 2.75 7 5 C8.13368699 8.74355897 8.13368699 8.74355897 11 11 C11 11.99 11 12.98 11 14 C11.66 14 12.32 14 13 14 C13 14.66 13 15.32 13 16 C11.68 16 10.36 16 9 16 C7.1484375 13.515625 7.1484375 13.515625 5.375 10.25 C4.78460938 9.18265625 4.19421875 8.1153125 3.5859375 7.015625 C2.36243429 4.68916077 1.15708057 2.35998612 0 0 Z " fill="#1A1A1A" transform="translate(76,132)"/>
<path d="M0 0 C0.33 0 0.66 0 1 0 C1.32417212 9.50904899 0.33418593 18.61304896 -1 28 C-1.33 28 -1.66 28 -2 28 C-2.0580966 24.0833957 -2.09362893 20.16690237 -2.125 16.25 C-2.14175781 15.13882812 -2.15851563 14.02765625 -2.17578125 12.8828125 C-2.18222656 11.81289063 -2.18867188 10.74296875 -2.1953125 9.640625 C-2.20578613 8.65610352 -2.21625977 7.67158203 -2.22705078 6.65722656 C-1.99489618 3.94026889 -1.39036273 2.31887487 0 0 Z " fill="#2F2F31" transform="translate(278,348)"/>
<path d="M0 0 C0.33 0 0.66 0 1 0 C1 7.59 1 15.18 1 23 C0.01 23.33 -0.98 23.66 -2 24 C-1.86116581 20.56217969 -1.71272946 17.12483971 -1.5625 13.6875 C-1.52318359 12.71103516 -1.48386719 11.73457031 -1.44335938 10.72851562 C-1.40146484 9.79072266 -1.35957031 8.85292969 -1.31640625 7.88671875 C-1.27974854 7.02264404 -1.24309082 6.15856934 -1.20532227 5.26831055 C-1 3 -1 3 0 0 Z " fill="#282828" transform="translate(168,352)"/>
<path d="M0 0 C5.64399805 3.22514174 10.20524489 6.65923355 14 12 C14 12.66 14 13.32 14 14 C11.5625 13.25 11.5625 13.25 9 12 C8.66666667 10.66666667 8.33333333 9.33333333 8 8 C6.3523962 7.28752268 4.68236471 6.62599617 3 6 C0.6875 3.875 0.6875 3.875 -1 2 C-0.67 1.34 -0.34 0.68 0 0 Z " fill="#222122" transform="translate(395,137)"/>
<path d="M0 0 C2.94720751 3.45534674 5.36766537 6.73779291 7 11 C6.1875 13.375 6.1875 13.375 5 15 C4.34 13.02 3.68 11.04 3 9 C2.34 9 1.68 9 1 9 C0.67 7.35 0.34 5.7 0 4 C-0.66 4 -1.32 4 -2 4 C-2 3.34 -2 2.68 -2 2 C-1.34 2 -0.68 2 0 2 C0 1.34 0 0.68 0 0 Z " fill="#1B1B1B" transform="translate(168,203)"/>
<path d="M0 0 C0 4.62 0 9.24 0 14 C-0.99 14 -1.98 14 -3 14 C-3 9.71 -3 5.42 -3 1 C-1 0 -1 0 0 0 Z " fill="#111011" transform="translate(428,195)"/>
<path d="M0 0 C0.66 0.33 1.32 0.66 2 1 C-0.1772135 6.20112114 -2.60708214 8.68090651 -7 12 C-7 8.19654123 -5.86213669 7.22298985 -3.5 4.3125 C-2.8503125 3.50425781 -2.200625 2.69601563 -1.53125 1.86328125 C-1.0259375 1.24839844 -0.520625 0.63351563 0 0 Z " fill="#2B2B2B" transform="translate(308,126)"/>
<path d="M0 0 C0.66 0 1.32 0 2 0 C1.55530671 5.03985731 -0.71343362 7.37634988 -4 11 C-4.66 10.67 -5.32 10.34 -6 10 C-6 9.34 -6 8.68 -6 8 C-5.01 8 -4.02 8 -3 8 C-2.87625 7.05125 -2.7525 6.1025 -2.625 5.125 C-2 2 -2 2 0 0 Z " fill="#232322" transform="translate(276,218)"/>
<path d="M0 0 C0.66 0 1.32 0 2 0 C1.35494404 3.48330216 0.01782732 6.09432866 -2 9 C-2.66 9 -3.32 9 -4 9 C-4.33 9.66 -4.66 10.32 -5 11 C-5.33 10.34 -5.66 9.68 -6 9 C-5.67 8.01 -5.34 7.02 -5 6 C-4.34 6 -3.68 6 -3 6 C-3 5.01 -3 4.02 -3 3 C-2.01 3 -1.02 3 0 3 C0 2.01 0 1.02 0 0 Z " fill="#242424" transform="translate(226,287)"/>
<path d="M0 0 C0.33 0.99 0.66 1.98 1 3 C0.67 3.66 0.34 4.32 0 5 C-0.66 5 -1.32 5 -2 5 C-2.33 6.32 -2.66 7.64 -3 9 C-3.66 9 -4.32 9 -5 9 C-5 9.99 -5 10.98 -5 12 C-5.99 11.67 -6.98 11.34 -8 11 C-5.36 7.37 -2.72 3.74 0 0 Z " fill="#303030" transform="translate(211,258)"/>
<path d="M0 0 C0.99 0.495 0.99 0.495 2 1 C2 1.66 2 2.32 2 3 C2.66 3 3.32 3 4 3 C4.33 4.32 4.66 5.64 5 7 C5.66 7 6.32 7 7 7 C7 7.99 7 8.98 7 10 C6.01 10 5.02 10 4 10 C0 3.375 0 3.375 0 0 Z " fill="#2A2A2A" transform="translate(129,216)"/>
<path d="M0 0 C0.33 0.99 0.66 1.98 1 3 C0.34 3 -0.32 3 -1 3 C-1.268125 3.78375 -1.53625 4.5675 -1.8125 5.375 C-3 8 -3 8 -6 10 C-6.33 9.01 -6.66 8.02 -7 7 C-6.34 7 -5.68 7 -5 7 C-4.67 5.68 -4.34 4.36 -4 3 C-3.34 3 -2.68 3 -2 3 C-2 2.34 -2 1.68 -2 1 C-1.34 0.67 -0.68 0.34 0 0 Z " fill="#212121" transform="translate(242,183)"/>
<path d="M0 0 C0.66 0.99 1.32 1.98 2 3 C0.35 5.31 -1.3 7.62 -3 10 C-3.66 9.67 -4.32 9.34 -5 9 C-4.75 7.125 -4.75 7.125 -4 5 C-1.9375 3.75 -1.9375 3.75 0 3 C0 2.01 0 1.02 0 0 Z " fill="#1C1C1E" transform="translate(251,168)"/>
<path d="M0 0 C0.66 0 1.32 0 2 0 C4.32590854 3.63423209 4.16265833 6.77088331 4 11 C1.9656541 9.58480285 1.09589607 8.45017877 0.578125 6.01953125 C0.33726048 4.01823046 0.16467259 2.0090056 0 0 Z " fill="#242425" transform="translate(384,189)"/>
<path d="M0 0 C0.99 0 1.98 0 3 0 C7 6.75 7 6.75 7 9 C6.34 9 5.68 9 5 9 C5 8.34 5 7.68 5 7 C4.34 7 3.68 7 3 7 C2.67 5.68 2.34 4.36 2 3 C1.34 3 0.68 3 0 3 C0 2.01 0 1.02 0 0 Z " fill="#252425" transform="translate(146,169)"/>
<path d="M0 0 C0.99 0 1.98 0 3 0 C1.73058503 3.91402949 0.48832306 5.79072873 -3 8 C-3.33 7.01 -3.66 6.02 -4 5 C-3.34 4.67 -2.68 4.34 -2 4 C-0.86649466 1.98330173 -0.86649466 1.98330173 0 0 Z " fill="#242323" transform="translate(410,252)"/>
<path d="M0 0 C1 2 1 2 0.22265625 4.6015625 C-0.16019531 5.59929687 -0.54304688 6.59703125 -0.9375 7.625 C-1.50791016 9.12933594 -1.50791016 9.12933594 -2.08984375 10.6640625 C-2.39019531 11.43492187 -2.69054687 12.20578125 -3 13 C-3.66 13 -4.32 13 -5 13 C-4.34259641 10.18707119 -3.51469937 7.51667383 -2.5 4.8125 C-2.11328125 3.77029297 -2.11328125 3.77029297 -1.71875 2.70703125 C-1 1 -1 1 0 0 Z " fill="#282627" transform="translate(424,227)"/>
<path d="M0 0 C2.97 0.495 2.97 0.495 6 1 C5.67 1.66 5.34 2.32 5 3 C0.05 3 -4.9 3 -10 3 C-10 2.67 -10 2.34 -10 2 C-6.7 2 -3.4 2 0 2 C0 1.34 0 0.68 0 0 Z " fill="#121113" transform="translate(349,160)"/>
<path d="M0 0 C0.33 0.66 0.66 1.32 1 2 C0.34 2 -0.32 2 -1 2 C-1 2.66 -1 3.32 -1 4 C-3.90548882 6.04169485 -5.40142046 7 -9 7 C-9 6.34 -9 5.68 -9 5 C-6.03 3.35 -3.06 1.7 0 0 Z " fill="#292829" transform="translate(370,238)"/>
<path d="M0 0 C0.99 0 1.98 0 3 0 C3 0.99 3 1.98 3 3 C3.66 3 4.32 3 5 3 C5 2.34 5 1.68 5 1 C5.66 1 6.32 1 7 1 C6.67 2.32 6.34 3.64 6 5 C4.68 5 3.36 5 2 5 C1.34 3.35 0.68 1.7 0 0 Z " fill="#2B2B2B" transform="translate(166,278)"/>
<path d="M0 0 C-1.5 2.0625 -1.5 2.0625 -4 4 C-6.82406647 4.05928384 -9.20225927 3.55954815 -12 3 C-3.7826087 -1.26086957 -3.7826087 -1.26086957 0 0 Z " fill="#191919" transform="translate(381,278)"/>
<path d="M0 0 C0.99 0.66 1.98 1.32 3 2 C1.02 4.97 1.02 4.97 -1 8 C-1.66 7.67 -2.32 7.34 -3 7 C-2.38722388 4.03824877 -1.74627478 2.61941217 0 0 Z " fill="#1D1D1D" transform="translate(239,219)"/>
<path d="M0 0 C0.99 0.33 1.98 0.66 3 1 C2.25 2.9375 2.25 2.9375 1 5 C-1.125 5.75 -1.125 5.75 -3 6 C-3 6.66 -3 7.32 -3 8 C-3.66 7.67 -4.32 7.34 -5 7 C-3.35 4.69 -1.7 2.38 0 0 Z " fill="#282829" transform="translate(273,173)"/>
<path d="M0 0 C0.66 0 1.32 0 2 0 C1.67 1.65 1.34 3.3 1 5 C0.34 5 -0.32 5 -1 5 C-1 5.66 -1 6.32 -1 7 C-1.99 7.33 -2.98 7.66 -4 8 C-2.87548273 5.0280615 -1.77706209 2.66559313 0 0 Z " fill="#2B2B2B" transform="translate(190,195)"/>
<path d="M0 0 C0.66 0 1.32 0 2 0 C2 0.66 2 1.32 2 2 C2.66 2 3.32 2 4 2 C4 1.34 4 0.68 4 0 C4.66 0 5.32 0 6 0 C5.67 1.65 5.34 3.3 5 5 C3.68 5 2.36 5 1 5 C0.67 3.35 0.34 1.7 0 0 Z " fill="#282827" transform="translate(173,214)"/>
<path d="M0 0 C0.99 1.32 1.98 2.64 3 4 C1.68 5.32 0.36 6.64 -1 8 C-2.2077558 4.37673261 -1.54311128 3.35853631 0 0 Z " fill="#181818" transform="translate(269,226)"/>
<path d="M0 0 C0 3.63 0 7.26 0 11 C-0.33 11 -0.66 11 -1 11 C-1.66 7.7 -2.32 4.4 -3 1 C-1 0 -1 0 0 0 Z " fill="#1B1319" transform="translate(428,195)"/>
<path d="M0 0 C0.33 0 0.66 0 1 0 C1.25 2.3125 1.25 2.3125 1 5 C-1 6.8125 -1 6.8125 -3 8 C-3.66 7.67 -4.32 7.34 -5 7 C-3.625 5 -3.625 5 -2 3 C-1.34 3 -0.68 3 0 3 C0 2.01 0 1.02 0 0 Z " fill="#2A2A2B" transform="translate(229,232)"/>
<path d="M0 0 C0.99 0.33 1.98 0.66 3 1 C4.1875 4.0625 4.1875 4.0625 5 7 C4.01 6.67 3.02 6.34 2 6 C0.8125 2.9375 0.8125 2.9375 0 0 Z " fill="#292929" transform="translate(121,204)"/>
<path d="M0 0 C0.33 0.99 0.66 1.98 1 3 C1.66 3.33 2.32 3.66 3 4 C2.01 4.66 1.02 5.32 0 6 C-1.32 5.34 -2.64 4.68 -4 4 C-2.68 2.68 -1.36 1.36 0 0 Z " fill="#101010" transform="translate(258,157)"/>
</svg>
