<?xml version="1.0" encoding="UTF-8"?>
<svg version="1.1" xmlns="http://www.w3.org/2000/svg" width="2048" height="2048">
<path d="M0 0 C675.84 0 1351.68 0 2048 0 C2048 675.84 2048 1351.68 2048 2048 C1372.16 2048 696.32 2048 0 2048 C0 1372.16 0 696.32 0 0 Z " fill="#EBEBE9" transform="translate(0,0)"/>
<path d="M0 0 C12.44165071 -0.07022164 24.88325252 -0.12317107 37.32506275 -0.15543652 C43.10537136 -0.17094016 48.88554216 -0.19189008 54.66577148 -0.22631836 C85.73676773 -0.4063568 115.47607021 -0.25665892 145.77783203 7.4375 C147.66849142 7.91608484 149.56606031 8.36723849 151.46484375 8.8125 C165.3705828 12.09761419 178.26387536 16.56812944 191 23 C192.01513672 23.50273438 192.01513672 23.50273438 193.05078125 24.015625 C211.14290022 33.01133536 227.99962888 44.32939835 242 59 C242.78375 59.78375 243.5675 60.5675 244.375 61.375 C245.24125 62.24125 246.1075 63.1075 247 64 C247.62261719 64.57621094 248.24523438 65.15242187 248.88671875 65.74609375 C264.94949562 81.00140607 276.77576975 101.01932676 286 121 C286.76570313 122.62615234 286.76570313 122.62615234 287.546875 124.28515625 C291.34300076 133.01012273 293.79926911 142.0778447 296.25 151.25 C296.42289551 151.89543762 296.59579102 152.54087524 296.77392578 153.20587158 C311.24532808 207.59975392 305.63680915 270.80917037 277.375 320.08984375 C249.87343946 366.07048187 210.32288931 399.39459629 159 416 C158.17693359 416.27255615 157.35386719 416.5451123 156.50585938 416.82592773 C142.83330984 421.32327479 129.32886615 424.5373138 115.08691406 426.63037109 C112.81613684 426.98021653 112.81613684 426.98021653 110 428 C99.92432962 429.38680867 89.70863446 429.13551279 79.56347656 429.11352539 C77.69972613 429.11321852 75.83597557 429.11335345 73.97222519 429.11389065 C69.01287598 429.11411501 64.05355124 429.10834877 59.09420776 429.10128021 C54.42852711 429.09555555 49.76285219 429.09531548 45.09716797 429.09460449 C31.48144211 429.08937181 17.86572074 429.07541055 4.25 429.0625 C-26.1925 429.041875 -56.635 429.02125 -88 429 C-88 506.22 -88 583.44 -88 663 C-122.65 663.33 -157.3 663.66 -193 664 C-193.32242427 619.26363202 -193.32242427 619.26363202 -193.390625 600.50390625 C-193.43807795 587.5552432 -193.49383506 574.60699688 -193.60351562 561.65869141 C-193.68336096 552.22806332 -193.73489124 542.79777359 -193.75270796 533.36681688 C-193.7631197 528.37497394 -193.78751314 523.3840988 -193.84584045 518.39256668 C-193.90035329 513.68913147 -193.91685062 508.98705776 -193.90486145 504.28333664 C-193.90705301 502.56202532 -193.92284303 500.84066603 -193.9536438 499.11962891 C-194.20187239 484.52734692 -194.20187239 484.52734692 -189.13415527 478.16122437 C-187.77195163 476.75858244 -186.39489776 475.3701326 -185 474 C-183.95185657 472.60928868 -182.92786059 471.19952329 -181.9453125 469.76171875 C-181.48133057 469.09406494 -181.01734863 468.42641113 -180.53930664 467.73852539 C-180.07258545 467.06168701 -179.60586426 466.38484863 -179.125 465.6875 C-174.78713245 459.46818067 -170.29747241 453.43089454 -165.63671875 447.44921875 C-160.23153243 440.44557918 -155.15610592 433.18751291 -150 426 C-143.04395944 416.32430448 -135.87796288 406.80789439 -128.71679688 397.28369141 C-125.88832946 393.52125054 -123.06555654 389.754549 -120.2421875 385.98828125 C-118.51982432 383.69279722 -116.79564979 381.39871571 -115.0703125 379.10546875 C-109.31400447 371.45026564 -103.60397752 363.7677909 -98 356 C-96.95590601 354.55846565 -95.91161861 353.11707137 -94.8671875 351.67578125 C-93.72379402 350.09647311 -92.58056767 348.51704396 -91.4375 346.9375 C-90.59300293 345.77093872 -90.59300293 345.77093872 -89.73144531 344.58081055 C-86.17118034 339.65221916 -82.67204541 334.69151028 -79.26953125 329.65234375 C-78 328 -78 328 -76 327 C-73.78763892 326.8998899 -71.57217944 326.86652728 -69.3575592 326.86196899 C-68.6668851 326.85914771 -67.97621099 326.85632643 -67.26460737 326.85341966 C-64.93819383 326.84505286 -62.61182777 326.84373354 -60.28540039 326.84228516 C-58.62137213 326.83761785 -56.95734514 326.83247443 -55.2933197 326.82688904 C-51.70074139 326.8155909 -48.10817146 326.80716443 -44.51558113 326.80076981 C-38.81833444 326.79008293 -33.12114703 326.76983036 -27.42393494 326.74765015 C-11.21925615 326.68576807 4.98542098 326.63190537 21.19018555 326.59863281 C30.13351058 326.58018914 39.07673792 326.55112194 48.01999098 326.5106281 C52.74620547 326.48969938 57.47229748 326.47412133 62.19856071 326.47182083 C66.66131514 326.46964648 71.12381579 326.45349907 75.58649254 326.42743111 C77.20879458 326.42033795 78.83112773 326.41808739 80.45344162 326.42153358 C95.68583684 326.44867786 111.09960406 325.00192809 125.5625 319.9375 C126.42617187 319.64004883 127.28984375 319.34259766 128.1796875 319.03613281 C153.53294841 309.89522432 172.91428767 293.26037047 184.51953125 268.796875 C199.03047013 236.02786871 202.04169884 199.03225347 189.75195312 164.85888672 C187.74652794 159.90131939 184.86748568 155.48794852 182 151 C181.19813228 149.48452044 180.40573602 147.96397352 179.625 146.4375 C176.53549298 140.80612433 171.84695103 132.92347552 166 130 C166 129.34 166 128.68 166 128 C165.42378906 127.73316406 164.84757812 127.46632813 164.25390625 127.19140625 C161.92815709 125.96202411 160.02288149 124.53843715 157.9375 122.9375 C145.95586792 114.47260064 131.94358928 109.23925975 118 105 C117.10240967 104.67128906 116.20481934 104.34257813 115.2800293 104.00390625 C111.63620066 102.8886533 108.09496105 102.34621907 104.3203125 101.96484375 C103.12125778 101.84350319 103.12125778 101.84350319 101.89797974 101.7197113 C89.6029346 100.5833152 77.25775081 100.10422139 64.91823959 99.77128029 C60.98124082 99.66428625 57.04897222 99.53108295 53.11523438 99.33666992 C49.2486782 99.14611581 45.38499198 99.02090645 41.51462173 98.9409008 C40.05870671 98.9000585 38.60322192 98.83681464 37.14934921 98.74957466 C32.49163013 98.48021791 28.4423516 98.51210404 24 100 C20.04399268 103.92514657 17.65308874 108.09323906 15 113 C13.87884504 114.60627221 12.73531733 116.19769291 11.55078125 117.7578125 C11.0199292 118.47573975 10.48907715 119.19366699 9.94213867 119.93334961 C9.40435791 120.65659424 8.86657715 121.37983887 8.3125 122.125 C7.10669679 123.75385144 5.90096993 125.3827594 4.6953125 127.01171875 C4.08719727 127.8320459 3.47908203 128.65237305 2.85253906 129.49755859 C0.38961918 132.82451284 -2.06261698 136.15927245 -4.51513672 139.49389648 C-8.83763913 145.37055046 -13.16745192 151.23986332 -17.5625 157.0625 C-20.65177532 161.15865023 -23.65915681 165.30590122 -26.64282227 169.47900391 C-31.77950404 176.65789035 -37.04651852 183.6659241 -42.61157227 190.51782227 C-47.55751665 196.63002345 -52.19033749 202.95412023 -56.79199219 209.32763672 C-58.47812383 211.66191355 -60.17752593 213.98646335 -61.875 216.3125 C-66.00330415 221.99528905 -70.11379446 227.69097497 -74.22216797 233.38818359 C-77.1296732 237.41856415 -80.05325662 241.43567265 -83 245.4375 C-86.59358133 250.36063044 -90.01160409 255.39723075 -93.4375 260.4375 C-97.8004425 266.85344481 -102.25461018 273.14683898 -106.9609375 279.31640625 C-108.99590116 281.99460555 -110.97176914 284.70818842 -112.9375 287.4375 C-115.80015856 291.39553482 -118.74844307 295.27132642 -121.75 299.125 C-126.66634564 305.45605306 -131.27088539 311.98822584 -135.87109375 318.55078125 C-144.12580659 330.31846809 -152.64638001 341.8947615 -161.1887207 353.4543457 C-164.56303581 358.02757417 -167.88022701 362.63019597 -171.11328125 367.3046875 C-181.45030033 382.07185762 -192.16863917 396.59236121 -203 411 C-211.34192326 422.09978319 -219.52921006 433.29241154 -227.51293945 444.65283203 C-233.97083566 453.82637249 -240.62038965 462.85556678 -247.375 471.8125 C-251.2462957 476.95789301 -255.03920246 482.1573604 -258.8125 487.375 C-259.36405762 488.13659424 -259.91561523 488.89818848 -260.48388672 489.68286133 C-261.01127441 490.41400146 -261.53866211 491.1451416 -262.08203125 491.8984375 C-262.54843018 492.54474121 -263.0148291 493.19104492 -263.49536133 493.85693359 C-263.99189209 494.56414551 -264.48842285 495.27135742 -265 496 C-265.68032917 496.89247248 -266.36065834 497.78494495 -267.06160355 498.70446205 C-269.27466857 502.46697397 -269.50556156 504.54360227 -269.51898193 508.87167358 C-269.52648319 509.53833562 -269.53398444 510.20499765 -269.541713 510.89186156 C-269.56191588 513.11231131 -269.55390286 515.33173267 -269.54589844 517.55224609 C-269.55463755 519.14918015 -269.56512452 520.74610545 -269.57722473 522.34301758 C-269.60506416 526.6690404 -269.60848988 530.99477721 -269.60750484 535.3208766 C-269.61063572 539.84529989 -269.63625756 544.3695947 -269.65948486 548.89395142 C-269.70003503 557.4573308 -269.72038326 566.02063404 -269.73345876 574.58409464 C-269.75230102 586.15879655 -269.80238 597.73336069 -269.85070229 609.30797005 C-269.92598973 627.53863955 -269.95956785 645.76914273 -270 664 C-304.98 664 -339.96 664 -376 664 C-376.28212124 626.99733647 -376.28212124 626.99733647 -376.34179688 611.47460938 C-376.38331008 600.76237493 -376.43207444 590.05052629 -376.52807617 579.33862305 C-376.59796519 571.53664794 -376.64303553 563.73498623 -376.65861946 555.93270677 C-376.66772572 551.80333071 -376.6890434 547.67485104 -376.7401104 543.54576302 C-376.78784814 539.65410506 -376.80223676 535.76370717 -376.79175377 531.87178421 C-376.79366968 530.44838154 -376.80746315 529.02493399 -376.83443832 527.60178566 C-376.98228212 519.39498714 -376.52062506 514.02266926 -370.80658054 507.86739254 C-370.21040896 507.251153 -369.61423738 506.63491346 -369 506 C-367.94286704 504.59833894 -366.90446574 503.18213559 -365.89453125 501.74609375 C-365.39219971 501.04516602 -364.88986816 500.34423828 -364.37231445 499.62207031 C-363.85757568 498.90116211 -363.34283691 498.18025391 -362.8125 497.4375 C-358.06077366 490.81693134 -353.22538826 484.2690044 -348.31420898 477.76611328 C-344.67353193 472.93237448 -341.14756056 468.02680966 -337.65429688 463.0859375 C-334.39878556 458.50410676 -330.99222085 454.05387553 -327.54296875 449.61694336 C-324.46273174 445.64053771 -321.54933136 441.57519204 -318.69140625 437.4375 C-313.27684775 429.63453348 -307.55394129 422.05458449 -301.8449707 414.46630859 C-297.26494648 408.37146822 -292.74329627 402.23466679 -288.22998047 396.09033203 C-284.86643081 391.51638939 -281.47612146 386.96463009 -278.0546875 382.43383789 C-274.10790143 377.20719736 -270.2281894 371.98898893 -266.65625 366.49609375 C-259.50539514 355.71921579 -251.78591681 345.32639988 -244.07226562 334.94995117 C-240.56265196 330.20179291 -237.21372392 325.38974123 -234 320.4375 C-229.80141251 313.9852909 -225.16025047 307.95233733 -220.39160156 301.91308594 C-215.62987594 295.86608153 -211.10182806 289.6779999 -206.62719727 283.41674805 C-203.37562216 278.87653949 -200.05530446 274.40662188 -196.625 270 C-193.19775771 265.59116889 -189.9126125 261.12453989 -186.765625 256.51171875 C-184.77783805 253.68395988 -182.70320184 250.93070282 -180.62353516 248.17016602 C-177.89284269 244.52007198 -175.22815406 240.82272439 -172.5625 237.125 C-171.98757813 236.32835937 -171.41265625 235.53171875 -170.8203125 234.7109375 C-168.0203881 230.82532813 -165.2336713 226.93264994 -162.5 223 C-151.72470295 207.51549906 -140.47876688 192.35815253 -128.9375 177.4375 C-124.88281038 172.18719677 -120.93881812 166.86489518 -117.02832031 161.5065918 C-114.27450802 157.73390772 -111.49757352 153.98115317 -108.6875 150.25 C-102.96921112 142.64948365 -97.33964126 134.98371512 -91.70605469 127.3203125 C-90.14108758 125.19188557 -88.57462591 123.0645679 -87.0078125 120.9375 C-82.6914278 115.07152791 -78.40613734 109.18670797 -74.1875 103.25 C-69.03175558 95.9963866 -63.74635106 88.84011325 -58.45703125 81.68359375 C-56.30022336 78.76513886 -54.15030727 75.84198764 -52.01171875 72.91015625 C-47.37337671 66.55184323 -42.67383861 60.26382642 -37.83886719 54.05322266 C-33.87849625 48.92281294 -30.17816247 43.61870107 -26.46777344 38.30615234 C-23.35421167 33.8660731 -20.15193301 29.5224039 -16.8125 25.25 C-10.56714234 17.22169346 -4.49173105 9.15582384 0 0 Z " fill="#010101" transform="translate(1184,692)"/>
<path d="M0 0 C16.23859555 -0.30994847 32.47391949 -0.51807032 48.71514606 -0.59327984 C56.25746662 -0.63073695 63.7963042 -0.70340444 71.3371582 -0.8605957 C77.9143246 -0.99760751 84.48822976 -1.06689574 91.06687421 -1.05671436 C94.54838954 -1.05364415 98.02237751 -1.08319762 101.5022831 -1.194067 C122.62458545 -1.83513137 122.62458545 -1.83513137 128.22668648 2.87027359 C131.90421678 7.38821188 134.16905731 12.33537165 136.15315819 17.77828407 C137.25938398 20.68050197 138.7742994 23.23630863 140.42578125 25.859375 C140.9048291 26.67245117 141.38387695 27.48552734 141.87744141 28.32324219 C142.58779541 29.5244873 142.58779541 29.5244873 143.3125 30.75 C143.84536621 31.65137695 144.37823242 32.55275391 144.92724609 33.48144531 C152.10303059 45.58653652 159.40756723 57.61849178 166.8359375 69.5703125 C172.78958106 79.17425469 178.38231202 88.94540103 183.87451172 98.82055664 C191.15314874 111.90151279 198.82495356 124.73273677 206.53955078 137.55981445 C210.13133075 143.5359421 213.67926674 149.53627808 217.20214844 155.55322266 C219.98904037 160.304773 222.81842828 165.02926346 225.6640625 169.74584961 C229.69071712 176.42119499 233.67445832 183.08887148 237.3515625 189.96484375 C248.5915569 210.66028368 260.86699382 230.82086512 273 251 C275.53251698 247.66675085 277.82129907 244.22060023 280.0625 240.6875 C285.89875239 231.55608707 291.87152384 222.51838832 298.03125 213.6015625 C309.00717562 197.70760057 319.28202633 181.39161765 329.5 165.00390625 C336.23409376 154.21034871 342.97393933 143.42721893 350.08203125 132.875 C352.21953632 129.67091908 354.30136687 126.43305004 356.375 123.1875 C359.50320943 118.29208166 362.69666152 113.44650444 365.9375 108.625 C370.67247614 101.56546477 375.17827427 94.37600162 379.65966797 87.15380859 C386.79360299 75.69013378 394.06009923 64.31178889 401.4140625 52.98828125 C403.44101211 49.86671875 405.45290679 46.73590041 407.45849609 43.60058594 C410.93250113 38.17062849 414.46848856 32.7888119 418.0625 27.4375 C423.81362942 18.85752684 429.37503861 10.24992279 434 1 C475.91 1 517.82 1 561 1 C559.14331437 4.09447604 557.37918624 6.96623531 555.28515625 9.86328125 C554.77025635 10.57669678 554.25535645 11.2901123 553.72485352 12.02514648 C553.17627686 12.77997314 552.6277002 13.5347998 552.0625 14.3125 C551.4862085 15.10793213 550.90991699 15.90336426 550.31616211 16.72290039 C546.60786418 21.82707246 542.85606539 26.89645488 539.0625 31.9375 C530.03336226 43.93643371 521.01738722 55.918179 512.625 68.375 C507.24990106 76.34982543 501.53262859 84.0188769 495.64306641 91.62060547 C491.8276484 96.55197249 488.1670099 101.55480252 484.61669922 106.68041992 C482.38978284 109.87551695 480.07285017 112.99941314 477.75 116.125 C472.38443492 123.39172745 467.2659517 130.81512604 462.17675781 138.27685547 C453.68945724 150.70493999 444.95470555 163.01508597 435.6875 174.875 C432.71064114 178.70443124 429.90265629 182.56469735 427.25 186.625 C423.78115017 191.92947861 420.0860741 197.03331222 416.3125 202.125 C415.41132446 203.34110962 415.41132446 203.34110962 414.49194336 204.58178711 C413.58327515 205.8078064 413.58327515 205.8078064 412.65625 207.05859375 C405.07329715 217.29035879 397.60072774 227.59448712 390.4375 238.125 C386.3109795 244.19059613 381.99125409 250.0777764 377.55712891 255.92138672 C373.87147685 260.79388308 370.31681034 265.74575556 366.8125 270.75 C362.77587797 276.51291109 358.64875908 282.18469244 354.3984375 287.79296875 C351.43136783 291.73262009 348.56526723 295.74493839 345.6875 299.75 C341.38208033 305.74196171 337.01270391 311.67730958 332.5625 317.5625 C329.10429771 322.1382216 325.78890115 326.74058063 322.66796875 331.5546875 C319.83406774 335.70930585 316.77112586 339.6934594 313.7409668 343.70605469 C310.22657777 348.36014313 306.75185706 353.0402114 303.3125 357.75 C300.05285651 362.21248318 296.76735518 366.65190236 293.4375 371.0625 C289.90926194 375.75019438 286.48237738 380.50329314 283.08837891 385.28833008 C279.39030733 390.48728375 275.60653978 395.62080691 271.8125 400.75 C267.11360089 407.10388505 262.46119498 413.47592162 258 420 C254.52977721 418.84325907 254.37116553 418.39610745 252.73046875 415.31640625 C252.32006348 414.5591626 251.9096582 413.80191895 251.48681641 413.02172852 C251.05804199 412.21018311 250.62926758 411.3986377 250.1875 410.5625 C249.28362922 408.89524893 248.37869051 407.22857636 247.47265625 405.5625 C247.04098145 404.76328125 246.60930664 403.9640625 246.16455078 403.140625 C243.09720145 397.50236107 239.69185106 392.08267227 236.25 386.66796875 C235.20818081 385.02874276 234.16651924 383.38941658 233.125 381.75 C232.5980957 380.92081055 232.07119141 380.09162109 231.52832031 379.23730469 C227.83598356 373.39778141 224.37156581 367.47719275 220.98828125 361.453125 C218.36915611 356.90438899 215.58161943 352.47233762 212.78295898 348.03271484 C209.94839802 343.53149932 207.16742378 339.00292808 204.4375 334.4375 C204.07309814 333.82849854 203.70869629 333.21949707 203.33325195 332.59204102 C201.42000866 329.38946574 199.51510109 326.18202553 197.61328125 322.97265625 C197.21761963 322.30758057 196.82195801 321.64250488 196.41430664 320.95727539 C195.66732058 319.70154311 194.92279499 318.44434204 194.18139648 317.18530273 C192.42067552 314.22846451 190.58867238 311.39623826 188.546875 308.625 C186.1544401 305.33660626 184.22766932 301.88709135 182.29052734 298.31640625 C180.13059946 294.43948689 177.71145918 290.73193272 175.3125 287 C170.91829549 280.11052234 166.69232811 273.14867411 162.59033203 266.08203125 C159.55026881 260.86979183 156.33563986 255.79396681 153.04003906 250.74047852 C150.65895327 247.07379756 148.49394665 243.35391809 146.421875 239.5078125 C144.08904716 235.39331945 141.5264222 231.42287267 139.00195312 227.42407227 C135.92199996 222.52543163 132.96648775 217.56708509 130.0625 212.5625 C126.28311019 206.06583877 122.2947444 199.73881351 118.18041992 193.44995117 C108.92539122 179.27019841 100.29539341 164.66591803 91.6875 150.0859375 C87.85979397 143.62295973 83.93275845 137.35994123 79.546875 131.25390625 C77.58192735 128.39083859 75.95180806 125.40518147 74.3125 122.34765625 C72.80974462 119.65969201 71.16974454 117.08738432 69.5 114.5 C67.33110178 111.13867722 65.27788584 107.76854364 63.375 104.25 C61.91607036 101.56024699 60.39238728 99.07646805 58.5625 96.625 C56.56918201 93.92022082 54.95129256 91.15490463 53.375 88.1875 C47.07479121 76.3948015 39.74742251 65.14504597 32.62988281 53.83374023 C30.22959653 50.00822448 27.89661273 46.15102993 25.60839844 42.25756836 C22.17007507 36.41772002 18.56224835 30.76820056 14.625 25.25 C14.20798828 24.66524902 13.79097656 24.08049805 13.36132812 23.47802734 C9.20382804 17.53250503 9.20382804 17.53250503 2.8125 14.8125 C1.554375 14.544375 0.29625 14.27625 -1 14 C-0.67 9.38 -0.34 4.76 0 0 Z " fill="#010101" transform="translate(558,691)"/>
<path d="M0 0 C4.02550319 1.3418344 4.88285636 3.4227573 7 7 C7 7.66 7 8.32 7 9 C7.66 9 8.32 9 9 9 C14 14.47619048 14 14.47619048 14 17 C14.53625 17.226875 15.0725 17.45375 15.625 17.6875 C18 19 18 19 20.5 21.3125 C27.59989784 27.43184929 37.49258509 30.17233088 46.703125 30.0625 C48.29640625 30.05089844 48.29640625 30.05089844 49.921875 30.0390625 C51.56929687 30.01972656 51.56929687 30.01972656 53.25 30 C55.44266044 29.97462199 57.6353764 29.9535445 59.828125 29.9375 C61.2807373 29.92009766 61.2807373 29.92009766 62.76269531 29.90234375 C65 30 65 30 66 31 C66.04080783 32.99958364 66.04254356 35.00045254 66 37 C64.02 37.99 64.02 37.99 62 39 C62 39.66 62 40.32 62 41 C60.44287109 42.20507812 60.44287109 42.20507812 58.2734375 43.53125 C57.48839844 44.01207031 56.70335937 44.49289062 55.89453125 44.98828125 C55.06308594 45.48714844 54.23164062 45.98601562 53.375 46.5 C52.56675781 46.99886719 51.75851562 47.49773437 50.92578125 48.01171875 C46.712775 50.56692417 42.79581478 52.69628336 38 54 C38 54.66 38 55.32 38 56 C37.50113281 56.21914062 37.00226563 56.43828125 36.48828125 56.6640625 C35.77027344 56.98117187 35.05226563 57.29828125 34.3125 57.625 C33.47460938 57.99367188 32.63671875 58.36234375 31.7734375 58.7421875 C29.95090332 59.56874525 28.14255164 60.42745951 26.3515625 61.3203125 C18.94553652 64.95383195 11.37124521 67.73241886 3.5625 70.375 C2.51956787 70.73303711 1.47663574 71.09107422 0.40209961 71.45996094 C-1.0943811 71.95544434 -1.0943811 71.95544434 -2.62109375 72.4609375 C-3.5123999 72.75790527 -4.40370605 73.05487305 -5.32202148 73.36083984 C-8.31278023 74.07465208 -10.93562448 74.17836877 -14 74 C-15 73 -15 73 -15.0625 69.9375 C-15.041875 68.968125 -15.02125 67.99875 -15 67 C-14.34 67 -13.68 67 -13 67 C-13 66.34 -13 65.68 -13 65 C-11.125 62.875 -11.125 62.875 -9 61 C-8.34 61 -7.68 61 -7 61 C-6.5978125 59.9171875 -6.5978125 59.9171875 -6.1875 58.8125 C-5 56 -5 56 -3.625 53.8125 C1.09842957 45.63733344 2.64023289 38.53075857 2.4375 29.125 C2.4279126 28.07014404 2.4183252 27.01528809 2.40844727 25.9284668 C2.273947 19.36130099 1.71316193 13.50341518 -0.44140625 7.26953125 C-1.11252447 4.54282014 -0.72041736 2.68605944 0 0 Z " fill="#FAFAF9" transform="translate(1514,1919)"/>
<path d="M0 0 C9.35267177 0.09504748 17.67286317 1.3903285 25.03125 7.52734375 C29.53204164 12.39217001 30.12516046 18.31348575 29.91796875 24.7265625 C29.23130411 30.64103392 27.1886167 36.44686444 23.625 41.25 C22.965 41.25 22.305 41.25 21.625 41.25 C21.3465625 42.11625 21.3465625 42.11625 21.0625 43 C17.78797265 48.12534715 12.16488833 49.54474547 6.5625 51 C-0.43972702 52.50629302 -7.24368282 52.53867401 -14.375 52.25 C-13.00154214 38.65466596 -11.4983863 25.10706684 -9.25 11.625 C-9.07952148 10.59503906 -8.90904297 9.56507812 -8.73339844 8.50390625 C-7.28683189 0.09483946 -7.28683189 0.09483946 0 0 Z " fill="#FAFAF8" transform="translate(1614.375,1942.75)"/>
<path d="M0 0 C2.85872984 6.86280794 5.30032259 13.77558791 7.5 20.875 C8.10598019 22.81144551 8.71274479 24.74764574 9.3203125 26.68359375 C9.6080957 27.60124512 9.89587891 28.51889648 10.19238281 29.46435547 C11.20399503 32.64047533 12.2839714 35.78785173 13.375 38.9375 C14.7443027 42.98103916 15.6136291 46.74992009 16 51 C14.04233719 51.08082094 12.08373272 51.13910778 10.125 51.1875 C8.48917969 51.23970703 8.48917969 51.23970703 6.8203125 51.29296875 C5.88960937 51.19628906 4.95890625 51.09960938 4 51 C1.81024227 47.71536341 1.00193437 44.79303725 0 41 C-4.35274133 40.70823122 -8.70296692 40.53157635 -13.0625 40.375 C-14.29162109 40.29121094 -15.52074219 40.20742187 -16.78710938 40.12109375 C-20.44642413 40.02245993 -23.45755341 40.05735558 -27 41 C-29.5364051 43.43733906 -31.08935535 45.75030069 -32.76342773 48.83447266 C-33.17149658 49.54909668 -33.57956543 50.2637207 -34 51 C-34.66 51 -35.32 51 -36 51 C-34.35554633 46.39731718 -32.00052105 42.36169249 -29.5 38.1875 C-29.09652344 37.49462891 -28.69304687 36.80175781 -28.27734375 36.08789062 C-27.24318829 34.35576555 -26.12775368 32.67269436 -25 31 C-24.34 31 -23.68 31 -23 31 C-22.9175 30.46503906 -22.835 29.93007812 -22.75 29.37890625 C-21.72547076 26.12922756 -19.93906499 23.73183116 -18 20.9375 C-15.03496582 16.7017763 -15.03496582 16.7017763 -13 12 C-12.34 12 -11.68 12 -11 12 C-10.6596875 10.9790625 -10.6596875 10.9790625 -10.3125 9.9375 C-5.87234043 0 -5.87234043 0 0 0 Z " fill="#FAFAF8" transform="translate(1958,1944)"/>
<path d="M0 0 C7.75 0.875 7.75 0.875 10 2 C10 2.66 10 3.32 10 4 C10.62390625 4.24492188 11.2478125 4.48984375 11.890625 4.7421875 C15.13159346 6.67476499 15.44553627 9.08183739 16.46484375 12.57421875 C18.29223509 20.8575036 16.98018197 30.18558231 12.5625 37.4375 C10.93064021 39.88784746 9.26594263 42.10495335 7 44 C6.01 44 5.02 44 4 44 C4 44.66 4 45.32 4 46 C0.38026598 47.31626692 -2.09567131 48 -6 48 C-5.47202942 37.05087198 -4.15735356 26.38070206 -2.4375 15.5625 C-2.20057917 14.04110781 -1.96424827 12.51962362 -1.72851562 10.99804688 C-1.15910507 7.33095115 -0.58184552 3.66514591 0 0 Z " fill="#E9E9E7" transform="translate(1616,1945)"/>
<path d="M0 0 C0.66 0.66 1.32 1.32 2 2 C1.07767578 2.09474609 1.07767578 2.09474609 0.13671875 2.19140625 C-2.40457009 2.57645001 -4.612493 3.03989932 -7 4 C-9.11322384 7.1522979 -9.11322384 7.1522979 -10 11 C-10.391875 12.03125 -10.78375 13.0625 -11.1875 14.125 C-12.58761695 20.80248083 -13.00877283 28.39515493 -11 35 C-9.741875 34.7525 -8.48375 34.505 -7.1875 34.25 C-6.47980469 34.11078125 -5.77210937 33.9715625 -5.04296875 33.828125 C-2.23609589 32.69034862 -1.46488633 31.6649827 0 29 C0.66313597 26.22276387 1.19476609 23.56118746 1.625 20.75 C1.74617188 20.02425781 1.86734375 19.29851562 1.9921875 18.55078125 C2.59077954 14.90067108 3.09487217 11.2528657 3.515625 7.578125 C4 4 4 4 5.125 2 C7.99690383 0.46831796 10.80091201 0.94089445 14 1 C13.55198316 5.52191751 13.08975868 10.04227498 12.625 14.5625 C12.43550781 16.47772461 12.43550781 16.47772461 12.2421875 18.43164062 C11.61301884 24.48738902 10.99472729 30.23263631 9 36 C2.9453125 36.1953125 2.9453125 36.1953125 1 36 C0.34 35.34 -0.32 34.68 -1 34 C-1.33 34.66 -1.66 35.32 -2 36 C-7.96422183 37.98807394 -13.25472393 37.29811043 -19 35 C-19 34.34 -19 33.68 -19 33 C-19.66 33 -20.32 33 -21 33 C-23.53042099 26.99025014 -24.18963249 20.75642575 -22.20703125 14.49609375 C-20.59168566 10.73933216 -18.85140629 6.98101566 -16 4 C-15.34 4 -14.68 4 -14 4 C-14 3.34 -14 2.68 -14 2 C-9.52621297 -0.30905137 -4.94517384 -0.66065191 0 0 Z " fill="#FAFAF8" transform="translate(1901,1959)"/>
<path d="M0 0 C0 0.66 0 1.32 0 2 C0.639375 2.12375 1.27875 2.2475 1.9375 2.375 C2.9584375 2.684375 2.9584375 2.684375 4 3 C5.56430248 6.12860495 5.35627284 8.55602925 5 12 C1.5207168 16.0229212 -2.8601724 17.28917278 -8 18 C-11.00968248 18.1402026 -13.99025918 18.12540587 -17 18 C-16.88529863 19.75070517 -16.75780972 21.50057536 -16.625 23.25 C-16.55539062 24.22453125 -16.48578125 25.1990625 -16.4140625 26.203125 C-16.01534751 28.89633189 -15.36492937 30.66963279 -14 33 C-13.38511719 33 -12.77023437 33 -12.13671875 33 C-8.7578125 33 -5.37890625 33 -2 33 C-3.32 33.66 -4.64 34.32 -6 35 C-6 35.66 -6 36.32 -6 37 C-7.93798521 36.69052329 -9.87537426 36.37731166 -11.8125 36.0625 C-12.89144531 35.88847656 -13.97039062 35.71445313 -15.08203125 35.53515625 C-18 35 -18 35 -21 34 C-21 33.34 -21 32.68 -21 32 C-21.66 32 -22.32 32 -23 32 C-26.49087076 26.76369386 -25.41501795 20.10854545 -25 14 C-23.90680974 8.82442737 -21.06243072 5.32380695 -17 2 C-11.22840994 -1.09955762 -6.29971031 -2.09990344 0 0 Z " fill="#F9F9F7" transform="translate(1701,1960)"/>
<path d="M0 0 C1.85772162 0.08984301 3.71247985 0.24611861 5.5625 0.4375 C7.08037109 0.59025391 7.08037109 0.59025391 8.62890625 0.74609375 C9.80259766 0.87177734 9.80259766 0.87177734 11 1 C10.74307373 2.52584717 10.74307373 2.52584717 10.48095703 4.08251953 C9.83436874 7.9253289 9.19006584 11.76851877 8.54638672 15.61181641 C8.26964789 17.26230857 7.99232268 18.91270255 7.71435547 20.56298828 C6.00865537 30.69250692 4.3901491 40.82145674 3 51 C0.24921116 51.91692961 -1.35948913 52.10886083 -4.1875 52.0625 C-5.445625 52.041875 -6.70375 52.02125 -8 52 C-9.33694632 49.32610737 -8.82871137 47.870791 -8.36328125 44.92578125 C-8.19997314 43.87575928 -8.03666504 42.8257373 -7.8684082 41.74389648 C-7.6849585 40.61153564 -7.50150879 39.4791748 -7.3125 38.3125 C-7.12969482 37.15886963 -6.94688965 36.00523926 -6.75854492 34.81665039 C-6.18226385 31.20941178 -5.59373559 27.60440469 -5 24 C-4.71769531 22.28538574 -4.71769531 22.28538574 -4.4296875 20.53613281 C-3.89823316 17.33524321 -3.35812532 14.13600207 -2.8125 10.9375 C-2.64596924 9.95112549 -2.47943848 8.96475098 -2.30786133 7.94848633 C-2.1508374 7.04638428 -1.99381348 6.14428223 -1.83203125 5.21484375 C-1.69514893 4.42198975 -1.5582666 3.62913574 -1.41723633 2.81225586 C-1 1 -1 1 0 0 Z " fill="#FAFAF8" transform="translate(1992,1943)"/>
<path d="M0 0 C0 0.99 0 1.98 0 3 C0.58333333 5.66666667 0.58333333 5.66666667 2 8 C4.54775306 8.89386164 4.54775306 8.89386164 7 9 C7 9.66 7 10.32 7 11 C7.66 10.01 8.32 9.02 9 8 C11.625 7.8125 11.625 7.8125 14 8 C14.144375 7.4225 14.28875 6.845 14.4375 6.25 C14.95833333 4.16666667 15.47916667 2.08333333 16 0 C17.65 0 19.3 0 21 0 C21 1.32 21 2.64 21 4 C21.99 4 22.98 4 24 4 C23.5063205 9.05295489 21.02099824 12.33756902 18.1875 16.375 C14.88650262 21.14472308 11.81344135 25.92400091 9 31 C5.02286183 27.33258717 2.62154536 22.6716076 -0.125 18.0625 C-0.67542969 17.15564453 -1.22585938 16.24878906 -1.79296875 15.31445312 C-2.57994141 14.00057617 -2.57994141 14.00057617 -3.3828125 12.66015625 C-3.86121582 11.86230713 -4.33961914 11.06445801 -4.83251953 10.24243164 C-5.92711109 8.14000096 -6.54412362 6.31544181 -7 4 C-6.34 3.67 -5.68 3.34 -5 3 C-4.01 4.485 -4.01 4.485 -3 6 C-2.690625 5.195625 -2.38125 4.39125 -2.0625 3.5625 C-1 1 -1 1 0 0 Z M-2 7 C-1.67 7.99 -1.34 8.98 -1 10 C-1 9.01 -1 8.02 -1 7 C-1.33 7 -1.66 7 -2 7 Z " fill="#F4F4F1" transform="translate(823,912)"/>
<path d="M0 0 C0 3.17690028 -0.54793893 4.37354934 -1.875 7.1875 C-4.80637152 14.1832909 -5.29449971 21.51798381 -6 29 C-7.765625 29.703125 -7.765625 29.703125 -10 30 C-11.859375 28.671875 -11.859375 28.671875 -13.75 26.75 C-20.24990411 20.71780116 -27.44238713 19.49056782 -36 18 C-34 16 -34 16 -30.875 15.875 C-29.92625 15.91625 -28.9775 15.9575 -28 16 C-28 15.34 -28 14.68 -28 14 C-27.11957031 13.66226562 -26.23914062 13.32453125 -25.33203125 12.9765625 C-24.17058594 12.53054688 -23.00914063 12.08453125 -21.8125 11.625 C-20.66394531 11.18414063 -19.51539063 10.74328125 -18.33203125 10.2890625 C-17.23246094 9.86367187 -16.13289063 9.43828125 -15 9 C-13.58267578 8.48566406 -13.58267578 8.48566406 -12.13671875 7.9609375 C-9.83473813 7.19639578 -9.83473813 7.19639578 -9 5 C-5.9375 4.375 -5.9375 4.375 -3 4 C-3 3.34 -3 2.68 -3 2 C-2.01 1.34 -1.02 0.68 0 0 Z " fill="#FAFAF8" transform="translate(1562,1974)"/>
<path d="M0 0 C2.47629496 3.71444244 2.24686097 5.56761501 2.24050903 10.00444031 C2.24221788 10.72162525 2.24392673 11.43881018 2.24568737 12.177728 C2.24898822 14.58692927 2.23796891 16.99585357 2.22705078 19.4050293 C2.2264868 21.12958774 2.22680298 22.85414667 2.22793579 24.57870483 C2.2285108 29.26643608 2.21673257 33.95406546 2.20278788 38.64177299 C2.19030515 43.53850526 2.18911196 48.43523974 2.18673706 53.33198547 C2.18051505 62.60734998 2.1640945 71.88266747 2.14403808 81.15801126 C2.12170149 91.71651906 2.11069129 102.27502908 2.10064721 112.83355463 C2.07972889 134.55572935 2.04453892 156.27786172 2 178 C2.66 178.33 3.32 178.66 4 179 C3.34 179 2.68 179 2 179 C2.03552979 179.7206665 2.07105957 180.44133301 2.10766602 181.18383789 C2.2661192 184.47643685 2.41439368 187.76942005 2.5625 191.0625 C2.61857422 192.19623047 2.67464844 193.32996094 2.73242188 194.49804688 C3.04570355 201.66175452 2.9434478 208.059115 1 215 C-2.82578773 216.22621401 -6.64977077 216.18369231 -10.625 216.1875 C-11.305625 216.19974609 -11.98625 216.21199219 -12.6875 216.22460938 C-14.45990756 216.22986355 -16.2317994 216.12215906 -18 216 C-18.66 215.34 -19.32 214.68 -20 214 C-13.4 214 -6.8 214 0 214 C0 143.38 0 72.76 0 0 Z " fill="#FAFAF9" transform="translate(1097,1142)"/>
<path d="M0 0 C3.3 0 6.6 0 10 0 C9.67 1.32 9.34 2.64 9 4 C9.66 3.525625 10.32 3.05125 11 2.5625 C14.7933028 0.58682146 17.75524068 0.35972537 22 0 C19.31195995 1.7920267 16.58014738 3.31123887 13.71875 4.8046875 C10.72564043 6.88625916 9.23217099 9.11367046 8.30810547 12.64135742 C8.16260254 13.61951416 8.01709961 14.5976709 7.8671875 15.60546875 C7.70089844 16.67087891 7.53460937 17.73628906 7.36328125 18.83398438 C7.20214844 19.94064453 7.04101562 21.04730469 6.875 22.1875 C6.54242855 24.38983385 6.20666835 26.59168937 5.8671875 28.79296875 C5.72394043 29.7677417 5.58069336 30.74251465 5.43310547 31.74682617 C5 34 5 34 4 35 C2.48071962 35.07179964 0.95832518 35.08392007 -0.5625 35.0625 C-1.38878906 35.05347656 -2.21507812 35.04445313 -3.06640625 35.03515625 C-3.70449219 35.02355469 -4.34257813 35.01195312 -5 35 C-4.4517216 30.65797035 -3.9002838 26.31635704 -3.34594727 21.97509766 C-3.15790868 20.4989705 -2.97072558 19.02273409 -2.78442383 17.54638672 C-2.51609904 15.42125443 -2.2446746 13.29653727 -1.97265625 11.171875 C-1.81031494 9.8940918 -1.64797363 8.61630859 -1.48071289 7.29980469 C-1 4 -1 4 0 0 Z " fill="#FAFAF8" transform="translate(1653,1960)"/>
<path d="M0 0 C0.99 0.66 1.98 1.32 3 2 C-0.2830098 3.6415049 -3.42545033 2.51888624 -7 2 C-7.71372719 3.64706275 -8.36236461 5.32201212 -9 7 C-9.39638672 8.02287109 -9.39638672 8.02287109 -9.80078125 9.06640625 C-12.5060382 16.84882789 -13.64517005 26.06448985 -11 34 C-9.02 34.33 -7.04 34.66 -5 35 C-5 35.66 -5 36.32 -5 37 C-10.03896583 37.3585035 -13.87762138 37.54114683 -18.5 35.3125 C-21.73604545 32.31915796 -22.79818488 29.7534327 -23.30078125 25.38671875 C-23.33352634 17.84443411 -22.63411779 12.1324644 -17.6875 6.25 C-16.800625 5.5075 -15.91375 4.765 -15 4 C-14.0925 3.236875 -13.185 2.47375 -12.25 1.6875 C-8.11665711 -0.45865881 -4.58482174 -0.75103747 0 0 Z " fill="#FAFAF8" transform="translate(1735,1959)"/>
<path d="M0 0 C2.65263984 2.30237848 3.62202254 4.21104981 4.60546875 7.5625 C4.99702148 8.88121094 4.99702148 8.88121094 5.39648438 10.2265625 C5.65751953 11.14179687 5.91855469 12.05703125 6.1875 13 C6.46013672 13.91523437 6.73277344 14.83046875 7.01367188 15.7734375 C9 22.56379229 9 22.56379229 9 26 C0.75 26 -7.5 26 -16 26 C-14.24859385 21.62148462 -12.90268955 19.50268683 -10 16 C-8.78654953 14.18373865 -7.59892339 12.34996299 -6.4375 10.5 C-5.85871094 9.5821875 -5.27992187 8.664375 -4.68359375 7.71875 C-3.0987127 5.15940612 -1.54119782 2.58583951 0 0 Z " fill="#E9E9E7" transform="translate(1948,1957)"/>
<path d="M0 0 C1 1 1 1 1.0625 3.5625 C1.041875 4.366875 1.02125 5.17125 1 6 C2.32 5.34 3.64 4.68 5 4 C4.7009375 4.55945312 4.401875 5.11890625 4.09375 5.6953125 C0.4770381 13.31624115 -0.53602697 21.84554934 -1.5703125 30.12890625 C-2 33 -2 33 -3 35 C-5.64 35 -8.28 35 -11 35 C-10.34546042 24.28622064 -9.24471156 13.65859798 -8 3 C-9.98 3.33 -11.96 3.66 -14 4 C-14 3.34 -14 2.68 -14 2 C-9.6054169 -1.82754012 -5.35855808 -1.19571131 0 0 Z " fill="#FAFAF8" transform="translate(1787,1960)"/>
<path d="M0 0 C0.42183642 7.68679696 -0.28716595 15.039454 -1.4375 22.625 C-1.57196533 23.51413086 -1.70643066 24.40326172 -1.8449707 25.31933594 C-2.85836398 31.71672797 -2.85836398 31.71672797 -4 34 C-9.44927536 35.27536232 -9.44927536 35.27536232 -12 34 C-12.21120322 26.80540143 -11.60752499 19.97912425 -10.5 12.875 C-10.28537109 11.44027344 -10.28537109 11.44027344 -10.06640625 9.9765625 C-9.71741855 7.64997784 -9.36187667 5.32460844 -9 3 C-11.64 3.66 -14.28 4.32 -17 5 C-16 2 -16 2 -13.875 0.3125 C-9.15902634 -1.8404445 -4.883717 -1.32512234 0 0 Z " fill="#FAFAF8" transform="translate(1870,1960)"/>
<path d="M0 0 C1.23556641 0.01740234 1.23556641 0.01740234 2.49609375 0.03515625 C3.32238281 0.04417969 4.14867187 0.05320312 5 0.0625 C5.63808594 0.07410156 6.27617188 0.08570313 6.93359375 0.09765625 C6.48059689 3.86915011 6.02019094 7.63970612 5.55859375 11.41015625 C5.43226562 12.46267578 5.3059375 13.51519531 5.17578125 14.59960938 C4.32847717 21.48395499 3.25492013 28.28833052 1.93359375 35.09765625 C-1.03640625 35.09765625 -4.00640625 35.09765625 -7.06640625 35.09765625 C-7.39640625 34.43765625 -7.72640625 33.77765625 -8.06640625 33.09765625 C-9.05640625 33.59265625 -9.05640625 33.59265625 -10.06640625 34.09765625 C-9.77765625 33.56140625 -9.48890625 33.02515625 -9.19140625 32.47265625 C-6.09312913 25.931849 -5.33533074 19.39845465 -4.50390625 12.28515625 C-4.25642092 10.19485707 -4.00532124 8.10498153 -3.75 6.015625 C-3.64228271 5.09547607 -3.53456543 4.17532715 -3.42358398 3.22729492 C-2.95476341 0.4319963 -2.84664221 0.13452941 0 0 Z " fill="#FAFAF8" transform="translate(1742.06640625,1959.90234375)"/>
<path d="M0 0 C0.66 0.33 1.32 0.66 2 1 C2 1.66 2 2.32 2 3 C2.66 3 3.32 3 4 3 C3.40211877 13.0695786 2.33682757 23.00624051 1 33 C0.34 33 -0.32 33 -1 33 C-1 33.66 -1 34.32 -1 35 C-3.64 35 -6.28 35 -9 35 C-8.90912109 34.33991943 -8.81824219 33.67983887 -8.72460938 32.99975586 C-8.31158411 29.97964096 -7.90573786 26.9586022 -7.5 23.9375 C-7.35691406 22.89916016 -7.21382812 21.86082031 -7.06640625 20.79101562 C-6.35798295 15.4778409 -5.81751847 10.36039482 -6 5 C-7.98 5 -9.96 5 -12 5 C-7.85268669 0.71444292 -6.02796594 -0.25116525 0 0 Z " fill="#FAFAF8" transform="translate(1804,1959)"/>
<path d="M0 0 C2.97 0 5.94 0 9 0 C9.16341167 6.34334376 8.55141799 12.35386283 7.625 18.625 C7.49867187 19.54023437 7.37234375 20.45546875 7.2421875 21.3984375 C6.55847056 26.1297587 5.71578058 30.50913083 4 35 C1.36 35 -1.28 35 -4 35 C-3.35669226 23.24299648 -1.66099529 11.64786008 0 0 Z " fill="#FAFAF8" transform="translate(1820,1960)"/>
<path d="M0 0 C2.97 0 5.94 0 9 0 C8.67 2.31 8.34 4.62 8 7 C8.66 7.33 9.32 7.66 10 8 C9.34 8.66 8.68 9.32 8 10 C7.46080241 12.28609081 7.46080241 12.28609081 7.18359375 14.9375 C7.05919922 15.91460938 6.93480469 16.89171875 6.80664062 17.8984375 C6.68482422 18.92195313 6.56300781 19.94546875 6.4375 21 C6.1893027 23.02121701 5.93814616 25.04207352 5.68359375 27.0625 C5.57587646 27.96097656 5.46815918 28.85945313 5.35717773 29.78515625 C5 32 5 32 4 34 C1.93359375 34.4140625 1.93359375 34.4140625 -0.5625 34.625 C-1.38878906 34.69976563 -2.21507812 34.77453125 -3.06640625 34.8515625 C-3.70449219 34.90054687 -4.34257813 34.94953125 -5 35 C-4.54700314 31.22850614 -4.08659719 27.45795013 -3.625 23.6875 C-3.49867187 22.63498047 -3.37234375 21.58246094 -3.2421875 20.49804688 C-2.39488342 13.61370126 -1.32132638 6.80932573 0 0 Z " fill="#FAFAF8" transform="translate(1840,1960)"/>
<path d="M0 0 C2.97 0 5.94 0 9 0 C8.67 1.98 8.34 3.96 8 6 C8.66 6 9.32 6 10 6 C10 6.66 10 7.32 10 8 C9.01 8.495 9.01 8.495 8 9 C7.45211635 11.29048511 7.45211635 11.29048511 7.18359375 14.05859375 C7.05919922 15.08404297 6.93480469 16.10949219 6.80664062 17.16601562 C6.68482422 18.24560547 6.56300781 19.32519531 6.4375 20.4375 C6.18933167 22.5615664 5.93817733 24.68528671 5.68359375 26.80859375 C5.57587646 27.75532959 5.46815918 28.70206543 5.35717773 29.67749023 C5 32 5 32 4 34 C1.03 34 -1.94 34 -5 34 C-3.87190866 22.53328333 -2.30724294 11.2901088 0 0 Z " fill="#FAFAF8" transform="translate(1761,1960)"/>
<path d="M0 0 C0.66 0 1.32 0 2 0 C2.88223286 3.71583694 3.05844126 6.98956078 2.87986755 10.79917908 C2.8315809 11.93964219 2.78329424 13.0801053 2.73354435 14.25512791 C2.67766368 15.48312076 2.62178301 16.71111361 2.56420898 17.97631836 C2.01164864 31.83594659 1.891116 45.66623071 1.95540047 59.53781319 C1.9732111 63.50241336 1.98343091 67.46699654 1.99131775 71.43162537 C2.01507548 82.67686945 2.05179235 93.9220549 2.09594727 105.16723633 C2.12048819 111.43850569 2.13784235 117.70975491 2.14750665 123.98106521 C2.15295413 127.27729189 2.16349274 130.57338163 2.18089485 133.86956978 C2.2000275 137.51538233 2.20699301 141.16102893 2.21118164 144.80688477 C2.21994324 145.88773346 2.22870483 146.96858215 2.23773193 148.08218384 C2.23642776 149.07229965 2.2351236 150.06241547 2.23377991 151.08253479 C2.23692231 151.94085183 2.24006472 152.79916887 2.24330235 153.68349552 C1.9792061 156.1979807 1.26385742 157.82900008 0 160 C-1.08882518 151.690917 -1.10157066 143.46178398 -1.02172852 135.09521484 C-1.01156517 133.61592919 -1.00187379 132.13664023 -0.99261475 130.65734863 C-0.96633935 126.6704186 -0.93351983 122.68356691 -0.89946485 118.69669676 C-0.86491625 114.51939309 -0.83647002 110.34204782 -0.80735779 106.16470337 C-0.75140207 98.26723951 -0.69001193 90.36982776 -0.62663645 82.47242033 C-0.55470876 73.47601762 -0.48888943 64.4795734 -0.42356598 55.48312068 C-0.28914157 36.98869304 -0.14710213 18.49433093 0 0 Z " fill="#FAFAF9" transform="translate(915,1195)"/>
<path d="M0 0 C1.32 0.33 2.64 0.66 4 1 C3 4 3 4 1 5 C-0.36382937 5.09568436 -1.73218688 5.13064864 -3.09936523 5.13371277 C-4.38651932 5.14011024 -4.38651932 5.14011024 -5.69967651 5.14663696 C-6.6431192 5.14618378 -7.58656189 5.14573059 -8.55859375 5.14526367 C-9.55053741 5.14862228 -10.54248108 5.1519809 -11.56448364 5.15544128 C-14.8555017 5.16496914 -18.146469 5.16689521 -21.4375 5.16796875 C-23.71671571 5.17117966 -25.99593121 5.1745436 -28.27514648 5.17805481 C-33.05680825 5.1840504 -37.83845193 5.18589423 -42.62011719 5.18530273 C-48.76076432 5.185201 -54.90129613 5.19886326 -61.04191589 5.21607494 C-65.74980202 5.22716757 -70.45766 5.2292228 -75.16555786 5.22869301 C-77.43027138 5.22987688 -79.69498555 5.23432127 -81.95968628 5.24202538 C-85.12034298 5.25177171 -88.28074586 5.24896868 -91.44140625 5.24291992 C-92.85657028 5.25134918 -92.85657028 5.25134918 -94.30032349 5.25994873 C-95.15842621 5.25575424 -96.01652893 5.25155975 -96.90063477 5.24723816 C-97.64837662 5.24778293 -98.39611847 5.24832769 -99.16651917 5.24888897 C-101 5 -101 5 -103 3 C-52.015 2.505 -52.015 2.505 0 2 C0 1.34 0 0.68 0 0 Z " fill="#FDFDFC" transform="translate(681,687)"/>
<path d="M0 0 C0.33 0.99 0.66 1.98 1 3 C0.01 3 -0.98 3 -2 3 C-1.34 2.01 -0.68 1.02 0 0 Z M-4 4 C-3.01 4.495 -3.01 4.495 -2 5 C-2.99 5.495 -2.99 5.495 -4 6 C-4 5.34 -4 4.68 -4 4 Z M-6 6 C-5.34 6 -4.68 6 -4 6 C-4.34888776 8.52943628 -4.81127047 9.7961721 -6.5625 11.6875 C-12.88472106 15.09177288 -21.50413343 14.17432715 -28.5078125 14.203125 C-30.13419144 14.21167511 -30.13419144 14.21167511 -31.79342651 14.22039795 C-34.07435136 14.22980179 -36.35528952 14.23636345 -38.63623047 14.24023438 C-42.12100661 14.24998882 -45.60520447 14.28107589 -49.08984375 14.3125 C-51.31249652 14.31902644 -53.53515348 14.32427832 -55.7578125 14.328125 C-57.31424973 14.3466452 -57.31424973 14.3466452 -58.90213013 14.36553955 C-64.33128337 14.34882428 -68.35297391 14.15955467 -73 11 C-73.33 10.34 -73.66 9.68 -74 9 C-72.89096313 9.24121582 -72.89096313 9.24121582 -71.75952148 9.48730469 C-66.45306591 10.21095926 -61.19771563 10.18297259 -55.84765625 10.203125 C-54.67416122 10.20882507 -53.5006662 10.21452515 -52.29161072 10.22039795 C-49.81461483 10.22982515 -47.33760652 10.23637284 -44.8605957 10.24023438 C-41.07936752 10.24995663 -37.29867929 10.28100928 -33.51757812 10.3125 C-31.10677405 10.31902908 -28.6959661 10.32427993 -26.28515625 10.328125 C-25.15892349 10.3404718 -24.03269073 10.3528186 -22.87232971 10.36553955 C-13.7374281 10.42690894 -13.7374281 10.42690894 -6 6 Z " fill="#DCDCDA" transform="translate(108,86)"/>
<path d="M0 0 C37.62 0.33 75.24 0.66 114 1 C114 1.33 114 1.66 114 2 C99.85725178 2.02336032 85.71450656 2.04092811 71.57174301 2.05181217 C65.00501589 2.05703541 58.43830171 2.06412297 51.87158203 2.07543945 C45.53683596 2.08628811 39.20210236 2.09228106 32.86734772 2.09487724 C30.44798842 2.09672791 28.02862982 2.10034168 25.60927582 2.10573006 C22.22615574 2.11296668 18.84308748 2.11398982 15.45996094 2.11352539 C13.95268684 2.1189183 13.95268684 2.1189183 12.41496277 2.12442017 C11.49232132 2.1230455 10.56967987 2.12167084 9.61907959 2.12025452 C8.81896328 2.12117631 8.01884697 2.1220981 7.19448471 2.12304783 C5.00895575 2.00050216 3.09913894 1.60409513 1 1 C1.33 1.5775 1.66 2.155 2 2.75 C3 5 3 5 3 9 C3.99 9.33 4.98 9.66 6 10 C8.07530387 12.92079805 9 14.37546731 9 18 C8.278125 17.525625 7.55625 17.05125 6.8125 16.5625 C3.78292666 14.69244637 3.78292666 14.69244637 -1 14 C-0.67 9.38 -0.34 4.76 0 0 Z " fill="#5A5A59" transform="translate(558,691)"/>
<path d="M0 0 C1.55024464 3.10048928 1.28992015 5.57894218 1 9 C-1.36564861 12.94274769 -3.55975315 14.80871426 -8 16 C-9.65 16 -11.3 16 -13 16 C-12.67 12.7 -12.34 9.4 -12 6 C-11.34 6 -10.68 6 -10 6 C-10 5.01 -10 4.02 -10 3 C-9.34 3 -8.68 3 -8 3 C-8 2.01 -8 1.02 -8 0 C-5.09660535 -1.45169732 -3.09125158 -0.72348441 0 0 Z " fill="#E8E8E6" transform="translate(1698,1961)"/>
<path d="M0 0 C0.66 0 1.32 0 2 0 C2.02715383 1.74991334 2.04646551 3.49994945 2.0625 5.25 C2.07410156 6.22453125 2.08570313 7.1990625 2.09765625 8.203125 C2.01195577 10.65758678 1.70706066 12.66168914 1 15 C2.19625 15.04125 3.3925 15.0825 4.625 15.125 C9.74713726 15.71741801 11.7393062 18.16868479 15 22 C14.67 22.66 14.34 23.32 14 24 C13.34 24 12.68 24 12 24 C12 23.01 12 22.02 12 21 C11.01 21 10.02 21 9 21 C9 21.66 9 22.32 9 23 C4.4923533 22.46968862 1.58045212 20.74778884 -2 18 C-2 17.34 -2 16.68 -2 16 C-2.66 16 -3.32 16 -4 16 C-3.48041715 11.62065881 -2.94324258 7.31196609 -2 3 C-1.01 3.33 -0.02 3.66 1 4 C0.67 2.68 0.34 1.36 0 0 Z " fill="#D3D5D1" transform="translate(556,690)"/>
<path d="M0 0 C1.45700669 0.02009664 2.91404015 0.03834182 4.37109375 0.0546875 C7.9146255 0.09843099 11.45713877 0.16728233 15 0.25 C11.5647952 2.54013653 10.014669 2.42842973 6 2.25 C6 2.91 6 3.57 6 4.25 C5.33991943 4.2593457 4.67983887 4.26869141 3.99975586 4.27832031 C0.97827535 4.33235573 -2.04171176 4.41593693 -5.0625 4.5 C-6.10083984 4.51417969 -7.13917969 4.52835938 -8.20898438 4.54296875 C-15.6972484 4.78069142 -20.54893585 5.79893585 -26 11.25 C-26.66 11.25 -27.32 11.25 -28 11.25 C-25.69160629 6.46832732 -23.67274279 3.40616746 -18.71484375 1.05273438 C-12.6981412 -0.72630501 -6.21720579 -0.14954023 0 0 Z " fill="#DEDEDC" transform="translate(59,28.75)"/>
<path d="M0 0 C0.33 0.99 0.66 1.98 1 3 C0.13549805 4.60986328 0.13549805 4.60986328 -1.23828125 6.3203125 C-1.72876953 6.93777344 -2.21925781 7.55523438 -2.72460938 8.19140625 C-3.24861328 8.82949219 -3.77261719 9.46757813 -4.3125 10.125 C-4.82490234 10.77082031 -5.33730469 11.41664063 -5.86523438 12.08203125 C-9.69766104 16.84883052 -9.69766104 16.84883052 -12 18 C-12.27585566 16.06601192 -12.51987415 14.12746091 -12.75 12.1875 C-12.88921875 11.10855469 -13.0284375 10.02960937 -13.171875 8.91796875 C-13 6 -13 6 -11.140625 4.11328125 C-9 3 -9 3 -7 3 C-6.360625 2.505 -5.72125 2.01 -5.0625 1.5 C-3 0 -3 0 0 0 Z " fill="#EEF0EF" transform="translate(989,957)"/>
<path d="M0 0 C0 0.66 0 1.32 0 2 C0.78375 2.144375 1.5675 2.28875 2.375 2.4375 C5 3 5 3 7 4 C6.67 4.99 6.34 5.98 6 7 C5.236875 6.484375 4.47375 5.96875 3.6875 5.4375 C-1.34782637 3.47457616 -5.75218994 3.90430339 -11 5 C-11.99 5.66 -12.98 6.32 -14 7 C-14.12375 6.030625 -14.2475 5.06125 -14.375 4.0625 C-14.58125 3.051875 -14.7875 2.04125 -15 1 C-15.66 0.67 -16.32 0.34 -17 0 C-12.09873048 -2.45063476 -5.24757977 -0.87459663 0 0 Z " fill="#DEDEDC" transform="translate(95,30)"/>
<path d="M0 0 C1.0772656 3.23179679 1.25643258 3.94866374 0 7 C-2.5625 9.75 -2.5625 9.75 -5 12 C-4.01 11.67 -3.02 11.34 -2 11 C-2.54723683 14.37462715 -3.0549 16.08235 -5 19 C-5.33 19.66 -5.66 20.32 -6 21 C-6.99 20.67 -7.98 20.34 -9 20 C-9.66 20.33 -10.32 20.66 -11 21 C-11.99 20.67 -12.98 20.34 -14 20 C-13.61142822 19.4652002 -13.22285645 18.93040039 -12.82250977 18.37939453 C-11.06765305 15.96236243 -9.31505123 13.54370422 -7.5625 11.125 C-6.95083984 10.28324219 -6.33917969 9.44148437 -5.70898438 8.57421875 C-5.12568359 7.76855469 -4.54238281 6.96289062 -3.94140625 6.1328125 C-3.40201416 5.38918457 -2.86262207 4.64555664 -2.30688477 3.87939453 C-0.95785485 2.0352689 -0.95785485 2.0352689 0 0 Z M2 2 C2.33 2.99 2.66 3.98 3 5 C2.01 5 1.02 5 0 5 C0.66 4.01 1.32 3.02 2 2 Z " fill="#E6E6E5" transform="translate(1098,940)"/>
<path d="M0 0 C-2.13399753 3.20099629 -2.40277217 3.37098836 -5.8125 4.375 C-10.45842985 5.97151044 -13.76007095 8.52014189 -16 13 C-16.66 12.67 -17.32 12.34 -18 12 C-17.34 10.68 -16.68 9.36 -16 8 C-17.97536745 8.34786708 -17.97536745 8.34786708 -20 9 C-20.33 9.66 -20.66 10.32 -21 11 C-21.66 10.67 -22.32 10.34 -23 10 C-22.48828125 7.67578125 -22.48828125 7.67578125 -21 5 C-18.31544956 3.79329309 -15.99246128 2.9493105 -13.1875 2.1875 C-12.47529297 1.97158203 -11.76308594 1.75566406 -11.02929688 1.53320312 C-7.26761806 0.43706175 -3.95602688 -0.27202542 0 0 Z " fill="#E9E9E8" transform="translate(1348,1107)"/>
<path d="M0 0 C0.99 0.99 1.98 1.98 3 3 C3.66 2.34 4.32 1.68 5 1 C5 4.93974955 3.52210525 6.82936093 1.5 10.1875 C0.8503125 11.27417969 0.200625 12.36085938 -0.46875 13.48046875 C-1.22671875 14.72763672 -1.22671875 14.72763672 -2 16 C-4.79233071 13.44722581 -5.48967606 11.77639718 -6 8 C-4.68 8 -3.36 8 -2 8 C-2 7.34 -2 6.68 -2 6 C-2.99 6.33 -3.98 6.66 -5 7 C-4.67 6.01 -4.34 5.02 -4 4 C-1.9375 3.3125 -1.9375 3.3125 0 3 C0 2.01 0 1.02 0 0 Z " fill="#EDEEE9" transform="translate(834,927)"/>
<path d="M0 0 C3 -0.375 3 -0.375 6 0 C8 3 8 3 7.6875 5.0625 C7 7 7 7 6 9 C3.69 9 1.38 9 -1 9 C-1.625 6.1875 -1.625 6.1875 -2 3 C-1.34 2.01 -0.68 1.02 0 0 Z " fill="#FAFAF8" transform="translate(1824,1943)"/>
<path d="M0 0 C0.33 0 0.66 0 1 0 C1 3.96 1 7.92 1 12 C-0.32 12.33 -1.64 12.66 -3 13 C-5.14589423 14.89586384 -5.14589423 14.89586384 -7 17 C-7.66 17.66 -8.32 18.32 -9 19 C-9.875 17 -9.875 17 -10 14 C-8.71334669 11.83183334 -7.22615639 9.95667888 -5.6328125 8.00390625 C-4.18226975 6.22369469 -2.92134607 4.43302551 -1.6875 2.5 C-1.130625 1.675 -0.57375 0.85 0 0 Z " fill="#E5E5E4" transform="translate(887,1012)"/>
<path d="M0 0 C3.96 0 7.92 0 12 0 C12 0.33 12 0.66 12 1 C8.37 1 4.74 1 1 1 C1.66 2.32 2.32 3.64 3 5 C3 6.32 3 7.64 3 9 C3.99 9.33 4.98 9.66 6 10 C8.07530387 12.92079805 9 14.37546731 9 18 C8.278125 17.525625 7.55625 17.05125 6.8125 16.5625 C3.78292666 14.69244637 3.78292666 14.69244637 -1 14 C-0.67 9.38 -0.34 4.76 0 0 Z " fill="#A1A39D" transform="translate(558,691)"/>
<path d="M0 0 C5.28 0.33 10.56 0.66 16 1 C16 1.33 16 1.66 16 2 C13.36 2 10.72 2 8 2 C8 2.68707031 8 3.37414062 8 4.08203125 C8 7.72135417 8 11.36067708 8 15 C5.7522025 12.94766315 4.9977758 11.99332739 4 9 C3.34 8.67 2.68 8.34 2 8 C0.6250851 5.09740189 0 3.23861295 0 0 Z " fill="#080809" transform="translate(559,692)"/>
<path d="M0 0 C0.99 0 1.98 0 3 0 C2.979375 1.0725 2.95875 2.145 2.9375 3.25 C2.84146637 6.75319421 2.84146637 6.75319421 3.5625 9.0625 C4.20655453 11.91474147 3.57463055 14.12684725 3 17 C2.64352455 18.95791438 2.2895166 20.91627904 1.9375 22.875 C1.62543008 24.58341195 1.31307386 26.29177174 1 28 C0.67 28 0.34 28 0 28 C0 18.76 0 9.52 0 0 Z " fill="#F8F8F6" transform="translate(1488,895)"/>
<path d="M0 0 C0.66 0.66 1.32 1.32 2 2 C2.99 1.67 3.98 1.34 5 1 C5 1.66 5 2.32 5 3 C4.34 3 3.68 3 3 3 C3 3.66 3 4.32 3 5 C2.34 5 1.68 5 1 5 C1.33 5.66 1.66 6.32 2 7 C2.99 6.67 3.98 6.34 5 6 C5 7.32 5 8.64 5 10 C5.66 9.67 6.32 9.34 7 9 C7 10.98 7 12.96 7 15 C5.68 15 4.36 15 3 15 C-0.06242216 10.15939723 -1.53411505 6.70709064 -2 1 C-1.34 0.67 -0.68 0.34 0 0 Z M7 8 C9 9 9 9 9 9 Z " fill="#F3F3F2" transform="translate(703,716)"/>
<path d="M0 0 C0.0588996 3.31242312 0.09389398 6.62470851 0.125 9.9375 C0.14175781 10.86369141 0.15851563 11.78988281 0.17578125 12.74414062 C0.21840994 18.81872962 -0.46775498 24.11835079 -2 30 C-2.33 30 -2.66 30 -3 30 C-3.33 22.08 -3.66 14.16 -4 6 C-4.99 6.66 -5.98 7.32 -7 8 C-5.84316054 5.30070793 -3.38550714 0 0 0 Z " fill="#CDCDCD" transform="translate(1382,893)"/>
<path d="M0 0 C2.82674877 3.43337406 5.3569759 6.93945158 7.75 10.6875 C8.36359375 11.64011719 8.9771875 12.59273437 9.609375 13.57421875 C11 16 11 16 11 18 C10.01 18 9.02 18 8 18 C6 16 6 16 5.1875 14.3125 C3.0516683 10.1532488 0.30556062 6.30556062 -3 3 C-2.01 3 -1.02 3 0 3 C0 2.01 0 1.02 0 0 Z " fill="#E5E5E4" transform="translate(695,915)"/>
<path d="M0 0 C0.45375 0.61875 0.9075 1.2375 1.375 1.875 C2.97108919 4.05919833 2.97108919 4.05919833 5 6 C5.99 6 6.98 6 8 6 C8 6.99 8 7.98 8 9 C8.32041397 11.60280568 8.32041397 11.60280568 9 14 C9.66 14.33 10.32 14.66 11 15 C8.375 15.125 8.375 15.125 5 14 C2.47423553 10.92782291 0.46146249 7.70199252 -1 4 C-0.66015625 1.67578125 -0.66015625 1.67578125 0 0 Z " fill="#F5F5F3" transform="translate(686,691)"/>
<path d="M0 0 C1.32 0 2.64 0 4 0 C4.33 0.99 4.66 1.98 5 3 C4.03114628 4.68496298 3.03013277 6.35178756 2 8 C2 8.99 2 9.98 2 11 C1.01 10.67 0.02 10.34 -1 10 C-1 9.34 -1 8.68 -1 8 C-2.65 8.33 -4.3 8.66 -6 9 C-5.10085301 7.48943306 -4.18003899 5.99174571 -3.25 4.5 C-2.73953125 3.6646875 -2.2290625 2.829375 -1.703125 1.96875 C-0.86007812 0.99421875 -0.86007812 0.99421875 0 0 Z " fill="#EAEAE8" transform="translate(934,948)"/>
<path d="M0 0 C-1.47495682 2.33609323 -2.95468745 4.66890167 -4.4375 7 C-4.85837891 7.66773438 -5.27925781 8.33546875 -5.71289062 9.0234375 C-6.78188817 10.69962565 -7.88802605 12.35200837 -9 14 C-9.33 14 -9.66 14 -10 14 C-10.33 11.69 -10.66 9.38 -11 7 C-10.01 6.67 -9.02 6.34 -8 6 C-8 5.34 -8 4.68 -8 4 C-7.34 4 -6.68 4 -6 4 C-6.33 3.01 -6.66 2.02 -7 1 C-3.375 -1.125 -3.375 -1.125 0 0 Z " fill="#E4E6E3" transform="translate(893,849)"/>
<path d="M0 0 C0.66 0 1.32 0 2 0 C1.67 1.32 1.34 2.64 1 4 C0.34 4 -0.32 4 -1 4 C-0.896875 5.216875 -0.79375 6.43375 -0.6875 7.6875 C-0.65408479 11.45005227 -0.90669702 11.88803642 -3.5 15 C-4.325 15.66 -5.15 16.32 -6 17 C-6 14.33333333 -6 11.66666667 -6 9 C-5.34 9 -4.68 9 -4 9 C-4.20625 8.401875 -4.4125 7.80375 -4.625 7.1875 C-5 5 -5 5 -3 2 C-2.34 2 -1.68 2 -1 2 C-0.67 1.34 -0.34 0.68 0 0 Z " fill="#F3F3F1" transform="translate(1181,689)"/>
<path d="M0 0 C2.85893064 1.42946532 3.09162701 2.13744052 5 5 C5 7 5 7 2.625 9.625 C0 12 0 12 -2 12 C-2.144375 11.38125 -2.28875 10.7625 -2.4375 10.125 C-2.93152225 7.96741678 -2.93152225 7.96741678 -4 6 C-2.68 4.02 -1.36 2.04 0 0 Z " fill="#F4F4F2" transform="translate(916,975)"/>
<path d="M0 0 C1.24546405 2.49092811 0.7767578 3.41080733 0 6 C1.258125 6.0825 2.51625 6.165 3.8125 6.25 C5.95703125 6.390625 5.95703125 6.390625 8 7 C9.76171875 9.046875 9.76171875 9.046875 11 11 C9.20759337 10.88610125 7.41605165 10.75852313 5.625 10.625 C4.12839844 10.52058594 4.12839844 10.52058594 2.6015625 10.4140625 C0 10 0 10 -2 8 C-1.42307692 1.42307692 -1.42307692 1.42307692 0 0 Z " fill="#C1C4BB" transform="translate(557,699)"/>
<path d="M0 0 C0.66 0 1.32 0 2 0 C1.8525372 6.93075139 -1.36978168 10.99527873 -6 16 C-6.33 16 -6.66 16 -7 16 C-7.09978121 12.50765756 -6.77842938 9.40562852 -6 6 C-5.38125 5.938125 -4.7625 5.87625 -4.125 5.8125 C-1.72238859 5.171081 -1.72238859 5.171081 -0.75 2.4375 C-0.5025 1.633125 -0.255 0.82875 0 0 Z " fill="#E3E3E1" transform="translate(904,1070)"/>
<path d="M0 0 C2.3431213 0.25561323 4.67843403 0.59270772 7 1 C7.33 1.66 7.66 2.32 8 3 C9.64363134 3.72159424 11.31050386 4.39351421 13 5 C13 5.66 13 6.32 13 7 C14.65 7 16.3 7 18 7 C18 7.99 18 8.98 18 10 C13.53202662 8.60121198 9.36177921 6.86369228 5.125 4.875 C3.97257812 4.33617187 2.82015625 3.79734375 1.6328125 3.2421875 C0.32957031 2.62730469 0.32957031 2.62730469 -1 2 C-0.67 1.34 -0.34 0.68 0 0 Z " fill="#E2E2E0" transform="translate(1361,707)"/>
<path d="M0 0 C0.66 0.33 1.32 0.66 2 1 C2 5.33847957 1.90028084 7.99059421 -1.0625 11.3125 C-2.0215625 12.1478125 -2.0215625 12.1478125 -3 13 C-3.33 12.01 -3.66 11.02 -4 10 C-3.34 10 -2.68 10 -2 10 C-1.67 8.35 -1.34 6.7 -1 5 C-1.78375 5.495 -2.5675 5.99 -3.375 6.5 C-6 8 -6 8 -8 8 C-8 7.34 -8 6.68 -8 6 C-7.34 6 -6.68 6 -6 6 C-6 5.34 -6 4.68 -6 4 C-5.34 4 -4.68 4 -4 4 C-3.67 3.34 -3.34 2.68 -3 2 C-2.01 1.34 -1.02 0.68 0 0 Z " fill="#F3F3F1" transform="translate(811,1191)"/>
<path d="M0 0 C0.33 0.99 0.66 1.98 1 3 C-0.36111354 5.29115858 -1.73832778 7.364807 -3.3125 9.5 C-3.93801758 10.37205078 -3.93801758 10.37205078 -4.57617188 11.26171875 C-5.71203498 12.84504308 -6.85569328 14.42276729 -8 16 C-8.66 16.99 -9.32 17.98 -10 19 C-10.98095748 20.01868662 -11.97702078 21.02351983 -13 22 C-13.66 21.67 -14.32 21.34 -15 21 C-14.50371094 20.32195313 -14.00742188 19.64390625 -13.49609375 18.9453125 C-8.92327143 12.68045915 -4.42281169 6.37161309 0 0 Z " fill="#242523" transform="translate(1122,778)"/>
<path d="M0 0 C-0.99 1.485 -0.99 1.485 -2 3 C-2 3.66 -2 4.32 -2 5 C-2.50658939 8.79942044 -4.20187157 10.47265819 -7 13 C-7.042721 11.33388095 -7.04063832 9.66617115 -7 8 C-6.67 7.67 -6.34 7.34 -6 7 C-6.66 6.01 -7.32 5.02 -8 4 C-8 3.34 -8 2.68 -8 2 C-4.77208445 -0.1519437 -3.71599191 -0.20086443 0 0 Z " fill="#F1F1EF" transform="translate(880,865)"/>
<path d="M0 0 C0.99 0.33 1.98 0.66 3 1 C2.67 1.66 2.34 2.32 2 3 C2.66 3 3.32 3 4 3 C4.1875 5.375 4.1875 5.375 4 8 C3.01 8.66 2.02 9.32 1 10 C-0.32 9.01 -1.64 8.02 -3 7 C-2.25 2.25 -2.25 2.25 0 0 Z " fill="#F1F3F0" transform="translate(1139,743)"/>
<path d="M0 0 C-0.928125 1.1446875 -0.928125 1.1446875 -1.875 2.3125 C-4.05597052 4.99625809 -4.05597052 4.99625809 -6 8 C-7.66666667 8 -9.33333333 8 -11 8 C-11 7.01 -11 6.02 -11 5 C-10.34 4.67 -9.68 4.34 -9 4 C-8.835 3.34 -8.67 2.68 -8.5 2 C-8.335 1.34 -8.17 0.68 -8 0 C-5.13822943 -1.43088528 -3.06624227 -0.59991697 0 0 Z " fill="#F5F5F2" transform="translate(825,907)"/>
<path d="M0 0 C4.73166952 2.36583476 7.30176919 10.21407682 9 15 C7.35 15.33 5.7 15.66 4 16 C4 13.36 4 10.72 4 8 C3.34 8 2.68 8 2 8 C2 7.34 2 6.68 2 6 C1.01 6 0.02 6 -1 6 C-0.67 4.02 -0.34 2.04 0 0 Z " fill="#DFDFDD" transform="translate(772,1041)"/>
<path d="M0 0 C3.465 1.98 3.465 1.98 7 4 C7.33 3.01 7.66 2.02 8 1 C10 3 10 3 10.125 6.125 C10.08375 7.07375 10.0425 8.0225 10 9 C9.01 9 8.02 9 7 9 C7 8.01 7 7.02 7 6 C5.35 6.33 3.7 6.66 2 7 C0 4 0 4 0 0 Z " fill="#F2F2F0" transform="translate(710,734)"/>
<path d="M0 0 C0.66 0 1.32 0 2 0 C3.47309111 2.10019014 4.81309635 4.17767729 6.125 6.375 C6.49753906 6.97828125 6.87007812 7.5815625 7.25390625 8.203125 C10 12.72965316 10 12.72965316 10 15 C9.34 15 8.68 15 8 15 C7.67 15.66 7.34 16.32 7 17 C7 16.34 7 15.68 7 15 C6.01 14.67 5.02 14.34 4 14 C4.66 13.67 5.32 13.34 6 13 C6 12.34 6 11.68 6 11 C5.34 10.67 4.68 10.34 4 10 C1.9904432 7.06295544 1 5.60777515 1 2 C0.34 1.67 -0.32 1.34 -1 1 C-0.67 0.67 -0.34 0.34 0 0 Z " fill="#E2E2E1" transform="translate(708,938)"/>
<path d="M0 0 C0.66 0.66 1.32 1.32 2 2 C1.01 3.485 1.01 3.485 0 5 C-0.1546875 6.2375 -0.1546875 6.2375 -0.3125 7.5 C-1 10 -1 10 -3.5625 11.8125 C-4.366875 12.204375 -5.17125 12.59625 -6 13 C-5.67 13.66 -5.34 14.32 -5 15 C-6.32 15.99 -7.64 16.98 -9 18 C-9.66 17.67 -10.32 17.34 -11 17 C-5.555 8.585 -5.555 8.585 0 0 Z " fill="#20201F" transform="translate(917,810)"/>
<path d="M0 0 C1.32 0.66 2.64 1.32 4 2 C3.67 2.99 3.34 3.98 3 5 C3 5.99 3 6.98 3 8 C-0.3 7.67 -3.6 7.34 -7 7 C-4.66666667 4.66666667 -2.33333333 2.33333333 0 0 Z " fill="#E9E9E7" transform="translate(1420,1063)"/>
<path d="M0 0 C2.63656296 1.31828148 3.24665334 2.82358672 4.6875 5.375 C5.14511719 6.16648437 5.60273437 6.95796875 6.07421875 7.7734375 C7 10 7 10 6 13 C4.68 12.67 3.36 12.34 2 12 C2.33 11.01 2.66 10.02 3 9 C2.34 8.67 1.68 8.34 1 8 C0.67 7.34 0.34 6.68 0 6 C-0.66 6 -1.32 6 -2 6 C-2 5.34 -2 4.68 -2 4 C-1.34 4 -0.68 4 0 4 C0 2.68 0 1.36 0 0 Z " fill="#E7E9E8" transform="translate(646,835)"/>
<path d="M0 0 C1.32 0.66 2.64 1.32 4 2 C2.35 2.66 0.7 3.32 -1 4 C-0.6596875 4.8971875 -0.6596875 4.8971875 -0.3125 5.8125 C0 8 0 8 -1.125 9.6875 C-3.38425603 11.26897922 -5.30904509 11.52798004 -8 12 C-6.85573734 10.186508 -5.70954608 8.37423275 -4.5625 6.5625 C-3.60537109 5.04849609 -3.60537109 5.04849609 -2.62890625 3.50390625 C-1 1 -1 1 0 0 Z " fill="#E4E4E1" transform="translate(1035,807)"/>
<path d="M0 0 C0.99 0.33 1.98 0.66 3 1 C2.67 2.32 2.34 3.64 2 5 C1.34 5 0.68 5 0 5 C-1.11785113 7.11785113 -1.11785113 7.11785113 -2 10 C-2.99 10.33 -3.98 10.66 -5 11 C-5.33 10.01 -5.66 9.02 -6 8 C-4.78515625 5.95703125 -4.78515625 5.95703125 -3.0625 3.8125 C-2.49660156 3.09707031 -1.93070313 2.38164063 -1.34765625 1.64453125 C-0.90292969 1.10183594 -0.45820312 0.55914063 0 0 Z " fill="#E6E6E4" transform="translate(957,1135)"/>
<path d="M0 0 C1.09190042 3.27570125 1.28600189 5.56797729 1 9 C-0.3125 10.875 -0.3125 10.875 -2 12 C-2.99 12 -3.98 12 -5 12 C-5 10.35 -5 8.7 -5 7 C-4.34 6.67 -3.68 6.34 -3 6 C-3 5.34 -3 4.68 -3 4 C-2.34 4 -1.68 4 -1 4 C-0.67 2.68 -0.34 1.36 0 0 Z " fill="#EFF1F0" transform="translate(1012,1139)"/>
<path d="M0 0 C1.10286876 4.41147506 0.80567731 5.93722605 -1 10 C-4 11 -4 11 -7 10 C-3.535 5.05 -3.535 5.05 0 0 Z " fill="#191917" transform="translate(1031,1122)"/>
<path d="M0 0 C0.66 1.32 1.32 2.64 2 4 C0.6078125 4.1546875 0.6078125 4.1546875 -0.8125 4.3125 C-4.03254358 5.0070192 -5.02579865 5.47740939 -7 8 C-7.99 7.67 -8.98 7.34 -10 7 C-8.3125 4 -8.3125 4 -6 1 C-3.3125 0.6875 -3.3125 0.6875 -1 1 C-0.67 0.67 -0.34 0.34 0 0 Z " fill="#E2E2E0" transform="translate(853,1066)"/>
<path d="M0 0 C1.15957207 3.47871621 0.77456651 4.34219645 -0.4375 7.6875 C-0.72496094 8.49574219 -1.01242187 9.30398438 -1.30859375 10.13671875 C-1.53675781 10.75160156 -1.76492188 11.36648438 -2 12 C-4.475 11.01 -4.475 11.01 -7 10 C-6.02223933 8.51990357 -5.0427506 7.04094856 -4.0625 5.5625 C-3.51722656 4.73878906 -2.97195313 3.91507813 -2.41015625 3.06640625 C-1 1 -1 1 0 0 Z " fill="#E8E8E8" transform="translate(1055,1000)"/>
<path d="M0 0 C0.99 0.99 1.98 1.98 3 3 C3.66 2.67 4.32 2.34 5 2 C4.75 4.375 4.75 4.375 4 7 C1.9375 8.3125 1.9375 8.3125 0 9 C-0.99 8.01 -1.98 7.02 -3 6 C-2.01 5.01 -1.02 4.02 0 3 C-0.66 2.67 -1.32 2.34 -2 2 C-1.34 1.34 -0.68 0.68 0 0 Z " fill="#F3F3F1" transform="translate(1003,929)"/>
<path d="M0 0 C0.99 0 1.98 0 3 0 C3 0.66 3 1.32 3 2 C3.66 2.33 4.32 2.66 5 3 C5 3.99 5 4.98 5 6 C4.34 6 3.68 6 3 6 C3 6.66 3 7.32 3 8 C2.34 8 1.68 8 1 8 C1 7.34 1 6.68 1 6 C0.01 5.67 -0.98 5.34 -2 5 C-2 4.01 -2 3.02 -2 2 C-1.34 2 -0.68 2 0 2 C0 1.34 0 0.68 0 0 Z " fill="#F0F2EF" transform="translate(882,847)"/>
<path d="M0 0 C3 3.75 3 3.75 3 6 C3.66 6 4.32 6 5 6 C5.66 7.32 6.32 8.64 7 10 C7.99 9.67 8.98 9.34 10 9 C10 9.66 10 10.32 10 11 C9.34 11 8.68 11 8 11 C7.67 11.66 7.34 12.32 7 13 C5.1875 12.5 5.1875 12.5 3 11 C1.14053309 7.39776912 0 4.06166652 0 0 Z " fill="#F2F2F1" transform="translate(733,770)"/>
<path d="M0 0 C0.99 0.33 1.98 0.66 3 1 C3.125 7.625 3.125 7.625 2 11 C1.34 10.67 0.68 10.34 0 10 C0.33 9.34 0.66 8.68 1 8 C0.01 8 -0.98 8 -2 8 C-1.814375 7.38125 -1.62875 6.7625 -1.4375 6.125 C-0.76313824 3.95839822 -0.76313824 3.95839822 -2 2 C-1.34 2 -0.68 2 0 2 C0 1.34 0 0.68 0 0 Z " fill="#F1F3F2" transform="translate(577,725)"/>
<path d="M0 0 C2.125 0.375 2.125 0.375 4 1 C0.25 7.875 0.25 7.875 -2 9 C-2.66 8.67 -3.32 8.34 -4 8 C-2.25 2.25 -2.25 2.25 0 0 Z " fill="#E4E4E2" transform="translate(944,1015)"/>
<path d="M0 0 C0.99 0.495 0.99 0.495 2 1 C2.44921875 3.65234375 2.44921875 3.65234375 2.6875 6.9375 C2.77386719 8.01902344 2.86023437 9.10054687 2.94921875 10.21484375 C3 13 3 13 2 15 C1.34 15 0.68 15 0 15 C0 10.05 0 5.1 0 0 Z " fill="#F2F2F2" transform="translate(1487,873)"/>
<path d="M0 0 C1.62490954 -0.02698189 3.24994633 -0.04638757 4.875 -0.0625 C5.77992187 -0.07410156 6.68484375 -0.08570312 7.6171875 -0.09765625 C10 0 10 0 12 1 C12 2.32 12 3.64 12 5 C11.34 5 10.68 5 10 5 C10 4.34 10 3.68 10 3 C6.7 3 3.4 3 0 3 C0 2.01 0 1.02 0 0 Z " fill="#DBDBD9" transform="translate(55,69)"/>
<path d="M0 0 C0.66 0.33 1.32 0.66 2 1 C0.07423885 3.43929746 -1.80090595 5.80090595 -4 8 C-4 8.99 -4 9.98 -4 11 C-5.66666667 11 -7.33333333 11 -9 11 C-7.59155282 7.78475695 -5.89655214 5.67816132 -3.375 3.25 C-2.74335937 2.63640625 -2.11171875 2.0228125 -1.4609375 1.390625 C-0.73777344 0.70226563 -0.73777344 0.70226563 0 0 Z " fill="#F4F4F3" transform="translate(1431,1053)"/>
<path d="M0 0 C1.0536628 3.16098841 1.21514551 4.00887259 0 7 C-0.680625 7.495 -1.36125 7.99 -2.0625 8.5 C-2.701875 8.995 -3.34125 9.49 -4 10 C-4 11.32 -4 12.64 -4 14 C-4.66 14 -5.32 14 -6 14 C-6.71484375 12.328125 -6.71484375 12.328125 -7 10 C-5.56640625 7.421875 -5.56640625 7.421875 -3.5625 4.75 C-2.90378906 3.85796875 -2.24507812 2.9659375 -1.56640625 2.046875 C-1.04949219 1.37140625 -0.53257813 0.6959375 0 0 Z M2 2 C2.33 2.99 2.66 3.98 3 5 C2.01 5 1.02 5 0 5 C0.66 4.01 1.32 3.02 2 2 Z " fill="#DBDBD9" transform="translate(1098,940)"/>
<path d="M0 0 C3.40898356 2.27265571 3.67054073 3.27751404 5 7 C5.65213539 8.34050052 6.31379969 9.67661368 7 11 C5.68 11.33 4.36 11.66 3 12 C2.49166409 10.75336669 1.99368855 9.50250613 1.5 8.25 C1.2215625 7.55390625 0.943125 6.8578125 0.65625 6.140625 C0 4 0 4 0 0 Z " fill="#F5F5F3" transform="translate(1474,821)"/>
<path d="M0 0 C0.99 0.495 0.99 0.495 2 1 C2 1.66 2 2.32 2 3 C1.34 3 0.68 3 0 3 C0 2.01 0 1.02 0 0 Z M-3 0 C-2.01 1.32 -1.02 2.64 0 4 C-1.32 4.99 -2.64 5.98 -4 7 C-4 6.34 -4 5.68 -4 5 C-5.32 4.67 -6.64 4.34 -8 4 C-8 3.01 -8 2.02 -8 1 C-6.515 1.99 -6.515 1.99 -5 3 C-5 2.34 -5 1.68 -5 1 C-4.34 0.67 -3.68 0.34 -3 0 Z " fill="#F4F4F2" transform="translate(1447,761)"/>
<path d="M0 0 C0.66 0.33 1.32 0.66 2 1 C1.649375 1.61875 1.29875 2.2375 0.9375 2.875 C0.628125 3.57625 0.31875 4.2775 0 5 C0.33 5.66 0.66 6.32 1 7 C-5.625 6.25 -5.625 6.25 -9 4 C-8.2575 3.71125 -7.515 3.4225 -6.75 3.125 C-4.05125691 2.07918522 -4.05125691 2.07918522 -1.8125 0.8125 C-1.214375 0.544375 -0.61625 0.27625 0 0 Z " fill="#F6F6F4" transform="translate(1346,696)"/>
<path d="M0 0 C0 0.66 0 1.32 0 2 C-6.27 1.67 -12.54 1.34 -19 1 C-19 0.67 -19 0.34 -19 0 C-17.95199219 -0.09087891 -17.95199219 -0.09087891 -16.8828125 -0.18359375 C-15.97273438 -0.26738281 -15.06265625 -0.35117187 -14.125 -0.4375 C-13.22007813 -0.51871094 -12.31515625 -0.59992187 -11.3828125 -0.68359375 C-6.70743839 -1.30442212 -4.88664227 -1.53838738 0 0 Z " fill="#E3E3E0" transform="translate(1302,692)"/>
<path d="M0 0 C1.04449911 3.13349732 0.93423645 3.98968256 0 7 C-0.66 7 -1.32 7 -2 7 C-2.33 8.32 -2.66 9.64 -3 11 C-4.65 11.33 -6.3 11.66 -8 12 C-6.85573734 10.186508 -5.70954608 8.37423275 -4.5625 6.5625 C-3.60537109 5.04849609 -3.60537109 5.04849609 -2.62890625 3.50390625 C-1 1 -1 1 0 0 Z " fill="#E3E3E2" transform="translate(1005,1069)"/>
<path d="M0 0 C0.58203125 1.90625 0.58203125 1.90625 1 4 C-0.3125 5.5 -0.3125 5.5 -2 7 C-2.28875 7.66 -2.5775 8.32 -2.875 9 C-4.38454453 11.68363472 -6.31920874 12.58905723 -9 14 C-7.45158425 10.65291949 -5.50894136 7.75332488 -3.375 4.75 C-2.74335937 3.85796875 -2.11171875 2.9659375 -1.4609375 2.046875 C-0.73777344 1.03367187 -0.73777344 1.03367187 0 0 Z " fill="#20201E" transform="translate(1083,1052)"/>
<path d="M0 0 C3.465 1.98 3.465 1.98 7 4 C6.67 5.32 6.34 6.64 6 8 C0.25 6.375 0.25 6.375 -2 3 C-1.34 2.67 -0.68 2.34 0 2 C0 1.34 0 0.68 0 0 Z " fill="#DDDFDD" transform="translate(1335,810)"/>
<path d="M0 0 C0.66 0.33 1.32 0.66 2 1 C1.67 1.99 1.34 2.98 1 4 C1.66 4 2.32 4 3 4 C2.34 5.65 1.68 7.3 1 9 C0.01 8.34 -0.98 7.68 -2 7 C-2.99 7 -3.98 7 -5 7 C-3.35 4.69 -1.7 2.38 0 0 Z " fill="#F2F2F2" transform="translate(1439,1044)"/>
<path d="M0 0 C0.33 0.99 0.66 1.98 1 3 C0.34 3 -0.32 3 -1 3 C-0.67 4.65 -0.34 6.3 0 8 C-0.99 8.495 -0.99 8.495 -2 9 C-2 8.34 -2 7.68 -2 7 C-4.49064888 6.31292445 -6.37886292 6 -9 6 C-6.11964908 3.75972706 -3.15133488 1.83827868 0 0 Z " fill="#F2F3F1" transform="translate(974,973)"/>
<path d="M0 0 C0 1.98 0 3.96 0 6 C-0.99 6.33 -1.98 6.66 -3 7 C-3.66 7.66 -4.32 8.32 -5 9 C-5.66 8.67 -6.32 8.34 -7 8 C-6.67 5.69 -6.34 3.38 -6 1 C-5.67 1.66 -5.34 2.32 -5 3 C-4.54625 2.505 -4.0925 2.01 -3.625 1.5 C-2 0 -2 0 0 0 Z " fill="#F1F1F0" transform="translate(1489,947)"/>
<path d="M0 0 C2.475 0.495 2.475 0.495 5 1 C5.6875 2.8125 5.6875 2.8125 6 5 C4.5625 6.75 4.5625 6.75 3 8 C0 3.375 0 3.375 0 0 Z " fill="#E4E4E2" transform="translate(828,935)"/>
<path d="M0 0 C2.31 0.33 4.62 0.66 7 1 C7 2.98 7 4.96 7 7 C5.68 7.33 4.36 7.66 3 8 C3 6.68 3 5.36 3 4 C2.01 4.33 1.02 4.66 0 5 C-0.33 4.01 -0.66 3.02 -1 2 C-0.67 1.34 -0.34 0.68 0 0 Z " fill="#F1F1EF" transform="translate(655,863)"/>
<path d="M0 0 C1 4 1 4 1 7 C-1.90600261 8.25664978 -3.79604584 9 -7 9 C-4.69 6.03 -2.38 3.06 0 0 Z " fill="#1C1E1B" transform="translate(1084,831)"/>
<path d="M0 0 C0.99 0 1.98 0 3 0 C5.125 6.75 5.125 6.75 4 9 C3.34 9 2.68 9 2 9 C-1.11450382 4.84732824 -1.11450382 4.84732824 -0.6875 1.6875 C-0.460625 1.130625 -0.23375 0.57375 0 0 Z " fill="#F3F3F2" transform="translate(756,810)"/>
<path d="M0 0 C0.99 0.33 1.98 0.66 3 1 C3 4.66666667 3 8.33333333 3 12 C0.7522025 9.94766315 -0.0022242 8.99332739 -1 6 C-1.66 5.67 -2.32 5.34 -3 5 C-2 3 -2 3 0 0 Z " fill="#191A16" transform="translate(564,695)"/>
<path d="M0 0 C0.66 0.33 1.32 0.66 2 1 C3.67654729 0.72057545 5.34608154 0.39171753 7 0 C6.67 1.65 6.34 3.3 6 5 C5.01 5.33 4.02 5.66 3 6 C3 5.34 3 4.68 3 4 C1.35 4 -0.3 4 -2 4 C-1.34 2.68 -0.68 1.36 0 0 Z " fill="#DFDFDE" transform="translate(960,1130)"/>
<path d="M0 0 C0.99 0.33 1.98 0.66 3 1 C2.34 1 1.68 1 1 1 C0.87625 1.804375 0.7525 2.60875 0.625 3.4375 C0.41875 4.283125 0.2125 5.12875 0 6 C-0.99 6.495 -0.99 6.495 -2 7 C-2.33 7.99 -2.66 8.98 -3 10 C-5.5625 11.6875 -5.5625 11.6875 -8 13 C-6.53181332 9.89257577 -4.79975 7.09528261 -2.875 4.25 C-2.33617187 3.45078125 -1.79734375 2.6515625 -1.2421875 1.828125 C-0.62730469 0.92320312 -0.62730469 0.92320312 0 0 Z " fill="#D4D4D2" transform="translate(1208,791)"/>
<path d="M0 0 C4.62 0 9.24 0 14 0 C13.67 1.32 13.34 2.64 13 4 C11 4 11 4 8 3 C8.33 2.34 8.66 1.68 9 1 C8.2575 1.20625 7.515 1.4125 6.75 1.625 C4 2 4 2 0 0 Z " fill="#E4E4E2" transform="translate(1945,1985)"/>
<path d="M0 0 C0.66 0 1.32 0 2 0 C2.33 0.99 2.66 1.98 3 3 C1.56640625 5.26171875 1.56640625 5.26171875 -0.4375 7.6875 C-1.09621094 8.49574219 -1.75492188 9.30398438 -2.43359375 10.13671875 C-2.95050781 10.75160156 -3.46742188 11.36648438 -4 12 C-4.66 11.34 -5.32 10.68 -6 10 C-5.195625 9.0925 -4.39125 8.185 -3.5625 7.25 C-1.58857329 4.89690092 -0.36122533 3.13061954 0 0 Z " fill="#E5E5E4" transform="translate(813,1195)"/>
<path d="M0 0 C-2 3 -2 3 -4.1640625 3.73046875 C-5.38222656 3.95669922 -5.38222656 3.95669922 -6.625 4.1875 C-7.85089844 4.42533203 -7.85089844 4.42533203 -9.1015625 4.66796875 C-10.04128906 4.83232422 -10.04128906 4.83232422 -11 5 C-11.33 4.01 -11.66 3.02 -12 2 C-7.8803623 0.70756464 -4.33168317 -0.26252625 0 0 Z " fill="#DEDEDD" transform="translate(1348,1107)"/>
<path d="M0 0 C1.2380014 3.57644848 0.74926071 6.33694766 0 10 C-0.99 10 -1.98 10 -3 10 C-3.36923077 4.58461538 -3.36923077 4.58461538 -1.5 1.625 C-1.005 1.08875 -0.51 0.5525 0 0 Z " fill="#E4E4E3" transform="translate(895,1001)"/>
<path d="M0 0 C1.39859201 4.89507202 1.0592882 8.36660155 -1 13 C-1.99 13 -2.98 13 -4 13 C-2.93204565 8.49933525 -1.85961414 4.2505466 0 0 Z " fill="#F5F5F3" transform="translate(1482,959)"/>
<path d="M0 0 C0.66 0.33 1.32 0.66 2 1 C-5.11389522 8.66742597 -5.11389522 8.66742597 -10 10 C-9.34 8.68 -8.68 7.36 -8 6 C-7.34 6 -6.68 6 -6 6 C-6 5.34 -6 4.68 -6 4 C-4.03852126 2.61061923 -2.03833424 1.2739589 0 0 Z " fill="#E5E5E3" transform="translate(1582,1954)"/>
<path d="M0 0 C0.33 0 0.66 0 1 0 C1 2.64 1 5.28 1 8 C1.66 8 2.32 8 3 8 C2.67 9.98 2.34 11.96 2 14 C1.01 14.33 0.02 14.66 -1 15 C-0.67 10.05 -0.34 5.1 0 0 Z " fill="#CFCFCF" transform="translate(1486,926)"/>
<path d="M0 0 C0.66 0 1.32 0 2 0 C2.66 1.32 3.32 2.64 4 4 C3.01 4.99 2.02 5.98 1 7 C0.67 6.67 0.34 6.34 0 6 C-0.99 7.485 -0.99 7.485 -2 9 C-2.66 8.01 -3.32 7.02 -4 6 C-3.34 6 -2.68 6 -2 6 C-1.7834375 5.071875 -1.7834375 5.071875 -1.5625 4.125 C-1 2 -1 2 0 0 Z " fill="#F2F2F0" transform="translate(1069,842)"/>
<path d="M0 0 C0.66 0.66 1.32 1.32 2 2 C4.10820797 1.6814823 4.10820797 1.6814823 6 1 C5.67 2.32 5.34 3.64 5 5 C3.35 5.33 1.7 5.66 0 6 C-0.66 5.01 -1.32 4.02 -2 3 C-1.34 3 -0.68 3 0 3 C0 2.01 0 1.02 0 0 Z " fill="#F3F3F1" transform="translate(1163,712)"/>
<path d="M0 0 C0.66 0.33 1.32 0.66 2 1 C2.625 3.0625 2.625 3.0625 3 5 C1.35 5.66 -0.3 6.32 -2 7 C-2.66 6.34 -3.32 5.68 -4 5 C-2.68 3.35 -1.36 1.7 0 0 Z " fill="#E2E2E0" transform="translate(932,1169)"/>
<path d="M0 0 C1.08784335 3.31395986 1.07262544 3.83580335 -0.4375 7.25 C-0.953125 8.1575 -1.46875 9.065 -2 10 C-2.99 10 -3.98 10 -5 10 C-5 6.60406522 -4.47834052 5.93380119 -2.5 3.3125 C-2.0359375 2.68988281 -1.571875 2.06726562 -1.09375 1.42578125 C-0.7328125 0.95527344 -0.371875 0.48476562 0 0 Z " fill="#E5E6E3" transform="translate(828,1093)"/>
<path d="M0 0 C3.875 4.75 3.875 4.75 5 7 C4.34 7 3.68 7 3 7 C2.67 7.66 2.34 8.32 2 9 C0 8 0 8 -1.25 5.625 C-1.4975 4.75875 -1.745 3.8925 -2 3 C-1.34 2.01 -0.68 1.02 0 0 Z " fill="#E2E2E1" transform="translate(681,892)"/>
<path d="M0 0 C0.66 0.33 1.32 0.66 2 1 C1.01 2.485 1.01 2.485 0 4 C-0.66 4 -1.32 4 -2 4 C-2.33 4.99 -2.66 5.98 -3 7 C-4.32 6.34 -5.64 5.68 -7 5 C-7 3.68 -7 2.36 -7 1 C-4 2 -4 2 -3 3 C-2.01 2.01 -1.02 1.02 0 0 Z " fill="#F2F2F0" transform="translate(1441,752)"/>
<path d="M0 0 C0.33 0.99 0.66 1.98 1 3 C0.34 3.66 -0.32 4.32 -1 5 C-1.99 5 -2.98 5 -4 5 C-4.33 4.01 -4.66 3.02 -5 2 C-2 0 -2 0 0 0 Z M-3 5 C-2.34 5.33 -1.68 5.66 -1 6 C-0.67 6.99 -0.34 7.98 0 9 C-1.32 8.67 -2.64 8.34 -4 8 C-3.67 7.01 -3.34 6.02 -3 5 Z " fill="#F6F5F3" transform="translate(1111,708)"/>
<path d="M0 0 C1 3 1 3 0.07421875 5.04296875 C-0.61220703 6.10451172 -0.61220703 6.10451172 -1.3125 7.1875 C-1.76238281 7.90292969 -2.21226562 8.61835937 -2.67578125 9.35546875 C-3.11277344 9.89816406 -3.54976562 10.44085937 -4 11 C-4.66 11 -5.32 11 -6 11 C-5.39305845 7.84669446 -4.3583335 5.81111133 -2.4375 3.25 C-1.98246094 2.63640625 -1.52742187 2.0228125 -1.05859375 1.390625 C-0.70925781 0.93171875 -0.35992188 0.4728125 0 0 Z " fill="#DDDDDC" transform="translate(921,1184)"/>
<path d="M0 0 C0.33 0.66 0.66 1.32 1 2 C-1.18610882 6.37221763 -3.32241995 9.71644638 -7 13 C-7.66 12.67 -8.32 12.34 -9 12 C-8.27683594 11.07767578 -8.27683594 11.07767578 -7.5390625 10.13671875 C-6.90742187 9.32847656 -6.27578125 8.52023437 -5.625 7.6875 C-4.99851562 6.88699219 -4.37203125 6.08648438 -3.7265625 5.26171875 C-2.42243282 3.55336788 -1.19218183 1.78827274 0 0 Z " fill="#323332" transform="translate(1003,1160)"/>
<path d="M0 0 C1.175625 0.5259375 1.175625 0.5259375 2.375 1.0625 C3.674375 1.5265625 3.674375 1.5265625 5 2 C5.66 1.67 6.32 1.34 7 1 C5.6062718 5.43458973 3.39417765 7.87378374 0 11 C0.350625 10.2575 0.70125 9.515 1.0625 8.75 C2.0583663 5.82879218 2.06781058 4.81513699 1 2 C0.67 1.34 0.34 0.68 0 0 Z " fill="#F2F2F0" transform="translate(843,1148)"/>
<path d="M0 0 C1.65 0 3.3 0 5 0 C5.33 0.66 5.66 1.32 6 2 C5.01 2.495 5.01 2.495 4 3 C4 4.32 4 5.64 4 7 C3.01 7.495 3.01 7.495 2 8 C1.34 5.36 0.68 2.72 0 0 Z " fill="#F2F2EF" transform="translate(874,1106)"/>
<path d="M0 0 C0.66 0 1.32 0 2 0 C2.33 0.99 2.66 1.98 3 3 C2.34 3 1.68 3 1 3 C0.773125 3.61875 0.54625 4.2375 0.3125 4.875 C-1.38277796 7.61973575 -3.02945954 7.93463654 -6 9 C-5.05016642 7.49460339 -4.08988109 5.99579653 -3.125 4.5 C-2.59132813 3.6646875 -2.05765625 2.829375 -1.5078125 1.96875 C-0.76144531 0.99421875 -0.76144531 0.99421875 0 0 Z " fill="#E4E3E1" transform="translate(841,1075)"/>
<path d="M0 0 C1.32 1.32 2.64 2.64 4 4 C3.67 4.99 3.34 5.98 3 7 C2.34 7 1.68 7 1 7 C0.67 7.99 0.34 8.98 0 10 C-0.66 9.67 -1.32 9.34 -2 9 C-1.34 7.02 -0.68 5.04 0 3 C-0.99 3.495 -0.99 3.495 -2 4 C-1.34 2.68 -0.68 1.36 0 0 Z " fill="#F2F4F1" transform="translate(745,998)"/>
<path d="M0 0 C1.32 0.66 2.64 1.32 4 2 C4 2.66 4 3.32 4 4 C3.01 4 2.02 4 1 4 C1 4.66 1 5.32 1 6 C0.34 6 -0.32 6 -1 6 C-1 5.34 -1 4.68 -1 4 C-1.66 3.67 -2.32 3.34 -3 3 C-2.01 2.01 -1.02 1.02 0 0 Z M-2 6 C-2 6.99 -2 7.98 -2 9 C-2.66 8.67 -3.32 8.34 -4 8 C-3.34 7.34 -2.68 6.68 -2 6 Z " fill="#F2F2F0" transform="translate(903,817)"/>
<path d="M0 0 C5.75 0.875 5.75 0.875 8 2 C8 2.66 8 3.32 8 4 C5.69 4 3.38 4 1 4 C0.67 4.66 0.34 5.32 0 6 C-1 3 -1 3 0 0 Z " fill="#F5F5F3" transform="translate(1320,804)"/>
<path d="M0 0 C0.99 0.495 0.99 0.495 2 1 C2 2.32 2 3.64 2 5 C2.99 5.33 3.98 5.66 5 6 C7.07530387 8.92079805 8 10.37546731 8 14 C6.29115995 12.37660195 4.62553283 10.70680947 3 9 C3 8.34 3 7.68 3 7 C2.34 7 1.68 7 1 7 C0.67 4.69 0.34 2.38 0 0 Z " fill="#72756E" transform="translate(559,695)"/>
<path d="M0 0 C0.66 0 1.32 0 2 0 C2.33 0.99 2.66 1.98 3 3 C3.66 3.66 4.32 4.32 5 5 C4.01 5.33 3.02 5.66 2 6 C2.33 7.32 2.66 8.64 3 10 C2.01 10.495 2.01 10.495 1 11 C-1.125 3.375 -1.125 3.375 0 0 Z " fill="#F3F3F1" transform="translate(753,1014)"/>
<path d="M0 0 C0.75 1.6875 0.75 1.6875 1 4 C-1.13381449 7.2769294 -2.25018012 8.75006004 -6 10 C-4.6302836 6.00499382 -2.74277578 3.19990508 0 0 Z " fill="#1A1D1B" transform="translate(1018,920)"/>
<path d="M0 0 C2.97 0.495 2.97 0.495 6 1 C4.02 3.97 4.02 3.97 2 7 C1.34 6.01 0.68 5.02 0 4 C-0.66 4 -1.32 4 -2 4 C-2 3.34 -2 2.68 -2 2 C-1.34 2 -0.68 2 0 2 C0 1.34 0 0.68 0 0 Z " fill="#EAEAE8" transform="translate(841,918)"/>
<path d="M0 0 C2.31 0.33 4.62 0.66 7 1 C7 1.66 7 2.32 7 3 C6.34 3 5.68 3 5 3 C4.67 3.99 4.34 4.98 4 6 C2 4.6875 2 4.6875 0 3 C0 2.01 0 1.02 0 0 Z " fill="#F4F4F2" transform="translate(783,857)"/>
<path d="M0 0 C0.66 0.33 1.32 0.66 2 1 C2 4.3 2 7.6 2 11 C1.34 11 0.68 11 0 11 C-0.19406478 9.35492782 -0.38007935 7.70890406 -0.5625 6.0625 C-0.66691406 5.14597656 -0.77132813 4.22945312 -0.87890625 3.28515625 C-0.91886719 2.53105469 -0.95882813 1.77695312 -1 1 C-0.67 0.67 -0.34 0.34 0 0 Z " fill="#F3F3F3" transform="translate(1483,847)"/>
<path d="M0 0 C0.66 0 1.32 0 2 0 C2.22174933 1.45635371 2.42698698 2.91522956 2.625 4.375 C2.74101563 5.18710937 2.85703125 5.99921875 2.9765625 6.8359375 C2.98429687 7.55007813 2.99203125 8.26421875 3 9 C2.34 9.66 1.68 10.32 1 11 C0.63890458 9.35567294 0.28629924 7.7094792 -0.0625 6.0625 C-0.25972656 5.14597656 -0.45695312 4.22945312 -0.66015625 3.28515625 C-0.77230469 2.53105469 -0.88445312 1.77695312 -1 1 C-0.67 0.67 -0.34 0.34 0 0 Z " fill="#E4E4E2" transform="translate(1478,832)"/>
<path d="M0 0 C4 4.625 4 4.625 4 8 C0.73539027 6.19587357 -0.88929795 5.16605307 -3 2 C-2.01 2 -1.02 2 0 2 C0 1.34 0 0.68 0 0 Z " fill="#E0E1E0" transform="translate(641,827)"/>
<path d="M0 0 C0.99 0.33 1.98 0.66 3 1 C2.34099246 4.07536854 1.46132217 6.07735566 0 9 C-2.475 5.04 -2.475 5.04 -5 1 C-3.68 1.33 -2.36 1.66 -1 2 C-0.67 1.34 -0.34 0.68 0 0 Z " fill="#252A28" transform="translate(573,708)"/>
<path d="M0 0 C0.33 0.66 0.66 1.32 1 2 C0.26708288 3.1774734 -0.48703801 4.34176854 -1.25 5.5 C-1.66765625 6.1496875 -2.0853125 6.799375 -2.515625 7.46875 C-3.00546875 7.9740625 -3.4953125 8.479375 -4 9 C-5.32 9 -6.64 9 -8 9 C-7.67 8.01 -7.34 7.02 -7 6 C-6.34 6 -5.68 6 -5 6 C-3.2856382 4.04072937 -1.61594832 2.04119788 0 0 Z " fill="#F4F4F4" transform="translate(827,1179)"/>
<path d="M0 0 C1.32 1.32 2.64 2.64 4 4 C3.01 5.32 2.02 6.64 1 8 C0.67 7.01 0.34 6.02 0 5 C-0.66 5 -1.32 5 -2 5 C-2.33 5.66 -2.66 6.32 -3 7 C-3.66 6.67 -4.32 6.34 -5 6 C-4.67 5.01 -4.34 4.02 -4 3 C-1.9375 2.3125 -1.9375 2.3125 0 2 C0 1.34 0 0.68 0 0 Z " fill="#E4E4E2" transform="translate(854,1136)"/>
<path d="M0 0 C-0.33 0.66 -0.66 1.32 -1 2 C-1.66 2 -2.32 2 -3 2 C-3 2.99 -3 3.98 -3 5 C-3.99 4.67 -4.98 4.34 -6 4 C-6 3.34 -6 2.68 -6 2 C-6.66 1.67 -7.32 1.34 -8 1 C-4.93251126 -0.86240388 -3.40254489 -1.2151946 0 0 Z " fill="#DCDCDA" transform="translate(1372,1098)"/>
<path d="M0 0 C-1.41519715 2.0343459 -2.54982123 2.90410393 -4.98046875 3.421875 C-6.98176954 3.66273952 -8.9909944 3.83532741 -11 4 C-11 3.34 -11 2.68 -11 2 C-7.17679443 0.57741188 -4.08718695 -0.24042276 0 0 Z " fill="#F6F6F4" transform="translate(1311,1010)"/>
<path d="M0 0 C2.475 0.99 2.475 0.99 5 2 C5 3.32 5 4.64 5 6 C3.35 6.33 1.7 6.66 0 7 C-1.39410431 4.21179139 -0.77115127 2.98821118 0 0 Z " fill="#F3F3F1" transform="translate(697,928)"/>
<path d="M0 0 C0.66 0.33 1.32 0.66 2 1 C2 1.66 2 2.32 2 3 C2.66 3 3.32 3 4 3 C3.6875 6.375 3.6875 6.375 3 10 C2.01 10.66 1.02 11.32 0 12 C-0.33 11.01 -0.66 10.02 -1 9 C-0.01 8.01 0.98 7.02 2 6 C1.34 4.02 0.68 2.04 0 0 Z " fill="#F1F1EF" transform="translate(1026,896)"/>
<path d="M0 0 C0.78375 0.04125 1.5675 0.0825 2.375 0.125 C2.375 1.115 2.375 2.105 2.375 3.125 C1.735625 3.24875 1.09625 3.3725 0.4375 3.5 C-0.243125 3.70625 -0.92375 3.9125 -1.625 4.125 C-1.955 4.785 -2.285 5.445 -2.625 6.125 C-3.285 4.805 -3.945 3.485 -4.625 2.125 C-2.625 0.125 -2.625 0.125 0 0 Z " fill="#F1F1F1" transform="translate(628.625,809.875)"/>
<path d="M0 0 C0.99 0 1.98 0 3 0 C3 0.66 3 1.32 3 2 C2.01 2.495 2.01 2.495 1 3 C0.71125 3.639375 0.4225 4.27875 0.125 4.9375 C-1.22909764 7.42001234 -2.42178493 7.96871397 -5 9 C-3.76067171 5.56801397 -2.49698489 2.69674368 0 0 Z " fill="#E1E1E1" transform="translate(991,1088)"/>
<path d="M0 0 C0.99 0 1.98 0 3 0 C2.49477778 4.37859255 -0.17827222 6.81651224 -3 10 C-3.33 9.01 -3.66 8.02 -4 7 C-2.625 5 -2.625 5 -1 3 C-0.67 2.01 -0.34 1.02 0 0 Z " fill="#EDEDEB" transform="translate(1066,1070)"/>
<path d="M0 0 C0.66 1.32 1.32 2.64 2 4 C0.02 4.99 0.02 4.99 -2 6 C-2 6.66 -2 7.32 -2 8 C-3.98 8.99 -3.98 8.99 -6 10 C-4.34832443 6.4213696 -2.21713508 3.25179812 0 0 Z " fill="#E0E0DE" transform="translate(1028,1037)"/>
<path d="M0 0 C0.33 0.99 0.66 1.98 1 3 C-0.21484375 5.04296875 -0.21484375 5.04296875 -1.9375 7.1875 C-2.50339844 7.90292969 -3.06929687 8.61835937 -3.65234375 9.35546875 C-4.09707031 9.89816406 -4.54179688 10.44085937 -5 11 C-5.66 10.67 -6.32 10.34 -7 10 C-3.535 5.05 -3.535 5.05 0 0 Z " fill="#2B2C29" transform="translate(956,1004)"/>
<path d="M0 0 C0.33 0.66 0.66 1.32 1 2 C1.66 2 2.32 2 3 2 C3.66 3.65 4.32 5.3 5 7 C4.01 6.67 3.02 6.34 2 6 C2 5.34 2 4.68 2 4 C0.35 4.33 -1.3 4.66 -3 5 C-2.01 3.35 -1.02 1.7 0 0 Z " fill="#DCDCDA" transform="translate(931,952)"/>
<path d="M0 0 C0.33 0.66 0.66 1.32 1 2 C-0.32 3.32 -1.64 4.64 -3 6 C-3 5.34 -3 4.68 -3 4 C-4.98 4.99 -4.98 4.99 -7 6 C-6.67 4.35 -6.34 2.7 -6 1 C-5.38125 1.20625 -4.7625 1.4125 -4.125 1.625 C-3.073125 1.810625 -3.073125 1.810625 -2 2 C-1.34 1.34 -0.68 0.68 0 0 Z " fill="#F2F2F0" transform="translate(1054,868)"/>
<path d="M0 0 C0.66 0.66 1.32 1.32 2 2 C2.66 1.67 3.32 1.34 4 1 C4.33 1.99 4.66 2.98 5 4 C4.01 5.485 4.01 5.485 3 7 C2.38125 6.649375 1.7625 6.29875 1.125 5.9375 C0.073125 5.4734375 0.073125 5.4734375 -1 5 C-1.99 5.495 -1.99 5.495 -3 6 C-2 4 -1 2 0 0 Z " fill="#E2E1DF" transform="translate(1011,841)"/>
<path d="M0 0 C3.875 4.75 3.875 4.75 5 7 C3.35 7.33 1.7 7.66 0 8 C-0.98120464 4.94736336 -0.98120464 3.05263664 0 0 Z " fill="#DFE1DE" transform="translate(617,788)"/>
<path d="M0 0 C0.66 0.33 1.32 0.66 2 1 C2 2.65 2 4.3 2 6 C0.33333333 6 -1.33333333 6 -3 6 C-2.625 3.5625 -2.625 3.5625 -2 1 C-1.34 0.67 -0.68 0.34 0 0 Z " fill="#F2F2F2" transform="translate(604,769)"/>
<path d="M0 0 C0.66 1.32 1.32 2.64 2 4 C1.01 4.66 0.02 5.32 -1 6 C-1.72965366 8.56282742 -1.72965366 8.56282742 -2 11 C-3.32 10.34 -4.64 9.68 -6 9 C-4.02 6.03 -2.04 3.06 0 0 Z " fill="#1D1F1D" transform="translate(956,749)"/>
<path d="M0 0 C0.66 0.33 1.32 0.66 2 1 C2 2.32 2 3.64 2 5 C1.38125 5.103125 0.7625 5.20625 0.125 5.3125 C-2.36526484 5.87525373 -2.36526484 5.87525373 -4 9 C-4.66 8.67 -5.32 8.34 -6 8 C-4.02 5.36 -2.04 2.72 0 0 Z " fill="#1B1B19" transform="translate(1163,723)"/>
<path d="M0 0 C0 0.66 0 1.32 0 2 C-3 4 -3 4 -6.1875 3.625 C-7.115625 3.41875 -8.04375 3.2125 -9 3 C-9 2.34 -9 1.68 -9 1 C-5.94152152 0.45627049 -3.11227195 0 0 0 Z " fill="#E0E0DE" transform="translate(56,75)"/>
<path d="M0 0 C0.66 0.99 1.32 1.98 2 3 C1.125 5.6875 1.125 5.6875 0 8 C-0.33 7.34 -0.66 6.68 -1 6 C-1.99 6.33 -2.98 6.66 -4 7 C-4 6.34 -4 5.68 -4 5 C-3.34 5 -2.68 5 -2 5 C-2 3.68 -2 2.36 -2 1 C-1.34 0.67 -0.68 0.34 0 0 Z " fill="#E5E5E3" transform="translate(1373,1095)"/>
<path d="M0 0 C0.33 1.32 0.66 2.64 1 4 C1.33 4.66 1.66 5.32 2 6 C-0.31 6.66 -2.62 7.32 -5 8 C-3.35 5.36 -1.7 2.72 0 0 Z " fill="#1A1C1A" transform="translate(860,899)"/>
<path d="M0 0 C0 0.66 0 1.32 0 2 C-1.98 2.33 -3.96 2.66 -6 3 C-6 3.66 -6 4.32 -6 5 C-6.99 5.33 -7.98 5.66 -9 6 C-7.54266958 1.38512035 -7.54266958 1.38512035 -5.0625 -0.375 C-3 -1 -3 -1 0 0 Z " fill="#F1F1EF" transform="translate(641,827)"/>
<path d="M0 0 C1.0326802 2.78823655 1.04509293 3.8677274 0.0625 6.75 C-0.288125 7.4925 -0.63875 8.235 -1 9 C-2.32 8.01 -3.64 7.02 -5 6 C-3.35 4.02 -1.7 2.04 0 0 Z " fill="#E3E2E0" transform="translate(1188,819)"/>
<path d="M0 0 C1.30048841 2.60097682 1.56471422 5.13955062 2 8 C0.02 7.34 -1.96 6.68 -4 6 C-3.6875 4.125 -3.6875 4.125 -3 2 C-2.01 1.34 -1.02 0.68 0 0 Z " fill="#F1F1F0" transform="translate(1199,806)"/>
<path d="M0 0 C2.40072955 2.88087546 4.47291037 5.56404834 6 9 C4.1875 8.875 4.1875 8.875 2 8 C0.1875 5.0625 0.1875 5.0625 -1 2 C-0.67 1.34 -0.34 0.68 0 0 Z " fill="#D9D9D7" transform="translate(726,966)"/>
<path d="M0 0 C0 3.32058331 -0.43061972 5.08543662 -2 8 C-4.58203125 9.15234375 -4.58203125 9.15234375 -7 10 C-6.02223933 8.51990357 -5.0427506 7.04094856 -4.0625 5.5625 C-3.51722656 4.73878906 -2.97195313 3.91507813 -2.41015625 3.06640625 C-1 1 -1 1 0 0 Z " fill="#DDDDDC" transform="translate(942,937)"/>
<path d="M0 0 C1 3 1 3 -0.4375 6.1875 C-1.2109375 7.5796875 -1.2109375 7.5796875 -2 9 C-2.66 9 -3.32 9 -4 9 C-3.47731534 6.23723823 -2.89130413 3.6739124 -2 1 C-1.34 0.67 -0.68 0.34 0 0 Z " fill="#F6F6F3" transform="translate(1166,851)"/>
<path d="M0 0 C0.99 0 1.98 0 3 0 C3.5534764 2.07553648 4 3.84365964 4 6 C3.34 6 2.68 6 2 6 C2 5.34 2 4.68 2 4 C0.35 4 -1.3 4 -3 4 C-1.6875 2 -1.6875 2 0 0 Z " fill="#E2E1DE" transform="translate(1019,830)"/>
<path d="M0 0 C1 3 1 3 -0.3125 5.6875 C-0.869375 6.450625 -1.42625 7.21375 -2 8 C-2.66 8 -3.32 8 -4 8 C-4.33 6.68 -4.66 5.36 -5 4 C-3.35 2.68 -1.7 1.36 0 0 Z " fill="#F1F1F1" transform="translate(901,831)"/>
<path d="M0 0 C0.33 0.66 0.66 1.32 1 2 C1.99 2.33 2.98 2.66 4 3 C3.67 3.66 3.34 4.32 3 5 C2.34 5 1.68 5 1 5 C0.67 5.66 0.34 6.32 0 7 C-0.66 6.01 -1.32 5.02 -2 4 C-1 1 -1 1 0 0 Z " fill="#F1F1EF" transform="translate(1467,800)"/>
<path d="M0 0 C1.98 0.66 3.96 1.32 6 2 C6 2.66 6 3.32 6 4 C4.02 4.66 2.04 5.32 0 6 C0 4.02 0 2.04 0 0 Z " fill="#F4F4F2" transform="translate(1312,800)"/>
<path d="M0 0 C0.66 0.99 1.32 1.98 2 3 C1.3125 4.9375 1.3125 4.9375 0 7 C-2.625 7.75 -2.625 7.75 -5 8 C-3.35 5.36 -1.7 2.72 0 0 Z " fill="#DEDEDC" transform="translate(1086,736)"/>
<path d="M0 0 C1.32 0.33 2.64 0.66 4 1 C3.34 2.32 2.68 3.64 2 5 C-1 5 -1 5 -3 4 C-2.01 2.68 -1.02 1.36 0 0 Z " fill="#F3F3F1" transform="translate(1399,720)"/>
<path d="M0 0 C0.33 0.66 0.66 1.32 1 2 C-0.32 3.65 -1.64 5.3 -3 7 C-4.32 6.67 -5.64 6.34 -7 6 C-4.69 4.02 -2.38 2.04 0 0 Z " fill="#E2E1E1" transform="translate(1409,1072)"/>
<path d="M0 0 C-4.95 1.485 -4.95 1.485 -10 3 C-8 -1 -8 -1 -5.5625 -1.875 C-3 -2 -3 -2 0 0 Z " fill="#E1E1DF" transform="translate(1320,1009)"/>
<path d="M0 0 C0.66 0.99 1.32 1.98 2 3 C0.35 5.31 -1.3 7.62 -3 10 C-4 7 -4 7 -3.22265625 5.17578125 C-2.1484375 3.45052083 -1.07421875 1.72526042 0 0 Z " fill="#E2E2E0" transform="translate(1360,971)"/>
<path d="M0 0 C0 2 0 4 0 6 C0.66 6.66 1.32 7.32 2 8 C1.34 8.66 0.68 9.32 0 10 C-1.32 8.35 -2.64 6.7 -4 5 C-2.25 1.125 -2.25 1.125 0 0 Z " fill="#F3F2F0" transform="translate(1191,817)"/>
<path d="M0 0 C1.98 0.99 3.96 1.98 6 3 C4.68 4.32 3.36 5.64 2 7 C1.34 6.67 0.68 6.34 0 6 C0 5.34 0 4.68 0 4 C0.66 4 1.32 4 2 4 C2 3.34 2 2.68 2 2 C1.34 2 0.68 2 0 2 C0 1.34 0 0.68 0 0 Z " fill="#F2F4F1" transform="translate(1143,737)"/>
<path d="M0 0 C0.99 0.33 1.98 0.66 3 1 C2.01 1 1.02 1 0 1 C0 0.67 0 0.34 0 0 Z M-5 1 C-4.67 1.66 -4.34 2.32 -4 3 C-2.35 2.67 -0.7 2.34 1 2 C0.67 2.99 0.34 3.98 0 5 C-0.99 5.33 -1.98 5.66 -3 6 C-4.32 4.68 -5.64 3.36 -7 2 C-6.34 1.67 -5.68 1.34 -5 1 Z " fill="#E5E5E3" transform="translate(1412,731)"/>
<path d="M0 0 C0.66 0.33 1.32 0.66 2 1 C1.34 2.32 0.68 3.64 0 5 C-0.66 5 -1.32 5 -2 5 C-2.66 5.66 -3.32 6.32 -4 7 C-4.33 6.34 -4.66 5.68 -5 5 C-3.35 3.35 -1.7 1.7 0 0 Z " fill="#F3F3F2" transform="translate(944,1155)"/>
<path d="M0 0 C0.99 0.33 1.98 0.66 3 1 C2.67 2.32 2.34 3.64 2 5 C1.34 5 0.68 5 0 5 C-0.33 5.66 -0.66 6.32 -1 7 C-1.625 4.625 -1.625 4.625 -2 2 C-1.34 1.34 -0.68 0.68 0 0 Z " fill="#DCDCDB" transform="translate(957,1135)"/>
<path d="M0 0 C0.625 1.8125 0.625 1.8125 1 4 C-1 7 -1 7 -4 9 C-4 5.00095031 -2.27413033 3.19799578 0 0 Z " fill="#1F1F1E" transform="translate(872,1120)"/>
<path d="M0 0 C0.66 0.99 1.32 1.98 2 3 C0.68 4.32 -0.64 5.64 -2 7 C-2.6875 5.1875 -2.6875 5.1875 -3 3 C-1.5625 1.25 -1.5625 1.25 0 0 Z " fill="#E0E0DE" transform="translate(1039,1107)"/>
<path d="M0 0 C0.99 0.66 1.98 1.32 3 2 C2.34 2 1.68 2 1 2 C0.34 3.65 -0.32 5.3 -1 7 C-1.99 6.67 -2.98 6.34 -4 6 C-2.68 4.02 -1.36 2.04 0 0 Z " fill="#151714" transform="translate(891,1095)"/>
<path d="M0 0 C0.66 0 1.32 0 2 0 C2 0.66 2 1.32 2 2 C2.99 1.67 3.98 1.34 5 1 C5.99 2.98 6.98 4.96 8 7 C7.01 7.495 7.01 7.495 6 8 C6 7.34 6 6.68 6 6 C5.34 6 4.68 6 4 6 C0 1.41176471 0 1.41176471 0 0 Z " fill="#E2E2E1" transform="translate(780,1060)"/>
<path d="M0 0 C0 3 0 3 -1 5 C-1.66 5 -2.32 5 -3 5 C-3.33 5.99 -3.66 6.98 -4 8 C-4.66 7.34 -5.32 6.68 -6 6 C-2.25 1.125 -2.25 1.125 0 0 Z " fill="#ECECEC" transform="translate(884,1019)"/>
<path d="M0 0 C2 1.8125 2 1.8125 4 4 C4 4.99 4 5.98 4 7 C3.01 6.67 2.02 6.34 1 6 C1 5.34 1 4.68 1 4 C0.34 4 -0.32 4 -1 4 C-0.67 2.68 -0.34 1.36 0 0 Z " fill="#E0E2E0" transform="translate(740,989)"/>
<path d="M0 0 C0.33 0.99 0.66 1.98 1 3 C-2.05263664 3.98120464 -3.94736336 3.98120464 -7 3 C-3.375 0 -3.375 0 0 0 Z " fill="#F3F3F2" transform="translate(989,957)"/>
<path d="M0 0 C2.74277578 3.19990508 4.6302836 6.00499382 6 10 C2.78970286 8.89300099 1.99031023 7.98396175 0.1875 5 C-0.4003125 3.515 -0.4003125 3.515 -1 2 C-0.67 1.34 -0.34 0.68 0 0 Z " fill="#D6D6D5" transform="translate(686,900)"/>
<path d="M0 0 C0.99 0.33 1.98 0.66 3 1 C1.35 3.64 -0.3 6.28 -2 9 C-2.66 8.34 -3.32 7.68 -4 7 C-1.125 1.125 -1.125 1.125 0 0 Z " fill="#F6F6F5" transform="translate(1074,754)"/>
<path d="M0 0 C0.33 1.32 0.66 2.64 1 4 C0.01 4.495 0.01 4.495 -1 5 C-1.33 5.99 -1.66 6.98 -2 8 C-2.99 8.33 -3.98 8.66 -5 9 C-3.7508258 5.54074837 -2.32472205 2.85306797 0 0 Z " fill="#1D1E1C" transform="translate(968,731)"/>
<path d="M0 0 C2.475 0.99 2.475 0.99 5 2 C5 3.32 5 4.64 5 6 C3.68 6 2.36 6 1 6 C0.67 4.02 0.34 2.04 0 0 Z " fill="#F1F1EF" transform="translate(1378,712)"/>
<path d="M0 0 C0.33 0.99 0.66 1.98 1 3 C-0.40445835 5.2636564 -2.1967913 7.0208685 -4 9 C-4.66 8.67 -5.32 8.34 -6 8 C-4.02 5.36 -2.04 2.72 0 0 Z " fill="#242422" transform="translate(857,1141)"/>
<path d="M0 0 C0.33 0 0.66 0 1 0 C1.25 5.625 1.25 5.625 -1 9 C-1.66 9 -2.32 9 -3 9 C-2.67 7.02 -2.34 5.04 -2 3 C-1.34 3 -0.68 3 0 3 C0 2.01 0 1.02 0 0 Z " fill="#F2F4F3" transform="translate(1017,1135)"/>
<path d="M0 0 C0.66 0.33 1.32 0.66 2 1 C1.4375 2.875 1.4375 2.875 0 5 C-3.625 6.25 -3.625 6.25 -7 7 C-4.66666667 4.66666667 -2.33333333 2.33333333 0 0 Z " fill="#D8D8D7" transform="translate(1420,1063)"/>
<path d="M0 0 C0.33 0 0.66 0 1 0 C1 1.65 1 3.3 1 5 C0.34 5 -0.32 5 -1 5 C-1 5.66 -1 6.32 -1 7 C-1.99 7.33 -2.98 7.66 -4 8 C-2.87548273 5.0280615 -1.77706209 2.66559313 0 0 Z " fill="#D5D5D5" transform="translate(887,1012)"/>
<path d="M0 0 C2.475 0.495 2.475 0.495 5 1 C5.33 1.99 5.66 2.98 6 4 C3.50907189 5.24546405 2.58919267 4.7767578 0 4 C0 2.68 0 1.36 0 0 Z " fill="#EEEEEC" transform="translate(836,923)"/>
<path d="M0 0 C0.66 0.99 1.32 1.98 2 3 C0.68 3.33 -0.64 3.66 -2 4 C-1.34 2.68 -0.68 1.36 0 0 Z M2 0 C3.32 0.33 4.64 0.66 6 1 C6 1.66 6 2.32 6 3 C4.68 2.67 3.36 2.34 2 2 C2 1.34 2 0.68 2 0 Z " fill="#E5E4E2" transform="translate(1178,832)"/>
<path d="M0 0 C0.99 0.33 1.98 0.66 3 1 C3.36923077 5.55384615 3.36923077 5.55384615 1.5 7.8125 C1.005 8.204375 0.51 8.59625 0 9 C-1.125 2.25 -1.125 2.25 0 0 Z " fill="#E4E5E4" transform="translate(959,736)"/>
<path d="M0 0 C2.88575819 0.39803561 3.82189513 0.79009069 5.75 3.0625 C6.1625 3.701875 6.575 4.34125 7 5 C5.68 5.33 4.36 5.66 3 6 C2.01 4.02 1.02 2.04 0 0 Z " fill="#E3E3E1" transform="translate(691,705)"/>
<path d="M0 0 C-0.33 1.65 -0.66 3.3 -1 5 C-3.475 4.01 -3.475 4.01 -6 3 C-6 2.34 -6 1.68 -6 1 C-3.92446352 0.4465236 -2.15634036 0 0 0 Z " fill="#E5E5E3" transform="translate(1359,703)"/>
<path d="M0 0 C0.33 0.66 0.66 1.32 1 2 C2.65 1.67 4.3 1.34 6 1 C5.67 1.66 5.34 2.32 5 3 C3.66923011 3.34342449 2.33568021 3.67619874 1 4 C0.34 4.66 -0.32 5.32 -1 6 C-1.625 4.125 -1.625 4.125 -2 2 C-1.34 1.34 -0.68 0.68 0 0 Z " fill="#E4E4E2" transform="translate(1607,1940)"/>
<path d="M0 0 C-1.01409778 2.53524446 -1.61497266 3.77139002 -4 5.1875 C-4.66 5.455625 -5.32 5.72375 -6 6 C-6.99 6.495 -6.99 6.495 -8 7 C-6.47663111 3.31852519 -4.31953005 0 0 0 Z " fill="#0B0B0B" transform="translate(999,1171)"/>
<path d="M0 0 C0.99 0 1.98 0 3 0 C2.43628586 3.26954202 1.50037734 4.82575883 -1 7 C-0.67 4.69 -0.34 2.38 0 0 Z " fill="#E4E4E4" transform="translate(833,1168)"/>
<path d="M0 0 C1.32 0.66 2.64 1.32 4 2 C3.01 2.99 2.02 3.98 1 5 C1 4.34 1 3.68 1 3 C-0.65 3.33 -2.3 3.66 -4 4 C-2.68 2.68 -1.36 1.36 0 0 Z " fill="#E4E5E4" transform="translate(1006,1150)"/>
<path d="M0 0 C-2.71182212 2.60334924 -3.89133813 2.99456691 -7.75 3.1875 C-8.8225 3.125625 -9.895 3.06375 -11 3 C-10 1 -10 1 -8.3125 0.375 C-5.51555886 -0.07855802 -2.82858003 -0.06428591 0 0 Z " fill="#FAFAFA" transform="translate(1308,1118)"/>
<path d="M0 0 C0.66 0 1.32 0 2 0 C2.79953138 3.28696233 3.09658936 4.71023192 2 8 C1.01 7.67 0.02 7.34 -1 7 C-1 6.34 -1 5.68 -1 5 C-0.34 5 0.32 5 1 5 C0.67 3.35 0.34 1.7 0 0 Z " fill="#F0F1EF" transform="translate(890,1085)"/>
<path d="M0 0 C0.33 0.99 0.66 1.98 1 3 C1.66 3.33 2.32 3.66 3 4 C2.01 5.485 2.01 5.485 1 7 C-0.32 6.01 -1.64 5.02 -3 4 C-2.01 2.68 -1.02 1.36 0 0 Z " fill="#E2E2E0" transform="translate(1051,1005)"/>
<path d="M0 0 C-0.99 0.495 -0.99 0.495 -2 1 C-1.67 2.32 -1.34 3.64 -1 5 C-1.99 4.67 -2.98 4.34 -4 4 C-4 3.01 -4 2.02 -4 1 C-4.66 0.67 -5.32 0.34 -6 0 C-3 -1 -3 -1 0 0 Z " fill="#F5F5F3" transform="translate(1326,1001)"/>
<path d="M0 0 C0 1.32 0 2.64 0 4 C-0.99 4.33 -1.98 4.66 -3 5 C-3 4.34 -3 3.68 -3 3 C-3.66 3 -4.32 3 -5 3 C-5 2.34 -5 1.68 -5 1 C-3 0 -3 0 0 0 Z " fill="#F4F4F2" transform="translate(1077,977)"/>
<path d="M0 0 C1.32 0 2.64 0 4 0 C3.34 1.65 2.68 3.3 2 5 C1.01 4.34 0.02 3.68 -1 3 C-0.67 2.01 -0.34 1.02 0 0 Z " fill="#E5E5E3" transform="translate(1129,898)"/>
<path d="M0 0 C0.99 0.33 1.98 0.66 3 1 C3 1.66 3 2.32 3 3 C2.34 3 1.68 3 1 3 C0.67 3.99 0.34 4.98 0 6 C-0.99 5.34 -1.98 4.68 -3 4 C-2.01 2.68 -1.02 1.36 0 0 Z " fill="#DDDDDB" transform="translate(989,871)"/>
<path d="M0 0 C2.7839183 1.39195915 2.97898997 3.15575779 4 6 C2.02 6 0.04 6 -2 6 C-2 5.34 -2 4.68 -2 4 C-1.34 4 -0.68 4 0 4 C0 2.68 0 1.36 0 0 Z " fill="#DBDDDC" transform="translate(646,835)"/>
<path d="M0 0 C2.875 -0.125 2.875 -0.125 6 0 C6.66 0.66 7.32 1.32 8 2 C6.02 2.66 4.04 3.32 2 4 C1.34 2.68 0.68 1.36 0 0 Z " fill="#F5F5F3" transform="translate(1296,796)"/>
<path d="M0 0 C1.0625 1.875 1.0625 1.875 2 4 C1.67 4.66 1.34 5.32 1 6 C-0.65 6 -2.3 6 -4 6 C-2.68 4.02 -1.36 2.04 0 0 Z " fill="#DCDCDB" transform="translate(1057,777)"/>
<path d="M0 0 C0.66 0 1.32 0 2 0 C1.50168276 3.68754757 0.89932357 5.60490662 -2 8 C-2.20086443 4.28400809 -2.1519437 3.22791555 0 0 Z " fill="#F1F2F0" transform="translate(944,763)"/>
<path d="M0 0 C1.32 0.66 2.64 1.32 4 2 C3.67 2.99 3.34 3.98 3 5 C1.35 5 -0.3 5 -2 5 C-1.34 3.35 -0.68 1.7 0 0 Z " fill="#F5F5F3" transform="translate(1114,699)"/>
</svg>
