<?xml version="1.0" encoding="UTF-8" standalone="no"?><!DOCTYPE svg PUBLIC "-//W3C//DTD SVG 1.1//EN" "http://www.w3.org/Graphics/SVG/1.1/DTD/svg11.dtd"><svg width="100%" height="100%" viewBox="0 0 3000 3000" version="1.1" xmlns="http://www.w3.org/2000/svg" xmlns:xlink="http://www.w3.org/1999/xlink" xml:space="preserve" xmlns:serif="http://www.serif.com/" style="fill-rule:evenodd;clip-rule:evenodd;stroke-linecap:round;stroke-linejoin:round;stroke-miterlimit:1.5;"><path d="M2461.613,593.529c-206.743,-22.902 -674.505,-68.771 -987.839,-53.994c-100.531,4.741 -184.427,15.166 -236.141,36.127c-10.278,4.166 -18.984,8.611 -25.649,13.843l-0.27,0.209c60.978,95.734 303.492,504.226 329.827,984.016c0.673,12.257 -3.76,24.245 -12.245,33.116l-498.96,521.656l817.284,495.59l106.963,-1210.494c1.279,-14.479 9.566,-27.414 22.184,-34.628c12.618,-7.215 27.969,-7.795 41.095,-1.554l685.343,325.857l-38.122,80.179l-627.683,-298.442l-107.618,1217.911c-1.35,15.272 -10.485,28.767 -24.162,35.694c-13.678,6.927 -29.962,6.305 -43.072,-1.644l-925.532,-561.23c-11.509,-6.979 -19.23,-18.803 -20.992,-32.147c-1.762,-13.344 2.626,-26.766 11.93,-36.493l523.773,-547.597c-34.857,-515.927 -327.021,-940.657 -327.021,-940.657c-5.628,-8.182 -8.349,-18.014 -7.73,-27.925c1.822,-29.151 16.905,-55.46 47.325,-76.504c29.864,-20.659 78.517,-37.005 141.291,-47.575c368.153,-61.986 1271.785,50.792 1271.785,50.792l0.066,0.008l16.231,5.285l13.199,11.049l8.435,16.474l1.512,9.389l-0.724,10.857c-0.885,4.687 -2.85,11.6 -8.527,19.377c-2.809,3.848 -9.762,11.25 -21.265,20.693c-101.316,83.169 -701.865,487.166 -701.865,487.166l-49.54,-73.673c0,0 439.663,-295.518 626.716,-430.729Z" style="fill:#7281ff;stroke:#000;stroke-width:1px;"/><path d="M797.87,2670.6l-67.09,80.378c0,0 -352.011,-291.171 -422.007,-897.204c-45.731,-395.944 28.862,-929.029 409.955,-1604.752l91.195,51.432c-366.22,649.352 -441.089,1160.816 -397.143,1541.307c64.52,558.622 385.09,828.838 385.09,828.838Z" style="fill:#7281ff;stroke:#000;stroke-width:1px;"/></svg>