<?xml version="1.0" standalone="no"?>
<!DOCTYPE svg PUBLIC "-//W3C//DTD SVG 20010904//EN"
 "http://www.w3.org/TR/2001/REC-SVG-20010904/DTD/svg10.dtd">
<svg version="1.0" xmlns="http://www.w3.org/2000/svg"
 width="500.000000pt" height="500.000000pt" viewBox="0 0 500.000000 500.000000"
 preserveAspectRatio="xMidYMid meet">

<g transform="translate(0.000000,500.000000) scale(0.100000,-0.100000)"
fill="#000000" stroke="none">
<path d="M1502 3830 c-63 -38 -115 -70 -118 -72 -3 -4 23 -52 138 -248 30 -52
113 -194 183 -315 70 -121 158 -272 195 -335 37 -63 111 -191 165 -285 121
-211 144 -247 153 -242 4 3 57 33 117 67 61 35 112 64 114 66 1 1 -19 40 -46
86 -27 46 -92 155 -143 243 -51 88 -124 214 -163 280 -38 66 -86 149 -107 185
-60 104 -148 256 -221 380 -37 63 -86 148 -108 188 -23 39 -43 72 -44 71 -1 0
-53 -31 -115 -69z"/>
<path d="M3354 3858 c-9 -18 -79 -142 -156 -276 -76 -133 -151 -264 -165 -290
-14 -26 -87 -153 -161 -282 -74 -129 -145 -253 -158 -275 -12 -22 -52 -92 -88
-154 -36 -63 -63 -118 -59 -122 14 -13 220 -129 230 -129 4 0 34 44 65 98 50
86 421 738 486 852 14 25 68 119 121 210 52 91 108 188 123 217 l28 51 -32 20
c-80 48 -198 112 -207 112 -6 0 -18 -15 -27 -32z"/>
<path d="M2370 1655 l0 -555 140 0 140 0 0 555 0 555 -140 0 -140 0 0 -555z"/>
</g>
</svg>
